<svg width="27" height="25" viewBox="0 0 27 25" fill="none" xmlns="http://www.w3.org/2000/svg">
<path d="M23.8092 5.35877H18.4051V3.52553C18.4051 1.85663 17.2577 0.5 15.8473 0.5H10.7464C9.33603 0.5 8.18857 1.85663 8.18857 3.52553V5.35877H2.78446C1.52494 5.35877 0.5 6.38371 0.5 7.64323V21.9655C0.5 23.2251 1.52494 24.25 2.78446 24.25H23.8078C25.0673 24.25 26.0922 23.2251 26.0922 21.9655V7.64323C26.0937 6.38371 25.0688 5.35877 23.8092 5.35877ZM9.08502 3.52553C9.08502 2.35117 9.83057 1.39645 10.7464 1.39645H15.8473C16.7631 1.39645 17.5087 2.35117 17.5087 3.52553V5.35877H17.1635V3.59575C17.1635 2.52598 16.3239 1.74906 15.1674 1.74906H11.4263C10.2698 1.74906 9.43016 2.52598 9.43016 3.59575V5.35728H9.08502V3.52553ZM16.2671 5.35877H10.3266V3.59575C10.3266 2.93984 10.8794 2.64551 11.4263 2.64551H15.1674C15.7143 2.64551 16.2671 2.93984 16.2671 3.59575V5.35877ZM25.1973 21.9655C25.1973 22.7305 24.5742 23.3535 23.8092 23.3535H2.78446C2.01949 23.3535 1.39645 22.7305 1.39645 21.9655V7.64323C1.39645 6.87826 2.01949 6.25522 2.78446 6.25522H8.63231C8.63381 6.25522 8.6353 6.25522 8.6353 6.25522H8.63829H17.9509C17.9524 6.25522 17.9539 6.25522 17.9539 6.25522H17.9569H23.8048C24.5697 6.25522 25.1928 6.87826 25.1928 7.64323V21.9655H25.1973Z" fill="white"/>
<path d="M18.8038 12.1837H15.9187V9.30016C15.9187 9.19109 15.8828 9.0865 15.8201 8.99985C15.8126 8.98939 15.8036 8.98042 15.7947 8.97146C15.7812 8.95652 15.7693 8.94008 15.7558 8.92514C15.7543 8.92365 15.7513 8.92215 15.7498 8.92066C15.7484 8.91917 15.7469 8.91767 15.7454 8.91618C15.7394 8.9102 15.7319 8.90721 15.7259 8.90273C15.6348 8.82653 15.5213 8.7832 15.4002 8.7832H11.1959C11.0928 8.7832 10.9912 8.81607 10.906 8.87434C10.8986 8.87882 10.8911 8.8848 10.8836 8.89078C10.8717 8.89974 10.8582 8.90871 10.8463 8.91916C10.8433 8.92215 10.8418 8.92514 10.8388 8.92813C10.8358 8.93112 10.8328 8.93261 10.8298 8.9356C10.8224 8.94307 10.8179 8.95054 10.8119 8.95801C10.7955 8.97594 10.779 8.99536 10.7656 9.01479C10.7581 9.02674 10.7506 9.04019 10.7447 9.05214C10.7372 9.06409 10.7297 9.07604 10.7237 9.08949C10.7208 9.09696 10.7193 9.10593 10.7163 9.1134C10.7148 9.11788 10.7103 9.12236 10.7088 9.12834C10.7058 9.13581 10.7058 9.14328 10.7043 9.14925C10.6894 9.19707 10.6789 9.24637 10.6789 9.30016V12.1837H7.79234C7.50697 12.1837 7.27539 12.4153 7.27539 12.7007V16.9051C7.27539 17.1904 7.50697 17.4235 7.79234 17.4235H10.6789V20.3086C10.6789 20.594 10.9105 20.8255 11.1959 20.8255H15.4017C15.6871 20.8255 15.9187 20.594 15.9187 20.3086V17.4235H18.8038C19.0891 17.4235 19.3207 17.1904 19.3207 16.9051V12.7007C19.3207 12.4153 19.0891 12.1837 18.8038 12.1837ZM18.4243 16.5271H15.5392C15.2538 16.5271 15.0222 16.7586 15.0222 17.044V19.9291H11.5754V17.044C11.5754 16.7586 11.3423 16.5271 11.0569 16.5271H8.17184V13.0802H11.0569C11.3423 13.0802 11.5754 12.8486 11.5754 12.5632V9.67966H15.0207V10.4312C15.0207 10.4357 15.0222 10.4401 15.0222 10.4461V12.5632C15.0222 12.8486 15.2538 13.0802 15.5392 13.0802H18.4243V16.5271Z" fill="white"/>
</svg>
