<svg width="28" height="16" viewBox="0 0 28 16" fill="none" xmlns="http://www.w3.org/2000/svg">
<path fill-rule="evenodd" clip-rule="evenodd" d="M25.5051 4.4286C26.124 4.4286 26.6276 4.93218 26.6276 5.55105V13.4082C26.6276 14.0271 26.124 14.5306 25.5051 14.5306C24.8862 14.5306 24.3827 14.0271 24.3827 13.4082V5.55105C24.3827 4.93218 24.8862 4.4286 25.5051 4.4286ZM27.75 5.55105C27.75 4.31227 26.7439 3.30615 25.5051 3.30615C24.2663 3.30615 23.2602 4.31227 23.2602 5.55105V13.4082C23.2602 14.647 24.2663 15.6531 25.5051 15.6531C26.7439 15.6531 27.75 14.647 27.75 13.4082V5.55105Z" fill="white"/>
<path fill-rule="evenodd" clip-rule="evenodd" d="M2.49534 1.62245C3.11421 1.62245 3.61779 2.12603 3.61779 2.7449V13.4082C3.61779 14.027 3.11421 14.5306 2.49534 14.5306C1.87647 14.5306 1.37289 14.027 1.37289 13.4082V2.7449C1.37289 2.12603 1.87647 1.62245 2.49534 1.62245ZM4.74023 2.7449C4.74023 1.50612 3.73412 0.5 2.49534 0.5C1.25655 0.5 0.250438 1.50612 0.250438 2.7449V13.4082C0.250438 14.6469 1.25655 15.6531 2.49534 15.6531C3.73412 15.6531 4.74023 14.6469 4.74023 13.4082V2.7449Z" fill="white"/>
<path fill-rule="evenodd" clip-rule="evenodd" d="M24.3828 7.79597C24.3828 7.48601 24.1315 7.23474 23.8216 7.23474H4.29378C3.98383 7.23474 3.73256 7.48601 3.73256 7.79597C3.73256 8.10592 3.98383 8.35719 4.29378 8.35719H23.8216C24.1315 8.35719 24.3828 8.10592 24.3828 7.79597Z" fill="white"/>
<path fill-rule="evenodd" clip-rule="evenodd" d="M17.9287 11.7246C17.9287 11.4146 17.6774 11.1633 17.3675 11.1633H4.29376C3.98381 11.1633 3.73254 11.4146 3.73254 11.7246C3.73254 12.0345 3.98381 12.2858 4.29376 12.2858H17.3675C17.6774 12.2858 17.9287 12.0345 17.9287 11.7246Z" fill="white"/>
<path fill-rule="evenodd" clip-rule="evenodd" d="M24.3828 11.7246C24.3828 11.4146 24.1315 11.1633 23.8216 11.1633H19.4721C19.1621 11.1633 18.9109 11.4146 18.9109 11.7246C18.9109 12.0345 19.1621 12.2858 19.4721 12.2858H23.8216C24.1315 12.2858 24.3828 12.0345 24.3828 11.7246Z" fill="white"/>
<path fill-rule="evenodd" clip-rule="evenodd" d="M5.58119 3.86744C7.1317 3.86744 8.38732 5.12306 8.38732 6.67357V7.23479C8.38732 7.54475 8.63859 7.79602 8.94854 7.79602C9.2585 7.79602 9.50977 7.54475 9.50977 7.23479V6.67357C9.50977 4.50315 7.75161 2.745 5.58119 2.745H4.32125C4.01129 2.745 3.76002 2.99626 3.76002 3.30622C3.76002 3.61618 4.01129 3.86744 4.32125 3.86744H5.58119Z" fill="white"/>
<path fill-rule="evenodd" clip-rule="evenodd" d="M24.2119 5.64374C24.2119 5.33379 23.9606 5.08252 23.6507 5.08252V5.64374V6.20497C23.9606 6.20497 24.2119 5.9537 24.2119 5.64374ZM23.6507 5.64374C23.6507 6.20497 23.6508 6.20497 23.6507 6.20497H11.8762C11.3417 6.20497 10.8133 6.31442 10.4384 6.54757C10.0954 6.76084 9.8614 7.08377 9.8614 7.63048C9.8614 7.94043 9.61013 8.1917 9.30018 8.1917C8.99022 8.1917 8.73895 7.94043 8.73895 7.63048C8.73895 6.6675 9.19807 5.99706 9.84566 5.59438C10.4613 5.21159 11.2209 5.08252 11.8762 5.08252H23.6507C23.6508 5.08252 23.6507 5.08252 23.6507 5.64374Z" fill="white"/>
</svg>
