<svg width="29" height="15" viewBox="0 0 29 15" fill="none" xmlns="http://www.w3.org/2000/svg">
<path fill-rule="evenodd" clip-rule="evenodd" d="M21.1329 5.42591L21.1316 5.42429L21.1259 5.41687C21.1205 5.40999 21.1121 5.39928 21.1007 5.385C21.078 5.35643 21.0435 5.31359 20.9978 5.25852C20.9063 5.14832 20.7705 4.98939 20.5953 4.79798C20.2446 4.41459 19.7393 3.90388 19.1212 3.39424C17.8707 2.36295 16.2258 1.3917 14.5025 1.3917C10.2148 1.3917 7.71318 2.33592 6.21979 3.27724C5.47137 3.74899 4.96385 4.22764 4.60334 4.60744C4.48703 4.72996 4.39831 4.82848 4.31519 4.92076C4.25859 4.98361 4.20459 5.04357 4.14626 5.10625C4.08272 5.17451 4.017 5.24229 3.95194 5.29986C3.89055 5.35419 3.80565 5.42146 3.70202 5.46608C3.47586 5.56347 3.21358 5.45908 3.11619 5.23292C3.0209 5.01161 3.11881 4.75572 3.33496 4.65358C3.33908 4.65054 3.34763 4.64393 3.36103 4.63207C3.39304 4.60374 3.43526 4.56134 3.4935 4.49876C3.52984 4.45972 3.57707 4.40744 3.63126 4.34746C3.72552 4.24313 3.84086 4.11548 3.95661 3.99354C4.35175 3.57728 4.91581 3.04511 5.7443 2.52289C7.40473 1.47628 10.0783 0.5 14.5025 0.5C16.54 0.5 18.3872 1.63316 19.6886 2.70628C20.3465 3.24884 20.8821 3.79034 21.2533 4.1961C21.4391 4.39927 21.5845 4.56915 21.684 4.68913C21.7338 4.74914 21.7722 4.79672 21.7985 4.8298C21.8117 4.84635 21.8218 4.85927 21.8289 4.86832L21.8371 4.87895L21.8395 4.88203L21.8405 4.88333C21.8406 4.88346 21.8407 4.88357 21.4867 5.15467L21.8407 4.88357C21.9904 5.07906 21.9533 5.35891 21.7578 5.50863C21.5624 5.65832 21.2826 5.62127 21.1329 5.42591Z" fill="white"/>
<path fill-rule="evenodd" clip-rule="evenodd" d="M10.0239 1.03723C9.77764 1.03723 9.57803 1.23685 9.57803 1.48308V4.94956C9.57803 5.1958 9.77764 5.39541 10.0239 5.39541C10.2701 5.39541 10.4697 5.1958 10.4697 4.94956V1.48308C10.4697 1.23685 10.2701 1.03723 10.0239 1.03723Z" fill="white"/>
<path fill-rule="evenodd" clip-rule="evenodd" d="M3.93762 4.61963H3.93613C3.29347 4.61963 2.38957 4.68342 1.64334 5.20279C0.864082 5.74516 0.354918 6.70972 0.353727 8.28864V8.28897C0.353727 9.8822 0.915295 10.9129 1.68311 11.5351C2.43227 12.1421 3.32438 12.3172 3.9339 12.3172H4.38644C4.52957 12.3172 4.66399 12.2485 4.74782 12.1325C4.83165 12.0165 4.85468 11.8673 4.80974 11.7314C4.72982 11.4897 4.68516 11.236 4.68516 10.9752C4.68516 9.65875 5.75176 8.59215 7.06822 8.59215C8.38469 8.59215 9.45129 9.65875 9.45129 10.9752C9.45129 11.2385 9.40652 11.492 9.32704 11.7304C9.28172 11.8663 9.30452 12.0158 9.38832 12.1321C9.47211 12.2483 9.60669 12.3172 9.75001 12.3172H19.9845C20.1276 12.3172 20.262 12.2485 20.3459 12.1325C20.4297 12.0165 20.4527 11.8673 20.4078 11.7314C20.3279 11.4897 20.2832 11.236 20.2832 10.9752C20.2832 9.65875 21.3498 8.59215 22.6663 8.59215C23.9827 8.59215 25.0493 9.65875 25.0493 10.9752C25.0493 11.2385 25.0046 11.492 24.9251 11.7304C24.8798 11.8663 24.9026 12.0158 24.9864 12.1321C25.0702 12.2483 25.2047 12.3172 25.3481 12.3172H26.7166C26.8548 12.3172 27.0271 12.3133 27.1999 12.259C27.3887 12.1997 27.5472 12.0917 27.6885 11.9338C27.9391 11.6539 28.1667 11.1747 28.4732 10.4296C29.1869 8.70085 28.3888 7.29841 27.5671 6.82762C27.5529 6.8195 27.5377 6.81073 27.5214 6.80135C26.8039 6.38906 24.0368 4.79884 20.2447 4.70892C16.4787 4.61963 5.19447 4.61963 3.93762 4.61963ZM3.93613 5.51133C5.19243 5.51133 16.4696 5.51136 20.2236 5.60037C23.7882 5.68489 26.3944 7.18227 27.0812 7.57687C27.0964 7.58557 27.1106 7.59373 27.1238 7.60133C27.5549 7.84834 28.1924 8.77315 27.649 10.0895L27.6487 10.09C27.329 10.8672 27.1541 11.1939 27.0241 11.3391C26.9751 11.3938 26.9488 11.4033 26.9328 11.4083C26.9008 11.4183 26.8484 11.4255 26.7168 11.4255H25.9094C25.9301 11.2788 25.941 11.1285 25.941 10.9752C25.941 9.16628 24.4752 7.70045 22.6663 7.70045C20.8573 7.70045 19.3915 9.16628 19.3915 10.9752C19.3915 11.1282 19.4026 11.2785 19.4234 11.4255H10.3114C10.332 11.2788 10.343 11.1285 10.343 10.9752C10.343 9.16628 8.87716 7.70045 7.06822 7.70045C5.25928 7.70045 3.79346 9.16628 3.79346 10.9752C3.79346 11.1274 3.80439 11.2769 3.82497 11.4231C3.36756 11.4029 2.75233 11.2538 2.24449 10.8423C1.71381 10.4123 1.2455 9.65186 1.24543 8.28931C1.24647 6.91224 1.67804 6.26506 2.15273 5.93467C2.66047 5.58129 3.32372 5.51133 3.93613 5.51133Z" fill="white"/>
<path fill-rule="evenodd" clip-rule="evenodd" d="M23.7576 11.5878C23.601 11.3978 23.32 11.3707 23.13 11.5273C23.0036 11.6315 22.8443 11.6931 22.6689 11.6931C22.4935 11.6931 22.3343 11.6315 22.2079 11.5273C22.0179 11.3707 21.7369 11.3978 21.5803 11.5878C21.4237 11.7779 21.4508 12.0588 21.6408 12.2155C21.9202 12.4457 22.2781 12.5848 22.6689 12.5848C23.0598 12.5848 23.4177 12.4457 23.6971 12.2155C23.8871 12.0588 23.9142 11.7779 23.7576 11.5878Z" fill="white"/>
<path fill-rule="evenodd" clip-rule="evenodd" d="M25.4892 11.4485C25.2557 11.3705 25.0031 11.4966 24.9251 11.7301C24.6093 12.6756 23.7164 13.3583 22.6662 13.3583C21.616 13.3583 20.7231 12.6756 20.4073 11.7301C20.3293 11.4966 20.0767 11.3705 19.8432 11.4485C19.6096 11.5265 19.4835 11.7791 19.5615 12.0126C19.9948 13.3098 21.2197 14.25 22.6662 14.25C24.1127 14.25 25.3376 13.3098 25.7709 12.0126C25.8489 11.7791 25.7228 11.5265 25.4892 11.4485Z" fill="white"/>
<path fill-rule="evenodd" clip-rule="evenodd" d="M23.7546 11.5878C23.598 11.3978 23.317 11.3707 23.127 11.5273C23.0007 11.6315 22.8414 11.6931 22.666 11.6931C22.4906 11.6931 22.3314 11.6315 22.205 11.5273C22.015 11.3707 21.734 11.3978 21.5774 11.5878C21.4208 11.7779 21.4479 12.0588 21.6379 12.2155C21.9172 12.4457 22.2752 12.5848 22.666 12.5848C23.0568 12.5848 23.4148 12.4457 23.6941 12.2155C23.8842 12.0588 23.9112 11.7779 23.7546 11.5878Z" fill="white"/>
<path fill-rule="evenodd" clip-rule="evenodd" d="M24.2754 10.9752C24.2754 10.087 23.5541 9.36572 22.6659 9.36572C21.7782 9.36572 21.0564 10.0842 21.0564 10.9752C21.0564 11.4759 21.2857 11.9198 21.6378 12.2137C21.8268 12.3715 22.108 12.3461 22.2658 12.1571C22.4236 11.9681 22.3983 11.6869 22.2093 11.5291C22.0486 11.395 21.9481 11.1969 21.9481 10.9752C21.9481 10.5778 22.2695 10.2574 22.6659 10.2574C23.0617 10.2574 23.3837 10.5795 23.3837 10.9752C23.3837 11.1968 23.2837 11.3957 23.124 11.5279C22.9343 11.6849 22.9077 11.966 23.0647 12.1557C23.2217 12.3454 23.5028 12.3719 23.6925 12.2149C24.0499 11.9191 24.2754 11.4715 24.2754 10.9752Z" fill="white"/>
<path fill-rule="evenodd" clip-rule="evenodd" d="M9.89351 11.4485C9.65996 11.3705 9.40739 11.4966 9.32939 11.7301C9.0136 12.6756 8.12072 13.3583 7.07049 13.3583C6.02026 13.3583 5.12737 12.6756 4.81159 11.7301C4.73358 11.4966 4.48101 11.3705 4.24746 11.4485C4.01391 11.5265 3.88781 11.7791 3.96581 12.0126C4.39906 13.3098 5.62396 14.25 7.07049 14.25C8.51701 14.25 9.74191 13.3098 10.1752 12.0126C10.2532 11.7791 10.1271 11.5265 9.89351 11.4485Z" fill="white"/>
<path fill-rule="evenodd" clip-rule="evenodd" d="M8.15698 11.5878C8.00038 11.3978 7.71938 11.3707 7.52936 11.5273C7.40301 11.6315 7.24375 11.6931 7.06836 11.6931C6.89434 11.6931 6.73394 11.631 6.61144 11.5289C6.42228 11.3713 6.14114 11.3968 5.98351 11.586C5.82587 11.7751 5.85143 12.0563 6.04059 12.2139C6.31936 12.4462 6.68061 12.5848 7.06836 12.5848C7.45919 12.5848 7.81712 12.4457 8.09649 12.2155C8.28651 12.0588 8.31359 11.7779 8.15698 11.5878Z" fill="white"/>
<path fill-rule="evenodd" clip-rule="evenodd" d="M7.07017 10.2574C7.46651 10.2574 7.78799 10.5778 7.78799 10.9752C7.78799 11.1969 7.68743 11.395 7.52679 11.5291C7.33776 11.6869 7.31244 11.9681 7.47024 12.1571C7.62804 12.3461 7.9092 12.3715 8.09823 12.2137C8.45031 11.9198 8.67969 11.4759 8.67969 10.9752C8.67969 10.0842 7.95787 9.36572 7.07017 9.36572C6.18191 9.36572 5.46065 10.087 5.46065 10.9752C5.46065 11.4715 5.68618 11.9191 6.04357 12.2149C6.23327 12.3719 6.51432 12.3454 6.67131 12.1557C6.8283 11.966 6.80179 11.6849 6.61209 11.5279C6.4523 11.3957 6.35235 11.1968 6.35235 10.9752C6.35235 10.5795 6.67438 10.2574 7.07017 10.2574Z" fill="white"/>
<path fill-rule="evenodd" clip-rule="evenodd" d="M10.3447 10.9752C10.3447 9.16627 8.8789 7.70044 7.06996 7.70044C5.26102 7.70044 3.79519 9.16627 3.79519 10.9752C3.79519 11.3405 3.85742 11.689 3.9652 12.0124C4.04307 12.246 4.29556 12.3722 4.52916 12.2943C4.76276 12.2165 4.88901 11.964 4.81114 11.7304C4.73167 11.4919 4.68689 11.2385 4.68689 10.9752C4.68689 9.65874 5.75349 8.59214 7.06996 8.59214C8.38643 8.59214 9.45303 9.65874 9.45303 10.9752C9.45303 11.236 9.40836 11.4897 9.32844 11.7314C9.25113 11.9652 9.37797 12.2174 9.61176 12.2947C9.84554 12.372 10.0977 12.2451 10.175 12.0114C10.2824 11.6868 10.3447 11.3386 10.3447 10.9752Z" fill="white"/>
<path fill-rule="evenodd" clip-rule="evenodd" d="M8.15698 11.5878C8.00038 11.3978 7.71938 11.3707 7.52936 11.5273C7.40301 11.6315 7.24375 11.6931 7.06836 11.6931C6.89256 11.6931 6.7343 11.6313 6.61144 11.5289C6.42228 11.3713 6.14114 11.3968 5.98351 11.586C5.82587 11.7751 5.85143 12.0563 6.04059 12.2139C6.31901 12.4459 6.67793 12.5848 7.06836 12.5848C7.45919 12.5848 7.81712 12.4457 8.09649 12.2155C8.28651 12.0588 8.31359 11.7779 8.15698 11.5878Z" fill="white"/>
<path fill-rule="evenodd" clip-rule="evenodd" d="M8.67773 10.9752C8.67773 10.087 7.95648 9.36572 7.06822 9.36572C6.18051 9.36572 5.4587 10.0842 5.4587 10.9752C5.4587 11.4759 5.68808 11.9198 6.04016 12.2137C6.22919 12.3715 6.51035 12.3461 6.66815 12.1571C6.82594 11.9681 6.80063 11.6869 6.6116 11.5291C6.45095 11.395 6.3504 11.1969 6.3504 10.9752C6.3504 10.5778 6.67187 10.2574 7.06822 10.2574C7.464 10.2574 7.78604 10.5795 7.78604 10.9752C7.78604 11.1951 7.68511 11.3953 7.52484 11.5291C7.33581 11.6869 7.31049 11.9681 7.46829 12.1571C7.62609 12.3461 7.90725 12.3715 8.09628 12.2137C8.44873 11.9194 8.67773 11.4732 8.67773 10.9752Z" fill="white"/>
<path fill-rule="evenodd" clip-rule="evenodd" d="M2.85938 7.39287C2.85938 7.14664 2.65976 6.94702 2.41353 6.94702H0.931075C0.684839 6.94702 0.485225 7.14664 0.485225 7.39287C0.485225 7.63911 0.684839 7.83872 0.931075 7.83872H2.41353C2.65976 7.83872 2.85938 7.63911 2.85938 7.39287Z" fill="white"/>
<path fill-rule="evenodd" clip-rule="evenodd" d="M2.85938 9.00457C2.85938 8.75833 2.65976 8.55872 2.41353 8.55872H1.07152C0.825281 8.55872 0.625667 8.75833 0.625667 9.00457C0.625667 9.2508 0.825281 9.45042 1.07152 9.45042H2.41353C2.65976 9.45042 2.85938 9.2508 2.85938 9.00457Z" fill="white"/>
<path fill-rule="evenodd" clip-rule="evenodd" d="M12.6172 6.84001C12.6172 6.59378 12.4176 6.39417 12.1713 6.39417H11.0054C10.7592 6.39417 10.5596 6.59378 10.5596 6.84001C10.5596 7.08625 10.7592 7.28586 11.0054 7.28586H12.1713C12.4176 7.28586 12.6172 7.08625 12.6172 6.84001Z" fill="white"/>
</svg>
