<svg width="27" height="28" viewBox="0 0 27 28" fill="none" xmlns="http://www.w3.org/2000/svg">
<path d="M17.8646 6.97163L17.8646 6.97197C17.8429 7.17586 17.784 7.37245 17.7212 7.54678L17.7211 7.54712C16.9932 9.55708 16.2638 11.5674 15.528 13.5749L15.5279 13.575C14.7971 15.5667 13.4201 16.9202 11.4066 17.6033M17.8646 6.97163L1.22043 8.40786C0.954515 9.13729 0.806814 9.88834 0.806077 10.8738L0.806079 10.8745C0.808335 11.886 1.13371 13.0137 1.7617 14.0466C1.8809 14.2427 2.00007 14.439 2.11927 14.6353C2.72194 15.6277 3.32522 16.6212 3.93445 17.6111L3.93448 17.6112C4.32964 18.2528 4.8644 18.7041 5.49082 18.9307C6.11716 19.1573 6.81707 19.1527 7.53145 18.9135C8.71781 18.517 9.90233 18.1145 11.086 17.7122C11.1929 17.6759 11.2997 17.6396 11.4066 17.6033M17.8646 6.97163C17.922 6.42388 17.8133 5.92873 17.5343 5.51631C17.2568 5.1059 16.825 4.79855 16.2723 4.59722L16.2723 4.59721C12.9731 3.39581 9.67389 2.19656 6.37398 0.998731L6.37395 0.998722M17.8646 6.97163L6.37395 0.998722M11.4066 17.6033L11.3263 17.3665M11.4066 17.6033C11.4066 17.6032 11.4067 17.6032 11.4067 17.6032L11.3263 17.3665M11.3263 17.3665C13.2676 16.708 14.5883 15.4102 15.2932 13.4888L11.3263 17.3665ZM6.37395 0.998722C5.73414 0.766556 5.1121 0.774752 4.58345 1.02179C4.05489 1.26879 3.64907 1.74081 3.41545 2.38066L6.37395 0.998722ZM1.86432 6.63789C2.38048 5.21859 2.89671 3.7991 3.4154 2.38079L1.86432 6.63789ZM1.86432 6.63789C1.64975 7.22791 1.43519 7.81789 1.22047 8.40774L1.86432 6.63789ZM3.10993 2.32579L3.10995 2.32574C3.28127 1.84682 3.60745 1.42155 3.96623 1.10265C4.33028 0.779053 4.6989 0.590183 4.93489 0.549401C5.22127 0.499909 5.39564 0.493732 5.53009 0.5045C5.64177 0.513444 5.72979 0.533645 5.84973 0.561172C5.87478 0.566921 5.90123 0.57299 5.92957 0.579343C7.66785 1.20494 9.37737 1.81323 11.0861 2.42123L11.1489 2.44359C12.8835 3.06081 14.6177 3.67795 16.3813 4.31309C17.0178 4.54258 17.4894 4.90292 17.7886 5.35214C18.0873 5.80051 18.2253 6.35353 18.1684 6.98901L18.1683 6.98935C18.152 7.17429 18.1051 7.36572 18.0387 7.54903L18.0387 7.54916C17.8546 8.05854 17.6715 8.56796 17.4885 9.07717C16.9152 10.6723 16.3426 12.2653 15.7423 13.8488C14.9895 15.8335 13.583 17.166 11.5733 17.8668C10.2796 18.3176 8.97912 18.7506 7.67677 19.1842L7.67672 19.1842C6.84354 19.4618 6.05935 19.4564 5.37561 19.2059C4.69185 18.9555 4.09017 18.4532 3.63365 17.7056C2.94153 16.5713 2.24957 15.4373 1.55977 14.3012C0.387665 12.3703 0.186416 10.3554 0.962996 8.23149C0.963008 8.23145 0.963021 8.23142 0.963033 8.23139L1.05101 7.99112C1.74162 6.10503 2.43266 4.21777 3.10993 2.32579Z" fill="white" stroke="white" stroke-width="0.5"/>
<path d="M25.5929 22.2333L25.5929 22.2333C26.4565 20.7926 26.793 19.2463 26.4734 17.6056C26.3405 16.926 26.1054 16.2613 25.8651 15.5819C25.8433 15.5201 25.8214 15.4582 25.7995 15.3961L25.5929 22.2333ZM25.5929 22.2333C24.8694 23.4413 24.1351 24.6431 23.3955 25.8424C22.8575 26.7138 21.947 27.2511 21.0563 27.4494C20.8579 27.486 20.7342 27.5004 20.624 27.4998C20.5172 27.4993 20.413 27.4849 20.254 27.4524C19.7621 27.292 19.2705 27.1335 18.7794 26.9751C17.6906 26.6241 16.6043 26.2738 15.5227 25.9057L15.5227 25.9057M25.5929 22.2333L15.5227 25.9057M15.5227 25.9057C13.4794 25.2103 12.0872 23.8385 11.3144 21.8232L15.5227 25.9057ZM10.6876 19.6585C10.7464 19.6354 10.7716 19.6456 10.7885 19.656C10.8168 19.6734 10.8687 19.7253 10.9172 19.8565L10.9172 19.8566C10.9997 20.0794 11.0811 20.3055 11.1629 20.5329C11.3201 20.9697 11.479 21.4112 11.6507 21.8434C12.3924 23.7109 13.7346 24.9718 15.6276 25.6265L15.6276 25.6265C16.5276 25.9376 17.4307 26.241 18.3326 26.5439C18.7237 26.6753 19.1145 26.8066 19.5048 26.9384L19.5049 26.9384C20.2473 27.1891 20.9612 27.2021 21.5992 26.9714C22.2373 26.7408 22.7766 26.2747 23.1844 25.6078L23.1844 25.6077C23.8823 24.4654 24.5788 23.3225 25.2739 22.1788L25.2739 22.1788C26.3866 20.3472 26.5827 18.413 25.8458 16.3949C25.4764 15.3833 25.1113 14.3775 24.746 13.3714C24.3922 12.3967 24.0382 11.4218 23.6802 10.4409L23.6802 10.4409C23.4417 9.78772 23.0343 9.30929 22.4988 9.06222C21.9636 8.81531 21.3338 8.81478 20.6794 9.05317L10.6876 19.6585ZM10.6876 19.6585C10.6232 19.6844 10.6095 19.7113 10.6033 19.7311C10.5933 19.7634 10.5884 19.8361 10.6367 19.9696L10.6368 19.9697C10.69 20.1167 10.7427 20.2635 10.7954 20.41C10.9658 20.8838 11.1352 21.355 11.3144 21.823L10.6876 19.6585ZM19.0562 9.32493L19.0561 9.32494C18.9235 9.3737 18.8671 9.42601 18.8467 9.45696C18.8341 9.4761 18.8249 9.4998 18.8442 9.55287C18.8657 9.61232 18.8932 9.63048 18.9184 9.63906C18.953 9.65083 19.0252 9.65697 19.1469 9.61303C19.4241 9.51278 19.6979 9.41233 19.9724 9.31165C20.2067 9.2257 20.4415 9.13958 20.6792 9.05326L19.0562 9.32493ZM19.0562 9.32493C19.1644 9.28512 19.2726 9.24531 19.3807 9.20552C19.783 9.0575 20.1849 8.90964 20.5872 8.76221C21.3341 8.48911 22.0418 8.51869 22.6248 8.78792C23.2076 9.05711 23.6872 9.57581 23.9598 10.3211L23.9598 10.3211M19.0562 9.32493L23.9598 10.3211M23.9598 10.3211C24.0543 10.5793 24.1488 10.8373 24.2433 11.0953M23.9598 10.3211L24.2433 11.0953M24.2433 11.0953C24.768 12.5278 25.2922 13.9588 25.7994 15.3959L24.2433 11.0953Z" fill="white" stroke="white" stroke-width="0.5"/>
<path d="M20.1113 19.1006L20.1113 19.1006C21.4923 19.1361 22.5256 19.7682 23.2388 20.9589C23.2885 21.042 23.3144 21.0989 23.323 21.1444C23.3294 21.1779 23.3272 21.2067 23.3017 21.247C23.275 21.2888 23.2503 21.3017 23.2204 21.3092C23.1784 21.3197 23.1177 21.32 23.0217 21.3076L23.0211 21.3075C22.9121 21.2937 22.7954 21.2885 22.6921 21.2838C22.6515 21.282 22.6129 21.2803 22.5777 21.2781L22.5668 21.2775L22.556 21.2778C20.3895 21.3356 18.4607 22.0225 16.8682 23.5545L17.0415 23.7347L16.8684 23.5543C16.797 23.6228 16.7529 23.6591 16.7141 23.6776C16.6888 23.6897 16.6664 23.6948 16.6247 23.6813C16.5784 23.6661 16.5578 23.6448 16.5404 23.6136C16.5164 23.5707 16.4998 23.5101 16.4804 23.4115C16.0396 21.1683 17.824 19.0412 20.1113 19.1006ZM16.7604 22.6865L16.8025 23.1397L17.1624 22.861C18.6944 21.6746 20.42 21.0469 22.3806 20.9675L22.8627 20.948L22.5688 20.5654C21.7244 19.4664 20.0664 19.1078 18.7485 19.6639L18.7485 19.6639C18.0724 19.9491 17.5537 20.447 17.2157 20.9958C16.8795 21.5415 16.7111 22.1561 16.7604 22.6865Z" fill="white" stroke="white" stroke-width="0.5"/>
<path d="M18.9156 14.2424L18.9156 14.2424C19.9663 13.9226 21.0452 13.8244 22.1396 14.1947L18.9156 14.2424ZM18.9156 14.2424L18.9142 14.2428M18.9156 14.2424L18.9142 14.2428M18.9142 14.2428C18.876 14.2547 18.8367 14.2689 18.804 14.2807C18.7949 14.2839 18.7864 14.287 18.7785 14.2898C18.7383 14.3041 18.7072 14.3142 18.6785 14.3208L18.6785 14.3208M18.9142 14.2428L18.6785 14.3208M18.6785 14.3208L18.6778 14.321M18.6785 14.3208L18.6778 14.321M18.6778 14.321C18.5371 14.354 18.4756 14.292 18.4576 14.233L18.4576 14.233M18.6778 14.321L18.4576 14.233M18.4576 14.233L18.4573 14.2319M18.4576 14.233L18.4573 14.2319M18.4573 14.2319C18.443 14.1858 18.4494 14.1527 18.4629 14.1279C18.4774 14.1014 18.5112 14.0645 18.5844 14.0372L18.497 13.803L18.5841 14.0374C18.5968 14.0327 18.6094 14.028 18.6219 14.0233C19.314 13.7659 19.8812 13.555 20.694 13.5878C21.2883 13.6119 21.53 13.6919 21.8207 13.7882C21.9457 13.8296 22.0797 13.874 22.2546 13.9182C22.3603 13.9452 22.4015 13.9903 22.4165 14.0174C22.4309 14.0434 22.4396 14.0853 22.4149 14.1486M18.4573 14.2319L22.4149 14.1486M22.4149 14.1486C22.3962 14.1957 22.3742 14.2097 22.352 14.217C22.3205 14.2273 22.2536 14.2331 22.1397 14.1947L22.4149 14.1486Z" fill="white" stroke="white" stroke-width="0.5"/>
<path d="M16.3595 16.8139L16.3595 16.8138C16.3626 16.6902 16.3356 16.6261 16.3149 16.598C16.3002 16.5781 16.2773 16.5594 16.22 16.5569L16.2308 16.3072M16.3595 16.8139L13.7991 18.3661C13.7992 18.3661 13.7992 18.3661 13.7992 18.3661C14.9216 18.6455 15.9383 17.9348 16.0553 16.7854C16.0665 16.6757 16.0992 16.6174 16.1242 16.5908C16.1442 16.5695 16.1707 16.5548 16.2202 16.557L16.2308 16.3072M16.3595 16.8139C16.3443 17.4323 15.9882 17.9981 15.4679 18.3601M16.3595 16.8139L15.4679 18.3601M16.2308 16.3072C16.4787 16.3179 16.6173 16.505 16.6094 16.82C16.5744 18.2449 14.9759 19.357 13.6253 18.8963L16.2308 16.3072ZM15.4679 18.3601C14.9476 18.7221 14.2925 18.8598 13.706 18.6597M15.4679 18.3601L13.706 18.6597M13.706 18.6597C13.6109 18.6271 13.5625 18.5822 13.5416 18.5494M13.706 18.6597L13.5416 18.5494M13.5416 18.5494C13.5235 18.5211 13.5173 18.49 13.5304 18.4477L13.5416 18.5494Z" fill="white" stroke="white" stroke-width="0.5"/>
<path d="M19.0683 15.7998L19.0681 15.7997C19.0043 15.7291 18.9865 15.6692 18.9854 15.6323C18.9844 15.5996 18.995 15.5679 19.0299 15.5363L19.0299 15.5362C19.0633 15.506 19.0943 15.4983 19.1255 15.5013C19.1609 15.5047 19.2169 15.5249 19.2822 15.5883L19.2827 15.5887C19.7027 15.9943 20.2199 16.1818 20.7298 16.1368C21.2395 16.0918 21.7174 15.8168 22.0635 15.3445L22.0636 15.3445C22.1168 15.2718 22.1675 15.2438 22.2004 15.2352C22.2292 15.2276 22.2622 15.2295 22.3037 15.2563L22.3043 15.2566C22.3433 15.2815 22.3609 15.3123 22.3665 15.3444C22.3724 15.3783 22.3675 15.4329 22.3241 15.5017C21.9233 16.1349 21.3296 16.4112 20.6071 16.4465C19.9677 16.4291 19.4627 16.2366 19.0683 15.7998Z" fill="white" stroke="white" stroke-width="0.5"/>
<path d="M11.005 13.208C11.0312 13.2071 11.0568 13.2051 11.0764 13.2036L11.0817 13.2032C11.1042 13.2015 11.1195 13.2005 11.1332 13.2003L11.1353 13.2002C11.2811 13.1966 11.3292 13.2464 11.3404 13.2642C11.3504 13.28 11.3755 13.3407 11.3069 13.4681L11.3069 13.4681C10.7619 14.4795 9.92997 15.1002 8.80692 15.3407L8.8065 15.3408C8.64919 15.3747 8.49757 15.3894 8.33098 15.4055C8.25091 15.4133 8.16737 15.4214 8.07809 15.4321C5.77429 15.3944 4.08093 13.3241 4.51707 11.07L4.51708 11.07C4.53598 10.9722 4.5533 10.9107 4.575 10.8735C4.58258 10.8605 4.5872 10.8569 4.5872 10.8569C4.58721 10.8569 4.58709 10.857 4.58687 10.8571C4.58644 10.8574 4.58607 10.8576 4.58578 10.8578C4.58705 10.8574 4.59012 10.8567 4.59588 10.8563L4.59588 10.8563L4.59643 10.8563C4.63352 10.8539 4.68845 10.8609 4.74738 10.8811C4.80667 10.9015 4.85145 10.9288 4.87563 10.9513L5.04586 10.7683L4.87535 10.9511C6.60313 12.5627 8.65168 13.3076 11.005 13.208ZM11.005 13.208C11.0045 13.208 11.004 13.208 11.0035 13.208L10.9956 12.9581L11.0062 13.2079C11.0058 13.2079 11.0054 13.2079 11.005 13.208ZM11.1291 12.9503V12.9503V12.9503ZM5.18166 11.6463L4.80751 11.3591L4.77988 11.83C4.69849 13.2167 5.76872 14.5678 7.16326 14.9813C7.86457 15.1893 8.58374 15.1295 9.18926 14.9213C9.79006 14.7148 10.3057 14.3526 10.5821 13.9244L10.8203 13.5552L10.3813 13.539C8.44627 13.4674 6.72387 12.8299 5.18166 11.6463Z" fill="white" stroke="white" stroke-width="0.5"/>
<path d="M8.63153 6.1882L8.63159 6.18802C8.64547 6.14118 8.63839 6.10751 8.62266 6.08086C8.60531 6.05146 8.565 6.01086 8.48117 5.98135L8.63153 6.1882ZM8.63153 6.1882C8.61784 6.23453 8.59239 6.25941 8.56253 6.27279M8.63153 6.1882L8.56253 6.27279M4.80426 5.88592L4.80411 5.88596C4.72008 5.90691 4.68795 5.94339 4.67523 5.96683C4.66164 5.99187 4.65268 6.03445 4.6732 6.0972C4.68779 6.14103 4.70821 6.15676 4.73294 6.16607C4.76663 6.17875 4.83375 6.18664 4.94144 6.15631L4.80426 5.88592ZM4.80426 5.88592C4.82758 5.88009 4.85627 5.87265 4.88971 5.86397C5.1782 5.78911 5.82041 5.62248 6.42073 5.60843M4.80426 5.88592L6.42073 5.60843M8.56253 6.27279C8.53019 6.28729 8.47196 6.29671 8.38679 6.26831M8.56253 6.27279L8.38679 6.26831M8.38679 6.26831C7.54567 5.98794 6.66788 5.82291 5.74806 5.96632L8.38679 6.26831ZM6.42073 5.60843C7.12696 5.61643 7.81203 5.74591 8.48115 5.98134L6.42073 5.60843ZM5.74791 5.96634C5.46916 6.00965 5.19668 6.0843 4.94153 6.15629L5.74791 5.96634Z" fill="white" stroke="white" stroke-width="0.5"/>
<path d="M14.1524 9.55457L14.1523 9.55437C13.648 8.69096 12.9112 8.09606 12.0584 7.657C11.9345 7.59278 11.8082 7.53845 11.6889 7.4883C11.6704 7.48053 11.6522 7.47287 11.6341 7.4653C11.533 7.42296 11.4379 7.38312 11.3446 7.33907C11.2883 7.31207 11.2666 7.28236 11.2593 7.2664C11.2539 7.25446 11.2487 7.23485 11.2642 7.19811L11.2643 7.1977C11.2897 7.137 11.3023 7.1093 11.3208 7.08739C11.33 7.0765 11.3442 7.06244 11.3799 7.05319C11.3951 7.05381 11.4079 7.055 11.4181 7.05644C11.4328 7.05852 11.4396 7.06072 11.4401 7.06088C11.4401 7.06089 11.4401 7.06089 11.4401 7.06089L11.5265 6.8263L11.4394 7.06063C12.654 7.51221 13.6628 8.19583 14.3465 9.29008L14.3465 9.29009L14.3474 9.29162C14.3712 9.32908 14.391 9.36491 14.4061 9.39901C14.4584 9.51825 14.4177 9.58704 14.3617 9.61996L14.4885 9.83544L14.362 9.61982C14.2888 9.66275 14.209 9.65179 14.1524 9.55457Z" fill="white" stroke="white" stroke-width="0.5"/>
<path d="M7.40659 8.70825L7.40673 8.70866C7.43152 8.78474 7.46169 8.81589 7.47972 8.82796C7.4936 8.83725 7.52285 8.85097 7.58968 8.83832L7.63615 9.08397L7.58937 8.83838C7.64062 8.82862 7.66144 8.81029 7.67379 8.79412C7.68697 8.77686 7.70262 8.74513 7.71121 8.68997C7.70782 8.67596 7.70471 8.6628 7.70173 8.6502C7.69137 8.60633 7.6826 8.56918 7.66899 8.52666C7.4777 7.94138 6.99307 7.50029 6.40961 7.29212C5.82595 7.08387 5.16973 7.11812 4.64841 7.44996L4.64823 7.45007C4.5507 7.51204 4.5126 7.56983 4.50031 7.60505C4.49066 7.63271 4.48955 7.66475 4.5179 7.71148L4.51791 7.7115C4.55057 7.76533 4.57808 7.7746 4.59802 7.77736C4.6283 7.78156 4.69485 7.77563 4.8042 7.71059L4.80475 7.71026L4.80475 7.71026C5.16436 7.49761 5.55899 7.41212 5.98047 7.49436L7.40659 8.70825ZM7.40659 8.70825C7.17637 8.00594 6.66048 7.62685 5.98055 7.49438L7.40659 8.70825Z" fill="white" stroke="white" stroke-width="0.5"/>
<path d="M10.4507 9.59168L10.4507 9.59172C10.3631 9.64982 10.3341 9.70209 10.3259 9.73111C10.3193 9.75442 10.3186 9.7872 10.3514 9.83648L10.1431 9.97482L10.3511 9.83615C10.3773 9.87545 10.4026 9.88761 10.431 9.89187C10.4678 9.89738 10.5327 9.89146 10.6279 9.84619L10.7352 10.072L10.6275 9.84636C10.6356 9.8425 10.6438 9.83857 10.6521 9.83459C10.829 9.74992 11.0599 9.63945 11.303 9.61147L10.4507 9.59168ZM10.4507 9.59168C10.7817 9.37185 11.1393 9.27903 11.3821 9.28482L11.3854 9.28485M10.4507 9.59168L11.3854 9.28485M11.3854 9.28485C12.4509 9.29607 13.2685 9.89526 13.5077 10.6667L13.5079 10.6671M11.3854 9.28485L13.5079 10.6671M13.5079 10.6671C13.5376 10.7625 13.5413 10.8221 13.5341 10.8583M13.5079 10.6671L13.5341 10.8583M13.3524 10.9598C13.3803 10.9719 13.4149 10.9745 13.4614 10.9457L13.3524 10.9598ZM13.3524 10.9598C13.3192 10.9455 13.2693 10.9047 13.2336 10.8136M13.3524 10.9598L13.2336 10.8136M13.2336 10.8136L13.0008 10.9048M13.2336 10.8136L13.0008 10.9048M13.0008 10.9048L13.2337 10.8137C13.0722 10.4008 12.8175 10.0711 12.4811 9.85861M13.0008 10.9048C13.1108 11.1855 13.3665 11.2983 13.593 11.1583L12.4811 9.85861M13.0008 10.9048C12.7101 10.1612 12.1059 9.77055 11.3316 9.85983L13.0008 10.9048ZM12.4811 9.85861C12.1436 9.64551 11.7406 9.56103 11.3031 9.61146L12.4811 9.85861ZM13.5341 10.8583C13.5296 10.8811 13.5189 10.9101 13.4615 10.9457L13.5341 10.8583Z" fill="white" stroke="white" stroke-width="0.5"/>
</svg>
