<svg width="30" height="30" viewBox="0 0 30 30" fill="none" xmlns="http://www.w3.org/2000/svg">
<path d="M17.466 5.07787C13.9376 3.80722 10.5278 2.60872 6.99938 1.33878C6.67797 1.26736 6.49155 1.19949 5.89229 1.30305C5.29303 1.40661 4.25166 2.1873 3.87454 3.24154C3.16886 5.21287 2.44818 7.1792 1.72821 9.14553C0.925396 11.3411 1.13467 13.4353 2.34604 15.4309C3.03601 16.5673 3.72812 17.7015 4.42023 18.8358C5.38446 20.415 6.99581 21.0078 8.75573 20.4214C10.0578 19.9879 11.3599 19.5543 12.6555 19.1029C14.7326 18.3787 16.1961 16.9937 16.976 14.9374C17.7689 12.8461 18.5138 10.7369 19.2738 8.63413C19.3459 8.43485 19.3988 8.22201 19.4173 8.0113C19.5402 6.63923 18.8231 5.56714 17.466 5.07787ZM18.616 7.94559C18.5974 8.12058 18.546 8.29557 18.486 8.46199C17.7581 10.4719 17.0289 12.4818 16.2932 14.4888C15.5882 16.4102 14.2676 17.708 12.3263 18.3665C11.0356 18.8051 9.74496 19.2443 8.45217 19.6764C7.11652 20.1236 5.88587 19.6793 5.14733 18.4801C4.41808 17.2951 3.6974 16.1052 2.9753 14.9167C2.36818 13.9182 2.0582 12.8346 2.05606 11.874C2.05677 10.9169 2.19962 10.1948 2.45532 9.49337C3.18671 7.48419 3.91596 5.47428 4.65021 3.46652C5.08019 2.28873 6.11157 1.80661 7.28866 2.23373C10.5885 3.43153 13.8876 4.63075 17.1867 5.83212C18.2181 6.20782 18.7202 6.94993 18.616 7.94559Z" fill="#fff"/>
<path d="M26.807 23.3618C26.0828 24.571 25.3478 25.7738 24.6078 26.9738C24.0271 27.9144 23.0508 28.4851 22.1058 28.6944C21.6937 28.7708 21.5344 28.7658 21.1894 28.6944C19.6059 28.178 18.0174 27.6787 16.4418 27.1423C14.3262 26.4224 12.8791 24.9953 12.0806 22.9125C11.8449 22.2968 11.6256 21.6747 11.4013 21.0548C11.2856 20.7355 11.3535 20.5226 11.5949 20.4262C11.8349 20.3312 12.0334 20.4512 12.1513 20.7698C12.3956 21.4297 12.6227 22.0969 12.8827 22.7511C13.5969 24.5496 14.8833 25.7588 16.7089 26.3902C17.9982 26.8359 19.2924 27.2652 20.5845 27.7016C21.9808 28.173 23.2043 27.7309 23.9707 26.4774C24.6685 25.3353 25.3649 24.1925 26.0599 23.049C27.1334 21.2819 27.3213 19.427 26.6106 17.4807C25.8863 15.4972 25.1692 13.5109 24.445 11.5267C24.0043 10.3196 22.9758 9.84674 21.7644 10.2882C21.253 10.4739 20.743 10.6631 20.2316 10.8481C19.9231 10.9595 19.6966 10.8803 19.6088 10.6381C19.5231 10.4017 19.6509 10.2074 19.9695 10.0903C20.4802 9.90246 20.9901 9.71461 21.5008 9.52747C23.1043 8.94107 24.6085 9.6339 25.1942 11.2352C25.8128 12.9259 26.4356 14.6151 27.0349 16.3129C27.2948 17.0507 27.5691 17.7942 27.7184 18.5577C28.0512 20.2662 27.6984 21.8747 26.807 23.3618Z" fill="#fff"/>
<path d="M24.4536 21.8306C23.6986 20.5699 22.5887 19.8885 21.118 19.8507C18.6696 19.7871 16.7639 22.0606 17.2353 24.4597C17.2739 24.6554 17.3246 24.8461 17.5475 24.919C17.761 24.9883 17.9017 24.869 18.0417 24.7347C19.5831 23.2519 21.4494 22.5841 23.5629 22.5277C23.705 22.5363 23.8486 22.5377 23.99 22.5555C24.195 22.582 24.3878 22.577 24.5128 22.3813C24.6371 22.1856 24.5578 22.0048 24.4536 21.8306ZM18.0096 23.6633C17.9232 22.7334 18.6017 21.4192 19.8459 20.8942C21.0716 20.3771 22.6036 20.7192 23.3708 21.7177C21.3587 21.7991 19.5831 22.4448 18.0096 23.6633Z" fill="#fff"/>
<path d="M23.6471 15.2401C23.5607 15.4587 23.3493 15.5294 23.0593 15.4316C22.0293 15.083 21.0065 15.1716 19.988 15.4816C19.903 15.508 19.8209 15.5444 19.7345 15.5644C19.4909 15.6216 19.2816 15.5144 19.2181 15.3059C19.1523 15.0937 19.2573 14.8923 19.4966 14.803C20.2037 14.5402 20.8201 14.3023 21.7036 14.338C22.5872 14.3738 22.7843 14.5416 23.3157 14.6759C23.6293 14.7559 23.7428 14.9959 23.6471 15.2401Z" fill="#fff"/>
<path d="M17.6089 17.82C17.5739 19.2449 15.9754 20.357 14.6248 19.8963C14.3533 19.8035 14.2219 19.5964 14.2912 19.3735C14.3619 19.1464 14.5748 19.0528 14.859 19.1235C15.8347 19.3664 16.7046 18.7571 16.8061 17.76C16.8361 17.4665 16.9953 17.2972 17.2303 17.3072C17.4782 17.3179 17.6167 17.505 17.6089 17.82Z" fill="#fff"/>
<path d="M23.535 16.6353C23.0807 17.3532 22.4007 17.6603 21.6093 17.6967C20.9137 17.6796 20.3344 17.4681 19.8823 16.9675C19.6923 16.7575 19.6866 16.5096 19.8616 16.3511C20.0294 16.1989 20.2623 16.2211 20.4558 16.4089C21.2015 17.1289 22.2457 17.0367 22.8614 16.1968C23.02 15.9804 23.2443 15.9211 23.4385 16.0461C23.6307 16.1689 23.6778 16.4089 23.535 16.6353Z" fill="#fff"/>
<path d="M12.1291 13.9503C12.0848 13.9511 12.0406 13.9568 11.9956 13.9582C9.70782 14.0553 7.72434 13.3339 6.04586 11.7683C5.93372 11.664 5.73373 11.5969 5.58016 11.6069C5.36446 11.6205 5.30875 11.8304 5.27161 12.0226C4.80449 14.4367 6.62511 16.6523 9.09142 16.6823C9.34712 16.6509 9.60782 16.6395 9.85924 16.5852C11.0535 16.3295 11.947 15.6631 12.527 14.5867C12.7198 14.2289 12.5327 13.9403 12.1291 13.9503ZM8.23432 15.7417C6.93367 15.356 5.95586 14.0982 6.02943 12.8447C7.61149 14.0589 9.38355 14.7153 11.372 14.7889C10.8963 15.526 9.52283 16.1238 8.23432 15.7417Z" fill="#fff"/>
<path d="M9.8714 7.25907C9.80426 7.4862 9.5757 7.59477 9.30785 7.50549C8.48718 7.23193 7.65222 7.07836 6.78655 7.21336C6.52442 7.25407 6.26514 7.32478 6.00944 7.39692C5.72803 7.4762 5.51018 7.39978 5.4359 7.1755C5.35876 6.94051 5.46304 6.71338 5.74374 6.64338C5.9571 6.59005 6.71369 6.37411 7.41937 6.3584C8.15648 6.36626 8.87002 6.50125 9.56427 6.74552C9.81997 6.83552 9.93639 7.03979 9.8714 7.25907Z" fill="#fff"/>
<path d="M15.4882 10.8354C15.2947 10.949 15.0618 10.8962 14.9361 10.6804C14.4619 9.86835 13.7662 9.30266 12.9434 8.87911C12.7148 8.76054 12.4698 8.67483 12.237 8.56484C12.0413 8.47127 11.9527 8.29342 12.0334 8.10129C12.0783 7.99388 12.1377 7.84059 12.3562 7.80273C12.4277 7.80273 12.4855 7.8113 12.5262 7.8263C13.7769 8.29128 14.8376 9.0041 15.5582 10.1576C15.5868 10.2026 15.6132 10.2498 15.6347 10.2983C15.7297 10.5147 15.6704 10.7283 15.4882 10.8354Z" fill="#fff"/>
<path d="M8.96432 9.67327C8.94646 9.89255 8.84575 10.044 8.63576 10.084C8.39792 10.129 8.2415 10.0097 8.16864 9.78612C7.9708 9.18258 7.53725 8.8576 6.93227 8.73975C6.57729 8.67046 6.24445 8.74046 5.93161 8.92545C5.65662 9.08901 5.43378 9.05544 5.30378 8.84117C5.17593 8.63047 5.25521 8.40333 5.51377 8.23906C6.70657 7.47981 8.46863 8.10835 8.90646 9.44971C8.93075 9.52542 8.94646 9.60399 8.96432 9.67327Z" fill="#fff"/>
<path d="M14.5926 12.1583C14.3662 12.2983 14.1105 12.1855 14.0005 11.9048C13.7098 11.1612 13.1055 10.7705 12.3313 10.8598C12.1263 10.8834 11.9248 10.9813 11.7349 11.072C11.487 11.1898 11.2699 11.1655 11.1427 10.9748C11.007 10.7705 11.0677 10.5456 11.312 10.3834C11.6799 10.1391 12.087 10.0277 12.3877 10.0349C13.5412 10.047 14.469 10.6991 14.7461 11.5926C14.8154 11.8148 14.8154 12.0205 14.5926 12.1583Z" fill="#fff"/>
</svg>
