<svg width="30" height="20" viewBox="0 0 30 20" fill="none" xmlns="http://www.w3.org/2000/svg">
<path fill-rule="evenodd" clip-rule="evenodd" d="M0.465667 4.07912C0.465614 4.07912 0.465573 4.07913 0.524227 4.54508L0.465667 4.07912C0.302291 4.09968 0.161613 4.20464 0.0952359 4.35558C0.028857 4.50652 0.0464205 4.68132 0.1415 4.81606C2.98018 8.83869 4.31938 10.6159 5.00386 11.446C5.34656 11.8616 5.53814 12.0559 5.682 12.1786C5.73298 12.2221 5.78441 12.2613 5.81537 12.2849C5.82431 12.2918 5.83154 12.2973 5.83656 12.3012C5.86096 12.3204 5.8806 12.3371 5.91162 12.3711C6.415 12.9238 7.18982 13.1144 7.87203 13.1739C8.57229 13.235 9.28728 13.1667 9.77981 13.1047L13.2507 12.6678L12.0868 17.0841C12.047 17.235 12.0847 17.3959 12.1873 17.5134C12.2899 17.6309 12.4441 17.6896 12.5987 17.6702L15.9658 17.2463C16.0592 17.2346 16.1468 17.195 16.2174 17.1326L22.3123 11.7469C24.0615 11.4028 25.6715 10.9855 26.8411 10.4722C27.4375 10.2104 27.9537 9.90925 28.3149 9.554C28.6827 9.19219 28.926 8.73382 28.8581 8.19441C28.7883 7.63966 28.4083 7.14105 27.9253 6.73199C27.4305 6.31282 26.7655 5.93392 25.9995 5.62818C24.4674 5.01661 22.4632 4.67075 20.4433 4.92501L8.05886 6.48397L8.05461 6.48131C7.96153 6.42284 7.828 6.33889 7.66634 6.23705C7.34298 6.03333 6.90725 5.75813 6.45752 5.47201C5.54266 4.88999 4.61241 4.28941 4.40858 4.13085C4.2552 4.01154 4.05731 3.96465 3.91797 3.93997C3.75826 3.91168 3.57401 3.8971 3.38408 3.8905C3.00263 3.87724 2.54922 3.89481 2.12219 3.92263C1.69278 3.9506 1.27914 3.98969 0.973613 4.02168C0.820615 4.03769 0.694182 4.05198 0.605764 4.0623C0.561544 4.06746 0.526803 4.07163 0.502966 4.07453L0.475562 4.07788L0.465667 4.07912ZM7.95175 6.97079L7.70328 7.36889C7.79482 7.42626 7.9033 7.45023 8.0104 7.43675L20.5606 5.85692C22.4101 5.6241 24.255 5.94273 25.6528 6.50068C26.3518 6.7797 26.922 7.11182 27.3202 7.4491C27.7304 7.79649 27.9013 8.09976 27.928 8.3115C27.9475 8.46636 27.8949 8.65052 27.6579 8.88367C27.4142 9.12338 27.0166 9.3696 26.4646 9.61185C25.3653 10.0943 23.7893 10.5038 22.0081 10.8493C21.9262 10.8652 21.8499 10.9028 21.7873 10.9581L15.7053 16.3324L13.1706 16.6515L14.3345 12.2351C14.3743 12.0842 14.3366 11.9234 14.234 11.8059C14.1314 11.6884 13.9772 11.6296 13.8226 11.6491L9.66251 12.1728C9.18768 12.2326 8.55199 12.2905 7.95292 12.2382C7.3358 12.1844 6.86263 12.0221 6.604 11.7382C6.53155 11.6587 6.47185 11.6069 6.41447 11.5619C6.39286 11.545 6.37676 11.5327 6.36273 11.522C6.33819 11.5034 6.31997 11.4895 6.28969 11.4637C6.20694 11.3931 6.05569 11.2472 5.72653 10.848C5.10403 10.0931 3.89183 8.49036 1.36788 4.92615C1.6133 4.90272 1.89533 4.87865 2.18346 4.85988C2.59904 4.83281 3.01656 4.81751 3.35202 4.82917C3.52054 4.83502 3.65623 4.84733 3.75517 4.86486C3.81526 4.8755 3.84495 4.8853 3.85448 4.88843C4.13362 5.09902 5.09085 5.71493 5.9552 6.26482C6.40648 6.55191 6.84344 6.8279 7.16753 7.03207C7.32959 7.13417 7.46347 7.21834 7.55686 7.277L7.70264 7.3685L7.70328 7.36889C7.70331 7.36891 7.70328 7.36889 7.95175 6.97079Z" fill="white"/>
<path fill-rule="evenodd" clip-rule="evenodd" d="M27.4437 6.54382C27.3559 6.29978 27.0873 6.17314 26.8437 6.26096L25.3614 6.79546C25.1178 6.88328 24.9915 7.15231 25.0793 7.39635C25.1671 7.64039 25.4357 7.76703 25.6792 7.67921L27.1616 7.14471C27.4052 7.05689 27.5314 6.78786 27.4437 6.54382Z" fill="white"/>
<path fill-rule="evenodd" clip-rule="evenodd" d="M13.1912 9.13228C12.9343 9.16461 12.7524 9.39943 12.7847 9.65677L12.8666 10.3068C12.899 10.5641 13.1334 10.7465 13.3903 10.7142C13.6472 10.6819 13.8291 10.447 13.7967 10.1897L13.7149 9.53968C13.6825 9.28234 13.448 9.09994 13.1912 9.13228Z" fill="white"/>
<path fill-rule="evenodd" clip-rule="evenodd" d="M15.073 8.89546C14.8161 8.92779 14.6342 9.16262 14.6666 9.41996L14.7484 10.07C14.7808 10.3273 15.0153 10.5097 15.2721 10.4774C15.529 10.445 15.711 10.2102 15.6786 9.95287L15.5967 9.30287C15.5643 9.04553 15.3299 8.86313 15.073 8.89546Z" fill="white"/>
<path fill-rule="evenodd" clip-rule="evenodd" d="M16.9539 8.65864C16.697 8.69098 16.515 8.9258 16.5474 9.18314L16.6293 9.83314C16.6617 10.0905 16.8961 10.2729 17.153 10.2406C17.4099 10.2082 17.5918 9.97339 17.5594 9.71606L17.4776 9.06605C17.4452 8.80871 17.2107 8.62631 16.9539 8.65864Z" fill="white"/>
<path fill-rule="evenodd" clip-rule="evenodd" d="M18.8357 8.42183C18.5788 8.45416 18.3969 8.68898 18.4293 8.94632L18.5111 9.59633C18.5435 9.85367 18.778 10.0361 19.0348 10.0037C19.2917 9.9714 19.4737 9.73658 19.4413 9.47924L19.3594 8.82923C19.327 8.5719 19.0926 8.38949 18.8357 8.42183Z" fill="white"/>
<path fill-rule="evenodd" clip-rule="evenodd" d="M20.7166 8.18501C20.4597 8.21734 20.2777 8.45217 20.3101 8.70951L20.392 9.35951C20.4244 9.61685 20.6588 9.79925 20.9157 9.76692C21.1725 9.73459 21.3545 9.49976 21.3221 9.24242L21.2403 8.59242C21.2079 8.33508 20.9734 8.15268 20.7166 8.18501Z" fill="white"/>
<path fill-rule="evenodd" clip-rule="evenodd" d="M14.6518 3.415C14.5637 3.36464 14.4617 3.34426 14.361 3.35693L11.4938 3.71786C11.3265 3.73892 11.1835 3.84838 11.1191 4.00451C11.0548 4.16065 11.0792 4.33939 11.183 4.4726L12.7073 6.42967C12.8666 6.63419 13.1612 6.6707 13.3653 6.5112C13.5693 6.3517 13.6056 6.05661 13.4463 5.85208L12.4296 4.54674L14.3233 4.30835L17.2725 5.99375C17.4975 6.12229 17.7837 6.04387 17.9119 5.8186C18.0401 5.59333 17.9617 5.30651 17.7368 5.17797L14.6518 3.415Z" fill="white"/>
</svg>
