<svg width="24" height="27" viewBox="0 0 24 27" fill="none" xmlns="http://www.w3.org/2000/svg">
<path d="M23.0128 11.8916L17.6809 8.81465C17.5338 8.72959 17.3514 8.72959 17.2054 8.81465L13.6881 10.8441C13.513 10.945 13.4534 11.1673 13.5543 11.3423C13.6553 11.5161 13.8791 11.5769 14.053 11.476L17.0777 9.72972V22.6026L12.3649 25.3357V20.6595C12.3649 20.4578 12.2019 20.2949 12 20.2949C11.7981 20.2949 11.6351 20.4578 11.6351 20.6595V25.3369L6.9223 22.6111V9.72972L9.90568 11.4517C10.0796 11.5526 10.3034 11.493 10.4043 11.318C10.5053 11.1442 10.4457 10.9206 10.2705 10.8198L6.79581 8.81465C6.64986 8.72959 6.46743 8.72959 6.32027 8.81465L0.988378 11.888C0.841216 11.9718 0.75 12.1298 0.75 12.2987V25.7768C0.75 25.9457 0.841216 26.1037 0.988378 26.1888C1.13554 26.2738 1.31797 26.2726 1.46392 26.1888L6.55743 23.2419L11.7616 26.252C11.7714 26.2568 11.7799 26.2617 11.7896 26.2653C11.8492 26.3079 11.9209 26.3322 12 26.3322C12.0791 26.3322 12.1508 26.3067 12.2104 26.2641C12.2201 26.2593 12.2299 26.2556 12.2384 26.2508L17.4426 23.2333L22.5361 26.1863C22.6832 26.2714 22.8657 26.2714 23.0116 26.1876C23.1588 26.1025 23.25 25.9457 23.25 25.7756V12.3024C23.25 12.1334 23.1588 11.9755 23.0128 11.8916ZM1.47973 12.4458L6.19257 9.72972V22.6111L1.47973 25.3369V12.4458ZM22.5203 25.3357L17.8074 22.6026V9.72972L22.5203 12.4494V25.3357Z" fill="white"/>
<path d="M11.635 8.48405V17.3139C11.635 17.5156 11.798 17.6785 11.9999 17.6785C12.2018 17.6785 12.3647 17.5156 12.3647 17.3139V8.48405C14.4019 8.29934 16.0037 6.58344 16.0037 4.50053C16.0037 2.29489 14.2073 0.5 11.9999 0.5C9.79244 0.5 7.99609 2.29489 7.99609 4.50053C7.99609 6.58344 9.59785 8.29812 11.635 8.48405ZM11.9999 1.22914C13.8047 1.22914 15.2739 2.69713 15.2739 4.50053C15.2739 6.30393 13.8047 7.77193 11.9999 7.77193C10.195 7.77193 8.72582 6.30393 8.72582 4.50053C8.72582 2.69713 10.195 1.22914 11.9999 1.22914Z" fill="white"/>
<path d="M12.8087 6.8496C12.8525 6.8496 12.8962 6.8411 12.94 6.8253C13.5044 6.60777 13.9921 6.20432 14.3131 5.68906C14.4202 5.51771 14.3679 5.2929 14.1964 5.18717C14.0249 5.08023 13.7999 5.1337 13.6941 5.30383C13.4569 5.68541 13.0957 5.98436 12.6773 6.14477C12.4888 6.21768 12.3952 6.42792 12.4681 6.61628C12.5241 6.76089 12.6627 6.8496 12.8087 6.8496Z" fill="white"/>
<path d="M10.6563 17.0271C10.835 16.9347 10.9056 16.7147 10.8119 16.5361C10.7195 16.3575 10.4982 16.287 10.3206 16.3806C9.7368 16.6831 9.40234 17.1376 9.40234 17.6286C9.40234 18.5376 10.5432 19.2497 12.0002 19.2497C13.4572 19.2497 14.598 18.5376 14.598 17.6286C14.598 17.1048 14.2259 16.6309 13.5752 16.3295C13.3927 16.2444 13.175 16.3234 13.0899 16.5057C13.0048 16.688 13.0838 16.9055 13.2663 16.9906C13.6421 17.1656 13.8671 17.4038 13.8671 17.6286C13.8671 18.0491 13.068 18.5206 11.999 18.5206C10.9299 18.5206 10.1309 18.0503 10.1309 17.6286C10.1321 17.422 10.3279 17.1972 10.6563 17.0271Z" fill="white"/>
</svg>
