<svg width="28" height="17" viewBox="0 0 28 17" fill="none" xmlns="http://www.w3.org/2000/svg">
<path d="M27.6242 5.20196C27.5668 3.97739 27.3911 0.25 24.5963 0.25H2.71465C1.35616 0.25 0.25 1.37822 0.25 2.76379V7.73161V11.4858V12.175C0.25 13.2141 1.07873 14.0606 2.09879 14.0606H2.58669C2.76368 15.4352 3.91768 16.5 5.31324 16.5C6.7076 16.5 7.86279 15.4352 8.03978 14.0606H19.8608C20.0378 15.4352 21.1918 16.5 22.5873 16.5C23.9817 16.5 25.1369 15.4352 25.3139 14.0606H26.4475C26.8003 14.0606 27.1304 13.9191 27.3767 13.663C27.623 13.4069 27.7558 13.0678 27.7498 12.7092L27.6242 5.20196ZM26.9067 5.22514L26.9629 8.63175C26.2526 8.56222 24.7147 8.40976 23.837 8.31584C22.0827 8.12801 20.9036 7.58891 20.9036 6.97418V0.981817H24.5963C26.0361 0.981817 26.7704 2.33324 26.9067 5.22514ZM20.186 5.76302H15.9192V0.981817H20.186V5.76302ZM5.95182 5.76302V0.981817H10.2186V5.76302H5.95182ZM10.9361 0.981817H15.2029V5.76302H10.9361V0.981817ZM2.71465 0.981817H5.23431V5.76302H0.967511V2.76379C0.967511 1.78072 1.75079 0.981817 2.71465 0.981817ZM0.967511 8.46343H1.30474C1.44346 8.46343 1.55587 8.57808 1.55587 8.71956V10.4967C1.55587 10.6381 1.44346 10.7528 1.30474 10.7528H0.967511V8.46343ZM5.31204 15.7657C4.19153 15.7657 3.27909 14.8351 3.27909 13.6923C3.27909 12.5494 4.19153 11.6188 5.31204 11.6188C6.43255 11.6188 7.34499 12.5494 7.34499 13.6923C7.34499 14.8351 6.43375 15.7657 5.31204 15.7657ZM22.5861 15.7657C21.4656 15.7657 20.5532 14.8351 20.5532 13.6923C20.5532 12.5494 21.4656 11.6188 22.5861 11.6188C23.7066 11.6188 24.6191 12.5494 24.6191 13.6923C24.6191 14.8351 23.7066 15.7657 22.5861 15.7657ZM26.8625 13.1483C26.7513 13.2641 26.603 13.3276 26.4451 13.3276H25.3115C25.1357 11.953 23.9805 10.8882 22.5849 10.8882C21.1894 10.8882 20.0342 11.953 19.8584 13.3276H8.03858C7.86279 11.953 6.7076 10.8882 5.31204 10.8882C3.91648 10.8882 2.76129 11.953 2.5855 13.3276H2.09759C1.47455 13.3276 0.966315 12.8104 0.966315 12.1737V11.4846H1.30355C1.83809 11.4846 2.27219 11.0419 2.27219 10.4967V8.71956C2.27219 8.17436 1.83809 7.73161 1.30355 7.73161H0.967511V6.49484H20.186V6.97418C20.186 8.49758 22.6866 8.92935 23.7628 9.044C24.6789 9.14158 26.3064 9.30258 26.9749 9.36844L26.9857 10.0564H26.5623C25.9536 10.0564 25.4586 10.5613 25.4586 11.1821C25.4586 11.803 25.9536 12.3079 26.5623 12.3079H27.0227L27.0299 12.7202C27.0323 12.8812 26.9737 13.0336 26.8625 13.1483ZM26.9498 10.7882V11.5773H26.5635C26.3507 11.5773 26.1773 11.4005 26.1773 11.1833C26.1773 10.9662 26.3507 10.7894 26.5635 10.7894H26.9498V10.7882Z" fill="white"/>
<path d="M22.75 12.75C22.0609 12.75 21.5 13.3109 21.5 14C21.5 14.6891 22.0609 15.25 22.75 15.25C23.4391 15.25 24 14.6891 24 14C24 13.3109 23.4391 12.75 22.75 12.75ZM22.75 14.3125C22.5781 14.3125 22.4375 14.1719 22.4375 14C22.4375 13.8281 22.5781 13.6875 22.75 13.6875C22.9219 13.6875 23.0625 13.8281 23.0625 14C23.0625 14.1734 22.9219 14.3125 22.75 14.3125Z" fill="white"/>
<path d="M5.25 12.75C4.56094 12.75 4 13.3109 4 14C4 14.6891 4.56094 15.25 5.25 15.25C5.93906 15.25 6.5 14.6891 6.5 14C6.5 13.3109 5.93906 12.75 5.25 12.75ZM5.25 14.3125C5.07812 14.3125 4.9375 14.1719 4.9375 14C4.9375 13.8281 5.07812 13.6875 5.25 13.6875C5.42188 13.6875 5.5625 13.8281 5.5625 14C5.5625 14.1734 5.42188 14.3125 5.25 14.3125Z" fill="white"/>
<path d="M18.6785 9H9.32262C9.1441 9 9 9.27917 9 9.625C9 9.97083 9.1441 10.25 9.32262 10.25H18.6774C18.8559 10.25 19 9.97083 19 9.625C19.0011 9.27917 18.8559 9 18.6785 9Z" fill="white"/>
</svg>
