<svg width="19" height="27" viewBox="0 0 19 27" fill="none" xmlns="http://www.w3.org/2000/svg">
<path d="M9.69244 3.38966C9.60803 3.21838 9.43675 3.11194 9.24712 3.11194C9.05626 3.11194 8.88621 3.21838 8.80179 3.38966L7.09022 6.85562L3.2658 7.41105C3.07739 7.43796 2.92324 7.56765 2.86452 7.74994C2.80579 7.931 2.8535 8.12675 2.99053 8.26011L5.75791 10.9578L5.1046 14.7675C5.07279 14.9559 5.14865 15.1419 5.3028 15.2532C5.38966 15.3168 5.49243 15.3486 5.59397 15.3486C5.6735 15.3486 5.75179 15.329 5.8252 15.2911L9.24589 13.4927L12.6666 15.2911C12.8354 15.3804 13.0361 15.3658 13.1902 15.2532C13.3444 15.1406 13.4202 14.9547 13.3884 14.7675L12.7351 10.9578L15.5025 8.26011C15.6395 8.12675 15.6872 7.93223 15.6285 7.74994C15.5698 7.56887 15.4156 7.43919 15.2272 7.41105L11.4028 6.85562L9.69244 3.38966ZM12.1344 10.5185C12.0169 10.6323 11.9631 10.7975 11.9913 10.959L12.5846 14.4176L9.47834 12.7843C9.33398 12.7085 9.16025 12.7085 9.01589 12.7843L5.90962 14.4176L6.50298 10.959C6.53112 10.7975 6.47728 10.6335 6.35984 10.5185L3.84692 8.06925L7.32022 7.5652C7.48172 7.54196 7.62241 7.44041 7.69459 7.2936L9.24834 4.14573L10.8009 7.29238C10.873 7.43919 11.0137 7.54073 11.1752 7.56398L14.6485 8.06803L12.1344 10.5185Z" fill="white"/>
<path d="M15.5686 2.81697C13.8166 1.1054 11.5019 0.193946 9.05016 0.252671C4.28125 0.365226 0.417683 4.1872 0.254968 8.95366C0.252521 9.04664 0.250074 9.1384 0.250074 9.22893C0.243957 10.6518 0.617101 12.104 1.33036 13.4289L7.95397 25.7415L7.96131 25.7549C8.23781 26.2211 8.72595 26.5 9.26793 26.5C9.80991 26.5 10.2981 26.2211 10.5745 25.7549L17.2092 13.4289C17.8674 12.2055 18.2381 10.8695 18.2809 9.56659C18.2846 9.4675 18.2858 9.36718 18.2858 9.26808C18.2858 6.81878 17.3205 4.52731 15.5686 2.81697ZM17.5468 9.54335C17.5077 10.7337 17.1676 11.9572 16.562 13.0815L9.93836 25.3879C9.79522 25.6253 9.54442 25.7672 9.2667 25.7672C8.98899 25.7672 8.73819 25.6253 8.59505 25.3879L1.97755 13.0815C1.32179 11.8642 0.979234 10.5331 0.984128 9.2326C0.984128 9.14818 0.986575 9.06377 0.989022 8.97935C1.13828 4.60072 4.68621 1.08949 9.06729 0.986725C11.3196 0.935341 13.4459 1.76972 15.0547 3.34182C16.6647 4.91391 17.5505 7.0182 17.5505 9.26808C17.5517 9.35984 17.5493 9.45159 17.5468 9.54335Z" fill="white"/>
</svg>
