<svg width="179" height="32" viewBox="0 0 179 32" fill="none" xmlns="http://www.w3.org/2000/svg">
<path d="M52.7182 2.5C45.8563 2.5 40.2949 8.06442 40.2949 14.9233C40.2949 21.7852 45.8563 27.3496 52.7182 27.3496C59.5801 27.3496 65.1445 21.7852 65.1445 14.9233C65.1445 8.06442 59.5801 2.5 52.7182 2.5ZM48.9846 11.1298C49.3202 10.956 50.1443 10.911 50.408 10.911C52.6403 10.911 53.9677 11.4115 53.9677 11.4115C52.1429 12.1995 50.6507 13.2842 50.6507 13.2842C50.6507 13.2842 49.9675 13.0415 48.9037 12.2505C48.4603 11.9209 48.4513 11.4055 48.9846 11.1298ZM57.9201 14.306C57.9201 14.306 57.4227 17.2875 55.472 19.7356C55.472 19.7356 54.9056 20.5686 54.2404 20.4757C53.5602 20.3798 53.6172 18.531 54.2284 16.6013C54.2284 16.6013 50.9203 18.1685 49.563 18.6659C48.2026 19.1633 47.5344 19.1813 46.5605 18.4921C45.5837 17.8059 43.5401 15.9661 44.424 15.3877C44.5709 15.2919 45.5447 15.3248 47.4115 16.2357C47.4115 16.2357 49.0835 14.6207 52.91 12.5441C56.7544 10.4616 60.0176 9.35589 60.9854 10.1919C62.1031 11.1538 59.1067 13.4071 57.9201 14.306Z" fill="white"/>
<path d="M15.0534 23.2114C15.0534 23.6069 14.9065 23.9305 14.6099 24.1792C14.3132 24.4309 13.9687 24.5568 13.5731 24.5568C12.8899 24.5568 12.4435 24.2242 12.2277 23.562L11.2329 20.3857H4.82348L3.82865 23.562C3.61291 24.2272 3.16344 24.5568 2.48324 24.5568C2.10569 24.5568 1.7641 24.4309 1.46145 24.1792C1.15282 23.9275 1 23.6069 1 23.2114C1 23.0676 1.02697 22.9147 1.0809 22.7529L6.46553 5.97878C6.53745 5.7091 6.71124 5.47537 6.98991 5.27761C7.26858 5.07984 7.55025 4.98096 7.83791 4.98096H8.2694C8.53908 4.98096 8.81176 5.07984 9.09043 5.27761C9.3691 5.47537 9.55188 5.7091 9.64177 5.97878L14.9725 22.7529C15.0264 22.9147 15.0534 23.0676 15.0534 23.2114ZM10.3699 17.638L8.05365 10.4225L5.71043 17.638H10.3699Z" fill="white"/>
<path d="M38.3982 12.565C38.4102 12.8467 38.2963 13.1463 38.1375 13.3621C37.9458 13.6227 37.5982 13.8685 37.1697 13.8685H34.6137V18.8995C34.6137 19.9363 34.6796 20.5895 34.8085 20.8532C34.9373 21.1169 35.2519 21.6472 35.6235 21.7222C36.3037 21.86 37.0978 21.857 37.2536 21.857C37.6491 21.857 38.1106 21.9139 38.3383 22.1237C38.62 22.3844 38.7548 22.726 38.7218 23.1065C38.6709 23.6788 38.3383 24.0534 37.8888 24.1673C37.1907 24.3471 36.5584 24.377 35.8243 24.3351C34.38 24.2512 33.0016 23.535 32.4173 22.4773C31.9678 21.6592 31.7461 20.4666 31.7461 18.8995V8.02237C31.7461 7.56691 31.8839 7.21632 32.1596 6.97061C32.4353 6.72491 32.7529 6.60205 33.1155 6.60205C33.493 6.60205 33.9245 6.72491 34.2032 6.97061C34.4789 7.21632 34.6167 7.56691 34.6167 8.02237V11.3544H37.1727C37.6042 11.3544 37.8469 11.4653 38.0986 11.738C38.3443 12.0107 38.3892 12.3522 38.3982 12.565Z" fill="white"/>
<path d="M27.893 23.0257C27.893 23.4273 27.7552 23.7689 27.4765 24.0475C27.2008 24.3262 26.8682 24.467 26.4817 24.467C26.0951 24.467 25.7685 24.3262 25.5018 24.0475C25.2321 23.7689 25.1003 23.4273 25.1003 23.0257V15.8882C25.1003 15.1181 24.9535 14.5188 24.6598 14.0903C24.3662 13.6618 23.8987 13.1404 23.1256 12.9906C22.3466 12.8378 20.9982 13.0146 20.4468 13.9405V23.0257C20.4468 23.4273 20.309 23.7689 20.0303 24.0475C19.7546 24.3262 19.422 24.467 19.0355 24.467C18.6489 24.467 18.3193 24.3262 18.0407 24.0475C17.765 23.7689 17.6242 23.4273 17.6242 23.0257V14.5518C17.6242 14.1143 17.6182 13.8027 17.5522 13.5779C17.4743 13.3112 17.4833 13.1225 17.2256 12.9157C16.908 12.661 16.8391 12.2655 16.902 11.9209C16.9589 11.6152 17.2196 11.1118 17.8699 10.944C18.2684 10.8422 18.7508 10.962 19.0115 11.1718C19.2123 11.3306 19.407 11.5913 19.5898 11.9598C20.5127 10.962 22.0649 10.5185 23.7129 10.7223C26.4757 11.0639 27.89 12.3404 27.89 15.5736V23.0257H27.893Z" fill="white"/>
<path d="M71.0811 24.6978C71.0811 27.7212 69.2832 29.6719 66.4276 29.6719C66.062 29.6719 65.7264 29.4861 65.5196 29.2614C65.3129 29.0367 65.208 28.761 65.208 28.4284C65.208 27.7482 65.6185 27.4755 66.3766 27.2837C67.0898 27.1039 67.7939 26.7773 68.1445 25.5907C68.3453 24.9075 68.3183 23.9816 68.3183 23.0857V11.9329C68.3183 11.5524 68.4502 11.2227 68.7169 10.9501C68.9835 10.6774 69.3072 10.5396 69.6877 10.5396C70.1012 10.5396 70.4368 10.6774 70.6945 10.9501C70.9522 11.2227 71.0811 11.5524 71.0811 11.9329V24.6978V24.6978Z" fill="white"/>
<path d="M84.0857 17.1467C83.5493 18.2554 82.0571 18.7707 80.4899 18.9505C79.3093 19.0854 77.3287 18.7917 77.3287 18.7917L77.3017 20.1042C77.3287 21.1649 77.907 21.959 79.5221 22.0609C80.5349 22.1238 80.8885 22.0309 81.7215 21.6024C82.3417 21.2968 82.7822 21.1619 83.3186 21.2488C83.777 21.3267 84.1905 21.8331 84.2744 22.1717C84.4872 22.8489 83.792 23.3703 83.1987 23.6909C82.0601 24.2962 80.8974 24.467 79.4471 24.467C77.7122 24.467 76.2709 23.8258 75.4409 22.8579C74.5689 21.8391 74.3682 20.4907 74.3682 18.7797V16.2927C74.3682 14.6356 74.4551 13.521 75.3001 12.4332C76.1421 11.3455 77.7392 10.5425 79.4232 10.5425C81.1401 10.5425 82.8032 10.965 83.6152 12.0257C84.4243 13.0835 84.9756 15.3068 84.0857 17.1467ZM80.6817 16.6373C81.4338 16.4065 81.6316 15.6934 81.6885 15.2739C81.9312 13.464 80.8795 12.7209 79.3573 12.9067C78.0298 13.0685 77.2897 13.7427 77.3047 15.3877L77.2927 16.5863C77.2897 16.5863 79.8996 16.877 80.6817 16.6373Z" fill="white"/>
<path d="M108.015 17.1467C107.479 18.2554 105.987 18.7707 104.42 18.9505C103.239 19.0854 101.258 18.7917 101.258 18.7917L101.231 20.1042C101.258 21.1649 101.837 21.959 103.452 22.0608C104.465 22.1238 104.818 22.0309 105.651 21.6024C106.271 21.2968 106.712 21.1619 107.248 21.2488C107.707 21.3267 108.12 21.8331 108.204 22.1717C108.417 22.8489 107.722 23.3703 107.128 23.6909C105.99 24.2962 104.827 24.467 103.377 24.467C101.642 24.467 100.201 23.8258 99.3706 22.8579C98.4986 21.8391 98.2979 20.4907 98.2979 18.7797V16.2927C98.2979 14.6356 98.3848 13.521 99.2298 12.4332C100.072 11.3455 101.669 10.5425 103.353 10.5425C105.07 10.5425 106.733 10.965 107.545 12.0257C108.351 13.0835 108.902 15.3068 108.015 17.1467ZM104.608 16.6373C105.36 16.4065 105.558 15.6934 105.615 15.2739C105.858 13.464 104.806 12.7209 103.284 12.9067C101.957 13.0685 101.216 13.7427 101.231 15.3877L101.219 16.5863C101.219 16.5863 103.826 16.877 104.608 16.6373Z" fill="white"/>
<path d="M96.0414 20.0802C96.1463 21.5425 95.577 22.75 94.6421 23.4662C93.7072 24.1823 92.5206 24.4191 91.0793 24.4191C89.6739 24.4191 89.0237 24.2932 88.1278 24.0115C87.4985 23.8138 87.0221 23.5051 86.8992 23.1845C86.7764 22.8609 86.7614 22.5403 86.8633 22.2167C86.9801 21.8601 87.1869 21.6084 87.4835 21.4646C87.7802 21.3207 88.0798 21.3117 88.3765 21.4376C89.2694 21.7792 89.8747 22.0608 90.8006 22.0608C91.5437 22.0608 91.8973 22.0549 92.3318 21.8032C92.8112 21.5245 93.2247 21.0331 93.2068 20.4667C93.1948 20.1102 92.997 19.6996 92.7813 19.4899C92.3318 19.0494 91.4718 18.7737 90.3721 18.4681C89.4312 18.2074 88.5922 17.707 88.0379 17.1676C87.3577 16.5084 86.9292 15.8642 86.9292 14.6806C86.9292 13.3741 87.2528 12.4033 88.0948 11.6691C88.9398 10.935 90.0455 10.5425 91.337 10.5425C92.6434 10.5425 93.4105 10.6234 94.3215 11.0009C94.6511 11.1268 95.1275 11.4174 95.3642 11.756C95.571 12.0497 95.568 12.4572 95.4661 12.7988C95.3672 13.1224 95.1724 13.3621 94.8818 13.524C94.5911 13.6858 94.0668 13.6168 93.7701 13.491C92.8772 13.1524 92.2119 12.9396 91.4508 12.9396C90.8066 12.9396 89.8897 13.3322 89.7638 14.0094C89.6829 14.4469 89.8178 15.0432 90.3092 15.3877C90.495 15.5196 91.2741 15.99 92.5386 16.3916C93.5933 16.7272 94.1926 17.0508 94.8159 17.5961C95.4361 18.1415 95.9515 18.8127 96.0414 20.0802Z" fill="white"/>
<path d="M159.044 11.0794C159.044 11.2242 159.013 11.3742 158.946 11.519L155.16 22.5862C155.026 23.0051 154.591 23.6412 153.583 23.6412C152.538 23.6412 152.14 22.7672 152.078 22.5396L148.344 11.519C148.292 11.3742 148.271 11.2242 148.271 11.0794C148.271 10.7225 148.411 10.4329 148.69 10.2105C148.97 9.98817 149.28 9.87956 149.621 9.87956C150.226 9.87956 150.635 10.164 150.847 10.7329L153.64 20.2279L156.474 10.7329C156.686 10.164 157.089 9.87439 157.673 9.87439C158.035 9.87439 158.351 9.98299 158.63 10.2054C158.904 10.4277 159.044 10.7225 159.044 11.0794Z" fill="white"/>
<path d="M134.159 11.8862C133.838 12.5171 132.902 12.5275 132.162 12.5275C130.776 12.5275 130.016 12.9567 130.032 13.929V22.3535C130.032 22.7569 129.887 23.093 129.602 23.3723C129.313 23.6516 128.971 23.7912 128.568 23.7912C128.165 23.7912 127.823 23.6516 127.534 23.3723C127.244 23.093 127.104 22.7517 127.104 22.3535V13.9135C127.104 13.4791 127.115 13.0498 127.063 12.8223C127.001 12.5585 126.913 12.3361 126.68 12.0879C126.432 11.8241 126.474 11.2294 126.634 10.9243C126.779 10.6502 127.104 10.3968 127.658 10.3658C128.144 10.3399 128.847 10.6812 129.07 11.1363C129.897 10.6295 130.466 10.3347 131.888 10.0399C132.483 9.91582 133.367 9.98306 133.828 10.2468C134.288 10.5002 134.567 11.0846 134.159 11.8862Z" fill="white"/>
<path d="M147.423 22.2551C147.522 23.1135 146.865 23.5842 145.918 23.5842C145.344 23.5842 144.413 23.4187 143.736 22.405C142.826 23.2325 141.605 23.641 140.054 23.641C138.57 23.641 137.613 23.2842 136.863 22.5653C136.113 21.8465 135.725 21.0035 135.736 19.4676C135.746 18.2574 136.067 17.2852 136.889 16.5922C137.706 15.8992 138.968 15.5475 140.555 15.5113C141.579 15.4906 143.162 15.8423 143.162 15.8423V14.9993C143.162 14.0374 142.986 13.4168 142.665 12.9669C142.345 12.5221 141.755 12.2118 140.881 12.2118C140.002 12.2118 139.444 12.3515 138.699 12.7704C137.799 13.1686 137.328 12.8221 137.142 12.5997C136.889 12.3049 136.496 11.312 137.365 10.6914C138.29 10.0811 139.263 9.87427 140.917 9.87427C142.707 9.87427 144.083 10.3397 144.817 11.2085C145.551 12.0774 145.97 13.4168 145.97 15.3096V19.933C145.97 20.3881 145.949 20.7708 145.991 21.0035C146.032 21.2156 146.182 21.469 146.487 21.5155C147.01 21.5983 147.382 21.8879 147.423 22.2551ZM143.152 19.0694V17.8695C143.152 17.8695 141.228 17.6782 140.659 17.7196C139.061 17.8437 138.647 18.4177 138.502 19.3021C138.301 20.5226 139.221 21.2828 140.478 21.3552C140.974 21.3811 141.724 21.3138 142.345 21.0035C143.105 20.6312 143.152 19.8606 143.152 19.0694Z" fill="white"/>
<path d="M177 22.4417C177 23.1658 176.628 23.6364 175.655 23.6364C175.071 23.6364 174.58 23.3881 174.14 22.9951C173.416 22.3849 173.452 21.5367 173.416 20.2697V5.75819C173.416 5.34964 173.561 5.00831 173.856 4.72387C174.145 4.43944 174.487 4.2998 174.874 4.2998C175.283 4.2998 175.629 4.43944 175.919 4.72387C176.209 5.00831 176.359 5.34964 176.359 5.75819V19.9335C176.359 20.3731 176.312 21.2419 176.405 21.366C176.633 21.6608 177 21.9815 177 22.4417Z" fill="white"/>
<path d="M124.358 11.8659C124.369 12.1451 124.26 12.4399 124.1 12.6519C123.908 12.9105 123.567 13.1536 123.143 13.1536H120.619V18.1183C120.619 19.1423 120.681 19.7836 120.811 20.0473C120.94 20.3059 121.245 20.8334 121.612 20.9058C122.284 21.0403 123.071 21.0403 123.221 21.0403C123.614 21.0403 124.063 21.0971 124.291 21.304C124.57 21.5574 124.7 21.8987 124.669 22.2711C124.617 22.84 124.291 23.2072 123.846 23.3209C123.158 23.4968 122.533 23.5278 121.809 23.4864C120.381 23.4037 119.021 22.6952 118.447 21.6557C118.002 20.8489 117.785 19.6698 117.785 18.1235V7.38209C117.785 6.93216 117.92 6.58567 118.194 6.3426C118.468 6.09954 118.778 5.98059 119.135 5.98059C119.507 5.98059 119.937 6.09954 120.205 6.3426C120.48 6.58567 120.614 6.93216 120.614 7.38209V10.6712H123.138C123.562 10.6712 123.805 10.7798 124.053 11.0487C124.301 11.3228 124.348 11.659 124.358 11.8659Z" fill="white"/>
<path d="M170.406 16.484C169.874 17.5907 168.379 18.1079 166.812 18.2889C165.633 18.4234 163.652 18.1286 163.652 18.1286L163.626 19.437C163.652 20.4972 164.231 21.2884 165.845 21.3918C166.859 21.4539 167.21 21.3608 168.043 20.9316C168.663 20.6264 169.103 20.492 169.641 20.5799C170.101 20.6575 170.515 21.1643 170.598 21.5004C170.81 22.1779 170.117 22.7003 169.522 23.0209C168.384 23.626 167.226 23.7966 165.773 23.7966C164.04 23.7966 162.597 23.1554 161.77 22.1883C160.901 21.1695 160.699 19.8248 160.699 18.1131V15.6255C160.699 13.9706 160.787 12.8535 161.63 11.7675C162.473 10.6815 164.066 9.87988 165.752 9.87988C167.469 9.87988 169.129 10.304 169.941 11.3641C170.748 12.4243 171.296 14.6429 170.406 16.484ZM167.009 15.972C167.758 15.7445 167.96 15.0308 168.017 14.6067C168.26 12.7967 167.21 12.0571 165.685 12.2433C164.356 12.4036 163.621 13.0759 163.632 14.7205L163.621 15.9203C163.616 15.9203 166.222 16.2099 167.009 15.972Z" fill="white"/>
<path d="M112.619 23.5018C113.513 23.5018 114.237 22.7771 114.237 21.8831C114.237 20.9891 113.513 20.2644 112.619 20.2644C111.725 20.2644 111 20.9891 111 21.8831C111 22.7771 111.725 23.5018 112.619 23.5018Z" fill="white"/>
<path d="M69.6519 8.2711C70.5125 8.2711 71.2101 7.57349 71.2101 6.71294C71.2101 5.8524 70.5125 5.15479 69.6519 5.15479C68.7914 5.15479 68.0938 5.8524 68.0938 6.71294C68.0938 7.57349 68.7914 8.2711 69.6519 8.2711Z" fill="white"/>
</svg>
