<svg width="24" height="24" viewBox="0 0 24 24" fill="none" xmlns="http://www.w3.org/2000/svg">
<path d="M10.3002 7.09756C10.4854 7.05243 10.6753 7.02808 10.8661 7.02498C11.0567 7.02587 11.2466 7.04835 11.432 7.09198V4.91449L13.4693 2.91008L12.677 2.08933L11.4716 3.27858V2H10.3002V3.27858L9.09479 2.08933L8.26855 2.91008L10.3002 4.91449V7.09756Z" fill="#1A4A8C"/>
<path d="M14.1376 10.3746V9.20215H13.6113C13.6944 9.58304 13.6944 9.977 13.6113 10.3579L14.1376 10.3746Z" fill="#1A4A8C"/>
<path d="M11.4717 17.5605V16.2763L12.3545 17.1473C12.3545 17.0245 12.3545 16.9016 12.3545 16.7788C12.3556 16.4026 12.4012 16.0279 12.4903 15.6621L11.4886 14.6739V12.4629C11.3026 12.5021 11.113 12.5227 10.9227 12.5243C10.7325 12.5223 10.5429 12.5017 10.3568 12.4629V14.646L8.3252 16.6504L9.15143 17.4655L10.3002 16.2763V17.5605H11.4717Z" fill="#1A4A8C"/>
<path d="M3.09621 11.5472L3.92244 12.3624L5.95972 10.3747H8.16678C8.07616 9.99466 8.07616 9.59904 8.16678 9.21898H5.95972L3.92244 7.20898L3.09621 8.01298L4.3016 9.20223H3V10.3747H4.3016L3.09621 11.5472Z" fill="#1A4A8C"/>
<path d="M4.0752 6.77886H6.95003L8.52327 8.31427C8.73531 7.98532 9.01483 7.70384 9.34384 7.48794L7.77626 5.95811V3.11621H6.61048V4.7912L5.68805 3.88671L4.86181 4.70745L5.77293 5.61195H4.0752V6.77886Z" fill="#1A4A8C"/>
<path d="M13.2319 8.3031L14.1374 7.42094V5.11504C14.1139 4.74904 14.1981 4.38415 14.3798 4.06423C14.5615 3.74431 14.833 3.48297 15.1617 3.31163V3.11621H13.9902V5.95811L12.417 7.48794C12.748 7.70323 13.0295 7.98476 13.2432 8.31427" fill="#1A4A8C"/>
<path d="M12.4053 12.0776L13.8597 13.5013C13.9502 13.4287 14.0408 13.3506 14.137 13.2836V12.139L13.2315 11.2568C13.019 11.5857 12.7372 11.8656 12.4053 12.0776Z" fill="#1A4A8C"/>
<path d="M6.97249 12.7924H4.09766V13.9481H5.79539L4.87296 14.8415L5.69919 15.6622L6.62162 14.7577V16.4327H7.79306V13.5964L9.36064 12.061C9.03017 11.8473 8.74872 11.5677 8.53441 11.2402L6.97249 12.7924Z" fill="#1A4A8C"/>
<path d="M13.0105 9.77733C13.0116 10.1921 12.8882 10.5978 12.6558 10.9434C12.4234 11.289 12.0925 11.5589 11.7048 11.7192C11.3171 11.8794 10.8899 11.9227 10.4773 11.8437C10.0646 11.7647 9.68493 11.5668 9.38611 11.2752C9.0873 10.9835 8.88276 10.611 8.79829 10.2047C8.71382 9.79843 8.75321 9.37658 8.91149 8.99238C9.06977 8.60817 9.33985 8.27883 9.68765 8.0459C10.0354 7.81298 10.4454 7.6869 10.8657 7.68359C11.4286 7.68359 11.9683 7.90418 12.3663 8.29684C12.7643 8.68949 12.9879 9.22204 12.9879 9.77733" fill="#1A4A8C"/>
<path d="M16.3722 6.23812V10.4703H17.5889V6.23254C17.5971 6.0259 17.5664 5.81956 17.4984 5.62395C17.4662 5.51651 17.3973 5.42335 17.3035 5.36026C17.2096 5.29718 17.0965 5.26804 16.9834 5.27779C16.8708 5.26665 16.7578 5.29455 16.6638 5.35671C16.5698 5.41887 16.5007 5.51139 16.4684 5.61837C16.3971 5.81714 16.3645 6.0274 16.3722 6.23812Z" fill="#1A4A8C"/>
<path d="M16.9833 4.95406C17.6963 4.95406 17.9227 5.51239 17.9227 6.23822V14.8979C18.3579 15.0133 18.7447 15.262 19.0274 15.6081C19.3102 15.9543 19.4742 16.3801 19.4959 16.8242C19.5015 16.8892 19.5015 16.9546 19.4959 17.0196C19.4959 17.6726 19.233 18.2989 18.765 18.7607C18.2969 19.2224 17.6621 19.4818 17.0002 19.4818C16.3384 19.4818 15.7036 19.2224 15.2355 18.7607C14.7675 18.2989 14.5046 17.6726 14.5046 17.0196C14.499 16.9546 14.499 16.8892 14.5046 16.8242C14.5166 16.6982 14.5374 16.5732 14.5668 16.4501C14.6567 16.0728 14.8529 15.7282 15.1327 15.4563C15.2529 15.3406 15.388 15.2411 15.5345 15.1603C15.6845 15.0659 15.8462 14.9909 16.0156 14.937V6.23822C16.0128 6.02864 16.0414 5.81982 16.1004 5.61847C16.1237 5.53788 16.154 5.45943 16.191 5.38397C16.2686 5.2368 16.3914 5.1176 16.5419 5.04339C16.6727 4.98256 16.816 4.95201 16.9606 4.95406M14.8724 5.51239V13.7254C14.5289 13.9437 14.2199 14.2108 13.9556 14.5183C13.5358 15.0252 13.2517 15.628 13.1294 16.2714C13.0705 16.5356 13.0383 16.8049 13.0332 17.0754C13.0332 17.0754 13.0332 17.1089 13.0332 17.1313C13.0436 18.161 13.4656 19.1451 14.2074 19.8696C14.9492 20.5941 15.9508 21.0005 16.9946 21.0005C17.2666 21.0008 17.5378 20.9728 17.8038 20.9167C18.5958 20.7628 19.3212 20.3739 19.8829 19.802C20.4446 19.2302 20.8159 18.5027 20.947 17.7169C21.0781 16.9311 20.9628 16.1246 20.6165 15.4053C20.2701 14.686 19.7094 14.0882 19.0092 13.6919V5.49564C19.0081 5.03315 18.8479 4.58474 18.5549 4.2237C18.262 3.86265 17.8535 3.61033 17.3964 3.50798C17.2462 3.47224 17.0924 3.45351 16.938 3.45215C16.5697 3.45294 16.2082 3.55063 15.8909 3.73513C15.5736 3.91964 15.3119 4.18429 15.1327 4.50181C14.959 4.80479 14.8692 5.14756 14.8724 5.49564" fill="#1A4A8C"/>
<path d="M18.2233 18.5938C18.4548 18.3399 18.6314 18.0421 18.7424 17.7186C18.8533 17.3951 18.8962 17.0527 18.8685 16.7122C18.8289 16.26 17.946 16.26 17.9913 16.7122C18.0195 16.9887 17.9871 17.2679 17.8963 17.5309C17.8055 17.7939 17.6584 18.0345 17.465 18.2365C17.1368 18.6106 17.9008 18.9623 18.2233 18.5938Z" fill="#1A4A8C"/>
</svg>
