<svg width="24" height="24" viewBox="0 0 24 24" fill="none" xmlns="http://www.w3.org/2000/svg">
<path d="M5.42168 8.00601C4.87488 7.95073 4.32808 8.28236 4.16404 8.77981C4.05468 9.05617 4 9.3878 4 9.71943C4.10936 11.3223 4.2734 12.9252 4.43744 14.5281C4.49212 15.1913 5.03892 15.7441 5.74975 15.6888H8.81182C9.08522 15.6888 9.1399 15.7441 9.19458 16.0204C9.30394 16.96 9.46798 17.9549 9.63202 18.8946C9.6867 19.5026 10.1788 20 10.7803 20C10.835 20 10.9443 20 10.999 20C11.6552 19.8895 12.0926 19.2262 11.9833 18.5629V18.5077C11.7645 17.1259 11.6005 15.7441 11.3818 14.3623C11.3271 13.8096 10.8897 13.3121 10.3429 13.2568C10.0695 13.2568 9.85074 13.2568 9.57734 13.2568H7.28079C7.00739 13.2568 6.84335 13.1463 6.89803 12.7594H9.19458C9.6867 12.8147 10.1241 12.4278 10.1788 11.9303V11.875C10.1788 11.3776 9.79606 10.9354 9.24926 10.9354H9.19458H7.77291C7.60887 10.9354 7.39015 10.8249 7.33547 10.6591C7.00739 9.99579 6.73399 9.33253 6.40591 8.66927C6.29655 8.28236 5.91379 8.00601 5.42168 8.00601Z" fill="#1A4A8C"/>
<path d="M5.02551 4C3.89518 4 3.00281 4.87671 3.00281 5.91781V5.9726C2.94332 7.0137 3.83569 7.94521 4.96601 8H5.02551C6.15584 7.94521 6.98871 7.12329 6.98871 6.08219C7.10769 5.0411 6.27482 4.05479 5.02551 4C5.085 4 5.085 4 5.02551 4Z" fill="#1A4A8C"/>
<path d="M21.3207 10.8926C21.3717 11.3004 21.0659 11.6572 20.6581 11.7081C20.5562 11.7081 20.4542 11.6572 20.3523 11.6062C19.9445 11.3513 19.4348 11.1984 18.9252 11.1984C18.3645 11.1984 17.8548 11.4023 17.3961 11.7081C16.7844 12.1159 16.1218 12.3198 15.4083 12.3198C14.8476 12.3198 14.2869 12.1669 13.7772 11.912C13.5224 11.7591 13.2675 11.5552 13.1146 11.3004C12.9617 11.0455 13.0637 10.6887 13.2675 10.5358C13.3695 10.4339 13.5224 10.3829 13.6753 10.3829C13.7772 10.3829 13.9301 10.4339 14.0321 10.4849C14.4398 10.7397 14.9495 10.8926 15.4083 10.8926C15.9689 10.8926 16.5296 10.6887 16.9883 10.3829C17.549 10.0261 18.2625 9.82227 18.9252 9.82227C19.6387 9.82227 20.3013 10.0261 20.913 10.3829C21.0659 10.5358 21.2188 10.7397 21.3207 10.8926Z" fill="#1A4A8C"/>
<path d="M21.321 15.1233C21.3719 15.531 21.0661 15.8878 20.6584 15.9388C20.5564 15.9388 20.4545 15.8878 20.3526 15.8369C19.4351 15.2252 18.2628 15.2762 17.3963 15.8878C16.7847 16.2956 16.1221 16.4995 15.4085 16.4995C14.8479 16.4995 14.2872 16.3465 13.7265 16.0917C13.4717 15.9388 13.2168 15.7349 13.0639 15.4801C12.911 15.1233 13.0639 14.7665 13.4207 14.6136C13.4717 14.5626 13.5736 14.5626 13.6246 14.5626C13.7265 14.5626 13.8794 14.6136 13.9814 14.6646C14.3891 14.9194 14.8988 15.0723 15.3575 15.1233C15.9182 15.1233 16.4789 14.9194 16.9376 14.6136C17.4983 14.2568 18.2118 14.0529 18.8744 14.002C19.588 14.002 20.2506 14.2058 20.8622 14.5626C21.0661 14.7665 21.219 14.9194 21.321 15.1233Z" fill="#1A4A8C"/>
<path d="M21.3208 7.32521C21.2698 7.63102 21.0149 7.8349 20.7091 7.8349C20.6072 7.8349 20.4543 7.78393 20.3523 7.73296C19.9446 7.47811 19.4349 7.32521 18.9252 7.27424C18.3645 7.27424 17.8548 7.47811 17.3961 7.78393C16.8354 8.14072 16.2238 8.34459 15.5612 8.34459H15.4083C14.6947 8.34459 13.9302 8.14072 13.3186 7.78393C13.0637 7.63102 12.9618 7.32521 13.0127 7.07036C13.0637 6.81551 13.2676 6.61163 13.5224 6.56066H13.6244C13.7773 6.56066 13.9302 6.61163 14.0321 6.6626C14.4399 6.91745 14.8986 7.07036 15.4083 7.07036C15.969 7.07036 16.4787 6.86648 16.9374 6.61163C17.549 6.20388 18.2626 6 18.9762 6C19.6388 6 20.3014 6.20388 20.913 6.56066C21.2188 6.6626 21.3717 6.96842 21.3208 7.32521Z" fill="#1A4A8C"/>
</svg>
