<svg width="30" height="30" viewBox="0 0 30 30" fill="none" xmlns="http://www.w3.org/2000/svg">
<path d="M25.8092 7.35877H20.4051V5.52553C20.4051 3.85663 19.2577 2.5 17.8472 2.5H12.7464C11.336 2.5 10.1886 3.85663 10.1886 5.52553V7.35877H4.78445C3.52494 7.35877 2.49999 8.38371 2.49999 9.64323V23.9655C2.49999 25.2251 3.52494 26.25 4.78445 26.25H25.8077C27.0673 26.25 28.0922 25.2251 28.0922 23.9655V9.64323C28.0937 8.38371 27.0688 7.35877 25.8092 7.35877ZM11.085 5.52553C11.085 4.35117 11.8306 3.39645 12.7464 3.39645H17.8472C18.7631 3.39645 19.5087 4.35117 19.5087 5.52553V7.35877H19.1635V5.59575C19.1635 4.52598 18.3239 3.74906 17.1674 3.74906H13.4262C12.2698 3.74906 11.4301 4.52598 11.4301 5.59575V7.35728H11.085V5.52553ZM18.2671 7.35877H12.3266V5.59575C12.3266 4.93984 12.8794 4.64551 13.4262 4.64551H17.1674C17.7143 4.64551 18.2671 4.93984 18.2671 5.59575V7.35877ZM27.1972 23.9655C27.1972 24.7305 26.5742 25.3535 25.8092 25.3535H4.78445C4.01948 25.3535 3.39644 24.7305 3.39644 23.9655V9.64323C3.39644 8.87826 4.01948 8.25522 4.78445 8.25522H10.6323C10.6338 8.25522 10.6353 8.25522 10.6353 8.25522H10.6383H19.9509C19.9524 8.25522 19.9539 8.25522 19.9539 8.25522H19.9569H25.8048C26.5697 8.25522 27.1928 8.87826 27.1928 9.64323V23.9655H27.1972Z" fill="#1A4A8C"/>
<path d="M20.804 14.1837H17.919V11.3001C17.919 11.191 17.8831 11.0864 17.8203 10.9998C17.8129 10.9893 17.8039 10.9804 17.7949 10.9714C17.7815 10.9565 17.7695 10.94 17.7561 10.9251C17.7546 10.9236 17.7516 10.9221 17.7501 10.9206C17.7486 10.9191 17.7471 10.9176 17.7456 10.9161C17.7397 10.9101 17.7322 10.9072 17.7262 10.9027C17.6351 10.8265 17.5215 10.7831 17.4005 10.7831H13.1961C13.0931 10.7831 12.9915 10.816 12.9063 10.8743C12.8988 10.8788 12.8914 10.8847 12.8839 10.8907C12.8719 10.8997 12.8585 10.9086 12.8465 10.9191C12.8435 10.9221 12.842 10.9251 12.8391 10.9281C12.8361 10.9311 12.8331 10.9326 12.8301 10.9355C12.8226 10.943 12.8181 10.9505 12.8122 10.958C12.7957 10.9759 12.7793 10.9953 12.7659 11.0147C12.7584 11.0267 12.7509 11.0401 12.7449 11.0521C12.7375 11.064 12.73 11.076 12.724 11.0894C12.721 11.0969 12.7195 11.1059 12.7165 11.1133C12.7151 11.1178 12.7106 11.1223 12.7091 11.1283C12.7061 11.1357 12.7061 11.1432 12.7046 11.1492C12.6897 11.197 12.6792 11.2463 12.6792 11.3001V14.1837H9.79262C9.50725 14.1837 9.27567 14.4153 9.27567 14.7006V18.905C9.27567 19.1904 9.50725 19.4234 9.79262 19.4234H12.6792V22.3085C12.6792 22.5939 12.9108 22.8255 13.1961 22.8255H17.402C17.6874 22.8255 17.919 22.5939 17.919 22.3085V19.4234H20.804C21.0894 19.4234 21.321 19.1904 21.321 18.905V14.7006C21.321 14.4153 21.0894 14.1837 20.804 14.1837ZM20.4245 18.527H17.5395C17.2541 18.527 17.0225 18.7586 17.0225 19.0439V21.929H13.5756V19.0439C13.5756 18.7586 13.3426 18.527 13.0572 18.527H10.1721V15.0801H13.0572C13.3426 15.0801 13.5756 14.8486 13.5756 14.5632V11.6796H17.021V12.4311C17.021 12.4356 17.0225 12.4401 17.0225 12.4461V14.5632C17.0225 14.8486 17.2541 15.0801 17.5395 15.0801H20.4245V18.527Z" fill="#1A4A8C"/>
</svg>
