<svg width="30" height="30" viewBox="0 0 30 30" fill="none" xmlns="http://www.w3.org/2000/svg">
<path fill-rule="evenodd" clip-rule="evenodd" d="M21.1331 12.4259L21.1319 12.4243L21.1261 12.4169C21.1208 12.41 21.1123 12.3993 21.101 12.385C21.0782 12.3564 21.0437 12.3136 20.998 12.2585C20.9066 12.1483 20.7707 11.9894 20.5956 11.798C20.2449 11.4146 19.7395 10.9039 19.1215 10.3942C17.8709 9.36295 16.226 8.3917 14.5027 8.3917C10.2151 8.3917 7.71342 9.33592 6.22003 10.2772C5.47161 10.749 4.96409 11.2276 4.60358 11.6074C4.48727 11.73 4.39855 11.8285 4.31543 11.9208C4.25883 11.9836 4.20483 12.0436 4.1465 12.1062C4.08296 12.1745 4.01724 12.2423 3.95218 12.2999C3.89079 12.3542 3.80589 12.4215 3.70226 12.4661C3.4761 12.5635 3.21382 12.4591 3.11643 12.2329C3.02114 12.0116 3.11905 11.7557 3.3352 11.6536C3.33932 11.6505 3.34787 11.6439 3.36127 11.6321C3.39328 11.6037 3.4355 11.5613 3.49374 11.4988C3.53008 11.4597 3.57731 11.4074 3.6315 11.3475C3.72577 11.2431 3.8411 11.1155 3.95685 10.9935C4.35199 10.5773 4.91605 10.0451 5.74454 9.52289C7.40497 8.47628 10.0785 7.5 14.5027 7.5C16.5402 7.5 18.3875 8.63316 19.6888 9.70628C20.3467 10.2488 20.8823 10.7903 21.2535 11.1961C21.4394 11.3993 21.5847 11.5692 21.6843 11.6891C21.734 11.7491 21.7724 11.7967 21.7988 11.8298C21.8119 11.8463 21.8221 11.8593 21.8291 11.8683L21.8374 11.879L21.8398 11.882L21.8408 11.8833C21.8409 11.8835 21.8409 11.8836 21.487 12.1547L21.8409 11.8836C21.9907 12.0791 21.9536 12.3589 21.7581 12.5086C21.5626 12.6583 21.2829 12.6213 21.1331 12.4259Z" fill="#1A4A8C"/>
<path fill-rule="evenodd" clip-rule="evenodd" d="M10.0242 8.03729C9.77796 8.03729 9.57835 8.23691 9.57835 8.48314V11.9496C9.57835 12.1959 9.77796 12.3955 10.0242 12.3955C10.2704 12.3955 10.47 12.1959 10.47 11.9496V8.48314C10.47 8.23691 10.2704 8.03729 10.0242 8.03729Z" fill="#1A4A8C"/>
<path fill-rule="evenodd" clip-rule="evenodd" d="M3.93762 11.6196H3.93613C3.29347 11.6196 2.38957 11.6834 1.64334 12.2028C0.864082 12.7452 0.354918 13.7097 0.353727 15.2886V15.289C0.353727 16.8822 0.915295 17.9129 1.68311 18.5351C2.43227 19.1421 3.32438 19.3172 3.9339 19.3172H4.38644C4.52957 19.3172 4.66399 19.2485 4.74782 19.1325C4.83165 19.0165 4.85468 18.8673 4.80974 18.7314C4.72982 18.4897 4.68516 18.236 4.68516 17.9752C4.68516 16.6587 5.75176 15.5921 7.06822 15.5921C8.38469 15.5921 9.45129 16.6587 9.45129 17.9752C9.45129 18.2385 9.40652 18.492 9.32704 18.7304C9.28172 18.8663 9.30452 19.0158 9.38832 19.1321C9.47211 19.2483 9.60669 19.3172 9.75001 19.3172H19.9845C20.1276 19.3172 20.262 19.2485 20.3459 19.1325C20.4297 19.0165 20.4527 18.8673 20.4078 18.7314C20.3279 18.4897 20.2832 18.236 20.2832 17.9752C20.2832 16.6587 21.3498 15.5921 22.6663 15.5921C23.9827 15.5921 25.0493 16.6587 25.0493 17.9752C25.0493 18.2385 25.0046 18.492 24.9251 18.7304C24.8798 18.8663 24.9026 19.0158 24.9864 19.1321C25.0702 19.2483 25.2047 19.3172 25.3481 19.3172H26.7166C26.8548 19.3172 27.0271 19.3133 27.1999 19.259C27.3887 19.1997 27.5472 19.0917 27.6885 18.9338C27.9391 18.6539 28.1667 18.1747 28.4732 17.4296C29.1869 15.7009 28.3888 14.2984 27.5671 13.8276C27.5529 13.8195 27.5377 13.8107 27.5214 13.8014C26.8039 13.3891 24.0368 11.7988 20.2447 11.7089C16.4787 11.6196 5.19447 11.6196 3.93762 11.6196ZM3.93613 12.5113C5.19243 12.5113 16.4696 12.5114 20.2236 12.6004C23.7882 12.6849 26.3944 14.1823 27.0812 14.5769C27.0964 14.5856 27.1106 14.5937 27.1238 14.6013C27.5549 14.8483 28.1924 15.7732 27.649 17.0895L27.6487 17.09C27.329 17.8672 27.1541 18.1939 27.0241 18.3391C26.9751 18.3938 26.9488 18.4033 26.9328 18.4083C26.9008 18.4183 26.8484 18.4255 26.7168 18.4255H25.9094C25.9301 18.2788 25.941 18.1285 25.941 17.9752C25.941 16.1663 24.4752 14.7004 22.6663 14.7004C20.8573 14.7004 19.3915 16.1663 19.3915 17.9752C19.3915 18.1282 19.4026 18.2785 19.4234 18.4255H10.3114C10.332 18.2788 10.343 18.1285 10.343 17.9752C10.343 16.1663 8.87716 14.7004 7.06822 14.7004C5.25928 14.7004 3.79346 16.1663 3.79346 17.9752C3.79346 18.1274 3.80439 18.2769 3.82497 18.4231C3.36756 18.4029 2.75233 18.2538 2.24449 17.8423C1.71381 17.4123 1.2455 16.6519 1.24543 15.2893C1.24647 13.9122 1.67804 13.2651 2.15273 12.9347C2.66047 12.5813 3.32372 12.5113 3.93613 12.5113Z" fill="#1A4A8C"/>
<path fill-rule="evenodd" clip-rule="evenodd" d="M23.7571 18.5878C23.6005 18.3978 23.3195 18.3707 23.1295 18.5273C23.0032 18.6315 22.8439 18.6931 22.6685 18.6931C22.4931 18.6931 22.3339 18.6315 22.2075 18.5273C22.0175 18.3707 21.7365 18.3978 21.5799 18.5878C21.4233 18.7779 21.4504 19.0588 21.6404 19.2155C21.9197 19.4457 22.2777 19.5848 22.6685 19.5848C23.0593 19.5848 23.4173 19.4457 23.6966 19.2155C23.8867 19.0588 23.9137 18.7779 23.7571 18.5878Z" fill="#1A4A8C"/>
<path fill-rule="evenodd" clip-rule="evenodd" d="M25.4893 18.4485C25.2557 18.3705 25.0032 18.4966 24.9252 18.7301C24.6094 19.6756 23.7165 20.3583 22.6663 20.3583C21.616 20.3583 20.7231 19.6756 20.4074 18.7301C20.3294 18.4966 20.0768 18.3705 19.8432 18.4485C19.6097 18.5265 19.4836 18.7791 19.5616 19.0126C19.9948 20.3098 21.2197 21.25 22.6663 21.25C24.1128 21.25 25.3377 20.3098 25.7709 19.0126C25.8489 18.7791 25.7228 18.5265 25.4893 18.4485Z" fill="#1A4A8C"/>
<path fill-rule="evenodd" clip-rule="evenodd" d="M23.7549 18.5878C23.5983 18.3978 23.3173 18.3707 23.1273 18.5273C23.0009 18.6315 22.8417 18.6931 22.6663 18.6931C22.4909 18.6931 22.3316 18.6315 22.2053 18.5273C22.0152 18.3707 21.7342 18.3978 21.5776 18.5878C21.421 18.7779 21.4481 19.0588 21.6381 19.2155C21.9175 19.4457 22.2754 19.5848 22.6663 19.5848C23.0571 19.5848 23.415 19.4457 23.6944 19.2155C23.8844 19.0588 23.9115 18.7779 23.7549 18.5878Z" fill="#1A4A8C"/>
<path fill-rule="evenodd" clip-rule="evenodd" d="M24.2758 17.9752C24.2758 17.087 23.5545 16.3657 22.6663 16.3657C21.7786 16.3657 21.0568 17.0842 21.0568 17.9752C21.0568 18.4759 21.2861 18.9198 21.6382 19.2137C21.8273 19.3715 22.1084 19.3461 22.2662 19.1571C22.424 18.9681 22.3987 18.6869 22.2097 18.5291C22.049 18.395 21.9485 18.1969 21.9485 17.9752C21.9485 17.5778 22.2699 17.2574 22.6663 17.2574C23.0621 17.2574 23.3841 17.5795 23.3841 17.9752C23.3841 18.1968 23.2842 18.3957 23.1244 18.5279C22.9347 18.6849 22.9081 18.966 23.0651 19.1557C23.2221 19.3454 23.5032 19.3719 23.6929 19.2149C24.0503 18.9191 24.2758 18.4715 24.2758 17.9752Z" fill="#1A4A8C"/>
<path fill-rule="evenodd" clip-rule="evenodd" d="M9.89348 18.4485C9.65992 18.3705 9.40735 18.4966 9.32935 18.7301C9.01357 19.6756 8.12068 20.3583 7.07045 20.3583C6.02022 20.3583 5.12733 19.6756 4.81155 18.7301C4.73354 18.4966 4.48097 18.3705 4.24742 18.4485C4.01387 18.5265 3.88777 18.7791 3.96578 19.0126C4.39902 20.3098 5.62392 21.25 7.07045 21.25C8.51698 21.25 9.74187 20.3098 10.1751 19.0126C10.2531 18.7791 10.127 18.5265 9.89348 18.4485Z" fill="#1A4A8C"/>
<path fill-rule="evenodd" clip-rule="evenodd" d="M8.15685 18.5878C8.00024 18.3978 7.71925 18.3707 7.52923 18.5273C7.40287 18.6315 7.24362 18.6931 7.06822 18.6931C6.8942 18.6931 6.73381 18.631 6.61131 18.5289C6.42215 18.3713 6.14101 18.3968 5.98337 18.586C5.82574 18.7751 5.8513 19.0563 6.04046 19.2139C6.31923 19.4462 6.68047 19.5848 7.06822 19.5848C7.45906 19.5848 7.81699 19.4457 8.09636 19.2155C8.28637 19.0588 8.31346 18.7779 8.15685 18.5878Z" fill="#1A4A8C"/>
<path fill-rule="evenodd" clip-rule="evenodd" d="M7.07047 17.2574C7.46681 17.2574 7.78829 17.5778 7.78829 17.9752C7.78829 18.1969 7.68773 18.395 7.52709 18.5291C7.33806 18.6869 7.31274 18.9681 7.47054 19.1571C7.62834 19.3461 7.9095 19.3715 8.09853 19.2137C8.45061 18.9198 8.67999 18.4759 8.67999 17.9752C8.67999 17.0842 7.95817 16.3657 7.07047 16.3657C6.18221 16.3657 5.46095 17.087 5.46095 17.9752C5.46095 18.4715 5.68648 18.9191 6.04387 19.2149C6.23357 19.3719 6.51462 19.3454 6.67161 19.1557C6.8286 18.966 6.80209 18.6849 6.61239 18.5279C6.45259 18.3957 6.35265 18.1968 6.35265 17.9752C6.35265 17.5795 6.67468 17.2574 7.07047 17.2574Z" fill="#1A4A8C"/>
<path fill-rule="evenodd" clip-rule="evenodd" d="M10.3452 17.9751C10.3452 16.1662 8.87938 14.7004 7.07044 14.7004C5.2615 14.7004 3.79567 16.1662 3.79567 17.9751C3.79567 18.3405 3.8579 18.689 3.96568 19.0123C4.04355 19.2459 4.29604 19.3721 4.52964 19.2943C4.76324 19.2164 4.88949 18.9639 4.81162 18.7303C4.73214 18.4919 4.68737 18.2385 4.68737 17.9751C4.68737 16.6587 5.75397 15.5921 7.07044 15.5921C8.3869 15.5921 9.4535 16.6587 9.4535 17.9751C9.4535 18.2359 9.40884 18.4897 9.32892 18.7313C9.25161 18.9651 9.37845 19.2173 9.61223 19.2946C9.84602 19.3719 10.0982 19.2451 10.1755 19.0113C10.2829 18.6867 10.3452 18.3386 10.3452 17.9751Z" fill="#1A4A8C"/>
<path fill-rule="evenodd" clip-rule="evenodd" d="M8.15685 18.5878C8.00024 18.3978 7.71925 18.3707 7.52923 18.5273C7.40287 18.6315 7.24362 18.6931 7.06822 18.6931C6.89242 18.6931 6.73416 18.6313 6.61131 18.5289C6.42215 18.3713 6.14101 18.3968 5.98337 18.586C5.82574 18.7751 5.8513 19.0563 6.04046 19.2139C6.31887 19.4459 6.6778 19.5848 7.06822 19.5848C7.45906 19.5848 7.81699 19.4457 8.09636 19.2155C8.28637 19.0588 8.31346 18.7779 8.15685 18.5878Z" fill="#1A4A8C"/>
<path fill-rule="evenodd" clip-rule="evenodd" d="M8.67773 17.9752C8.67773 17.087 7.95648 16.3657 7.06822 16.3657C6.18051 16.3657 5.4587 17.0842 5.4587 17.9752C5.4587 18.4759 5.68808 18.9198 6.04016 19.2137C6.22919 19.3715 6.51035 19.3461 6.66815 19.1571C6.82594 18.9681 6.80063 18.6869 6.6116 18.5291C6.45095 18.395 6.3504 18.1969 6.3504 17.9752C6.3504 17.5778 6.67187 17.2574 7.06822 17.2574C7.464 17.2574 7.78604 17.5795 7.78604 17.9752C7.78604 18.1951 7.68511 18.3953 7.52484 18.5291C7.33581 18.6869 7.31049 18.9681 7.46829 19.1571C7.62609 19.3461 7.90725 19.3715 8.09628 19.2137C8.44873 18.9194 8.67773 18.4732 8.67773 17.9752Z" fill="#1A4A8C"/>
<path fill-rule="evenodd" clip-rule="evenodd" d="M2.85941 14.3929C2.85941 14.1466 2.6598 13.947 2.41356 13.947H0.931109C0.684873 13.947 0.485259 14.1466 0.485259 14.3929C0.485259 14.6391 0.684873 14.8387 0.931109 14.8387H2.41356C2.6598 14.8387 2.85941 14.6391 2.85941 14.3929Z" fill="#1A4A8C"/>
<path fill-rule="evenodd" clip-rule="evenodd" d="M2.85941 16.0046C2.85941 15.7583 2.6598 15.5587 2.41356 15.5587H1.07155C0.825315 15.5587 0.625701 15.7583 0.625701 16.0046C0.625701 16.2508 0.825315 16.4504 1.07155 16.4504H2.41356C2.6598 16.4504 2.85941 16.2508 2.85941 16.0046Z" fill="#1A4A8C"/>
<path fill-rule="evenodd" clip-rule="evenodd" d="M12.6168 13.84C12.6168 13.5937 12.4172 13.3941 12.171 13.3941H11.0051C10.7588 13.3941 10.5592 13.5937 10.5592 13.84C10.5592 14.0862 10.7588 14.2858 11.0051 14.2858H12.171C12.4172 14.2858 12.6168 14.0862 12.6168 13.84Z" fill="#1A4A8C"/>
</svg>
