<svg width="30" height="30" viewBox="0 0 30 30" fill="none" xmlns="http://www.w3.org/2000/svg">
<path d="M28.6242 11.202C28.5668 9.97739 28.3911 6.25 25.5963 6.25H3.71465C2.35616 6.25 1.25 7.37822 1.25 8.76379V13.7316V17.4858V18.175C1.25 19.2141 2.07873 20.0606 3.09879 20.0606H3.58669C3.76368 21.4352 4.91768 22.5 6.31324 22.5C7.7076 22.5 8.86279 21.4352 9.03978 20.0606H20.8608C21.0378 21.4352 22.1918 22.5 23.5873 22.5C24.9817 22.5 26.1369 21.4352 26.3139 20.0606H27.4475C27.8003 20.0606 28.1304 19.9191 28.3767 19.663C28.623 19.4069 28.7558 19.0678 28.7498 18.7092L28.6242 11.202ZM27.9067 11.2251L27.9629 14.6317C27.2526 14.5622 25.7147 14.4098 24.837 14.3158C23.0827 14.128 21.9036 13.5889 21.9036 12.9742V6.98182H25.5963C27.0362 6.98182 27.7704 8.33324 27.9067 11.2251ZM21.186 11.763H16.9192V6.98182H21.186V11.763ZM6.95182 11.763V6.98182H11.2186V11.763H6.95182ZM11.9361 6.98182H16.2029V11.763H11.9361V6.98182ZM3.71465 6.98182H6.23431V11.763H1.96751V8.76379C1.96751 7.78072 2.75079 6.98182 3.71465 6.98182ZM1.96751 14.4634H2.30474C2.44346 14.4634 2.55587 14.5781 2.55587 14.7196V16.4967C2.55587 16.6381 2.44346 16.7528 2.30474 16.7528H1.96751V14.4634ZM6.31204 21.7657C5.19153 21.7657 4.27909 20.8351 4.27909 19.6923C4.27909 18.5494 5.19153 17.6188 6.31204 17.6188C7.43255 17.6188 8.34499 18.5494 8.34499 19.6923C8.34499 20.8351 7.43375 21.7657 6.31204 21.7657ZM23.5861 21.7657C22.4656 21.7657 21.5532 20.8351 21.5532 19.6923C21.5532 18.5494 22.4656 17.6188 23.5861 17.6188C24.7066 17.6188 25.6191 18.5494 25.6191 19.6923C25.6191 20.8351 24.7066 21.7657 23.5861 21.7657ZM27.8625 19.1483C27.7513 19.2641 27.603 19.3276 27.4451 19.3276H26.3115C26.1357 17.953 24.9805 16.8882 23.5849 16.8882C22.1894 16.8882 21.0342 17.953 20.8584 19.3276H9.03858C8.86279 17.953 7.7076 16.8882 6.31204 16.8882C4.91648 16.8882 3.76129 17.953 3.5855 19.3276H3.09759C2.47455 19.3276 1.96632 18.8104 1.96632 18.1737V17.4846H2.30355C2.83809 17.4846 3.27219 17.0419 3.27219 16.4967V14.7196C3.27219 14.1744 2.83809 13.7316 2.30355 13.7316H1.96751V12.4948H21.186V12.9742C21.186 14.4976 23.6866 14.9294 24.7628 15.044C25.6789 15.1416 27.3064 15.3026 27.9749 15.3684L27.9857 16.0564H27.5623C26.9536 16.0564 26.4586 16.5613 26.4586 17.1821C26.4586 17.803 26.9536 18.3079 27.5623 18.3079H28.0227L28.0299 18.7202C28.0323 18.8812 27.9737 19.0336 27.8625 19.1483ZM27.9498 16.7882V17.5773H27.5635C27.3507 17.5773 27.1773 17.4005 27.1773 17.1833C27.1773 16.9662 27.3507 16.7894 27.5635 16.7894H27.9498V16.7882Z" fill="#1A4A8C"/>
<path d="M23.75 18.75C23.0609 18.75 22.5 19.3109 22.5 20C22.5 20.6891 23.0609 21.25 23.75 21.25C24.4391 21.25 25 20.6891 25 20C25 19.3109 24.4391 18.75 23.75 18.75ZM23.75 20.3125C23.5781 20.3125 23.4375 20.1719 23.4375 20C23.4375 19.8281 23.5781 19.6875 23.75 19.6875C23.9219 19.6875 24.0625 19.8281 24.0625 20C24.0625 20.1734 23.9219 20.3125 23.75 20.3125Z" fill="#1A4A8C"/>
<path d="M6.25 18.75C5.56094 18.75 5 19.3109 5 20C5 20.6891 5.56094 21.25 6.25 21.25C6.93906 21.25 7.5 20.6891 7.5 20C7.5 19.3109 6.93906 18.75 6.25 18.75ZM6.25 20.3125C6.07812 20.3125 5.9375 20.1719 5.9375 20C5.9375 19.8281 6.07812 19.6875 6.25 19.6875C6.42188 19.6875 6.5625 19.8281 6.5625 20C6.5625 20.1734 6.42188 20.3125 6.25 20.3125Z" fill="#1A4A8C"/>
<path d="M19.6785 15H10.3226C10.1441 15 10 15.2792 10 15.625C10 15.9708 10.1441 16.25 10.3226 16.25H19.6774C19.8559 16.25 20 15.9708 20 15.625C20.0011 15.2792 19.8559 15 19.6785 15Z" fill="#1A4A8C"/>
</svg>
