<svg width="24" height="24" viewBox="0 0 24 24" fill="none" xmlns="http://www.w3.org/2000/svg">
<path d="M19.573 17.5737V7.37421C20.7134 6.95423 21.3136 5.6343 20.8335 4.43435C20.4133 3.29441 19.0928 2.69443 17.8924 3.17441C16.6919 3.65439 16.1517 4.91433 16.6319 6.11427C16.872 6.71424 17.3522 7.19422 17.8924 7.37421V11.694H12.3103V7.37421C13.4507 6.89424 14.0509 5.63429 13.5708 4.49435C13.0906 3.3544 11.8301 2.75443 10.6897 3.23441C9.54928 3.71439 8.94906 4.97433 9.42923 6.11427C9.66932 6.71424 10.1495 7.13422 10.6897 7.37421V11.694H5.10763V7.37421C6.24806 6.95423 6.84828 5.6343 6.3681 4.43435C5.88792 3.23441 4.62746 2.69443 3.42701 3.17441C2.28659 3.59439 1.68637 4.91433 2.16654 6.11427C2.40663 6.71424 2.88681 7.19422 3.42701 7.37421V13.3139H10.6297V17.6337C9.48926 18.1137 8.88903 19.3736 9.36921 20.5136C9.84939 21.6535 11.1099 22.2535 12.2503 21.7735C13.3907 21.2936 13.9909 20.0336 13.5107 18.8937C13.2707 18.2937 12.7905 17.8737 12.2503 17.6337V13.3139H17.8323V17.6337C16.6919 18.0537 16.0917 19.3736 16.5719 20.5736C16.992 21.7135 18.3125 22.3135 19.513 21.8335C20.6534 21.4135 21.2536 20.0936 20.7734 18.8937C20.5934 18.2937 20.1132 17.8137 19.573 17.5737Z" fill="#1A4A8C"/>
</svg>
