<svg width="23" height="11" viewBox="0 0 23 11" fill="none" xmlns="http://www.w3.org/2000/svg">
<path fill-rule="evenodd" clip-rule="evenodd" d="M16.9061 3.94073L16.9051 3.93943L16.9005 3.9335C16.8962 3.928 16.8895 3.91943 16.8804 3.908C16.8622 3.88515 16.8346 3.85087 16.798 3.80681C16.7249 3.71866 16.6162 3.59151 16.4761 3.43839C16.1955 3.13167 15.7912 2.72311 15.2968 2.31539C14.2963 1.49036 12.9804 0.713359 11.6018 0.713359C8.17166 0.713359 6.17035 1.46873 4.97563 2.22179C4.3769 2.59919 3.97089 2.98212 3.68248 3.28595C3.58943 3.38397 3.51845 3.46278 3.45196 3.53661C3.40668 3.58689 3.36348 3.63485 3.31681 3.685C3.26598 3.73961 3.2134 3.79384 3.16136 3.83989C3.11224 3.88335 3.04432 3.93717 2.96142 3.97287C2.78049 4.05077 2.57067 3.96726 2.49276 3.78633C2.41652 3.60929 2.49485 3.40458 2.66777 3.32287C2.67106 3.32043 2.67791 3.31514 2.68863 3.30565C2.71424 3.28299 2.74801 3.24907 2.7946 3.19901C2.82368 3.16777 2.86146 3.12595 2.90481 3.07797C2.98022 2.9945 3.07249 2.89238 3.1651 2.79483C3.4812 2.46182 3.93245 2.03609 4.59525 1.61831C5.92359 0.781025 8.06244 0 11.6018 0C13.2318 0 14.7096 0.906526 15.7507 1.76503C16.277 2.19907 16.7055 2.63227 17.0024 2.95688C17.1511 3.11941 17.2674 3.25532 17.347 3.3513C17.3868 3.39931 17.4176 3.43738 17.4386 3.46384C17.4491 3.47708 17.4573 3.48742 17.4629 3.49466L17.4695 3.50316L17.4714 3.50562L17.4722 3.50667C17.4723 3.50677 17.4724 3.50686 17.1892 3.72374L17.4724 3.50686C17.5921 3.66325 17.5625 3.88713 17.4061 4.00691C17.2497 4.12665 17.0259 4.09702 16.9061 3.94073Z" fill="#1A4A8C"/>
<path fill-rule="evenodd" clip-rule="evenodd" d="M8.0193 0.429688C7.82231 0.429688 7.66262 0.589378 7.66262 0.786367V3.55955C7.66262 3.75654 7.82231 3.91623 8.0193 3.91623C8.21629 3.91623 8.37598 3.75654 8.37598 3.55955V0.786367C8.37598 0.589378 8.21629 0.429688 8.0193 0.429688Z" fill="#1A4A8C"/>
<path fill-rule="evenodd" clip-rule="evenodd" d="M3.1501 3.2959H3.1489C2.63478 3.2959 1.91165 3.34693 1.31468 3.76243C0.691266 4.19632 0.283935 4.96797 0.282982 6.2311V6.23137C0.282982 7.50596 0.732236 8.33052 1.34649 8.82825C1.94582 9.31389 2.6595 9.45397 3.14712 9.45397H3.50915C3.62365 9.45397 3.7312 9.399 3.79826 9.30619C3.86532 9.21338 3.88374 9.09402 3.84779 8.9853C3.78386 8.79197 3.74813 8.58899 3.74813 8.38037C3.74813 7.32719 4.60141 6.47391 5.65458 6.47391C6.70775 6.47391 7.56103 7.32719 7.56103 8.38037C7.56103 8.59103 7.52521 8.79376 7.46163 8.9845C7.42537 9.09327 7.44361 9.21284 7.51065 9.30585C7.57769 9.39886 7.68535 9.45397 7.80001 9.45397H15.9876C16.1021 9.45397 16.2096 9.399 16.2767 9.30619C16.3438 9.21338 16.3622 9.09402 16.3262 8.9853C16.2623 8.79197 16.2266 8.58899 16.2266 8.38037C16.2266 7.32719 17.0798 6.47391 18.133 6.47391C19.1862 6.47391 20.0395 7.32719 20.0395 8.38037C20.0395 8.59104 20.0037 8.79376 19.9401 8.9845C19.9038 9.09327 19.9221 9.21284 19.9891 9.30585C20.0561 9.39886 20.1638 9.45397 20.2784 9.45397H21.3733C21.4838 9.45397 21.6217 9.45083 21.76 9.40741C21.9109 9.36 22.0378 9.27357 22.1508 9.14726C22.3513 8.9233 22.5333 8.53998 22.7786 7.94388C23.3495 6.56088 22.711 5.43892 22.0537 5.06229C22.0423 5.05579 22.0301 5.04878 22.0171 5.04128C21.4432 4.71145 19.2295 3.43927 16.1958 3.36733C13.183 3.2959 4.15557 3.2959 3.1501 3.2959ZM3.1489 4.00926C4.15395 4.00926 13.1757 4.00929 16.1789 4.08049C19.0305 4.14811 21.1155 5.34601 21.665 5.66169C21.6771 5.66865 21.6884 5.67518 21.6991 5.68126C22.044 5.87887 22.554 6.61872 22.1192 7.67178L22.119 7.67219C21.8632 8.29399 21.7233 8.55529 21.6193 8.67148C21.5801 8.71526 21.559 8.7228 21.5462 8.72682C21.5207 8.73485 21.4787 8.74061 21.3735 8.74061H20.7275C20.7441 8.62323 20.7528 8.50298 20.7528 8.38037C20.7528 6.93322 19.5802 5.76056 18.133 5.76056C16.6859 5.76056 15.5132 6.93322 15.5132 8.38037C15.5132 8.50278 15.522 8.62303 15.5387 8.74061H8.24909C8.26563 8.62323 8.27439 8.50298 8.27439 8.38037C8.27439 6.93322 7.10173 5.76056 5.65458 5.76056C4.20743 5.76056 3.03477 6.93322 3.03477 8.38037C3.03477 8.5021 3.04351 8.6217 3.05998 8.73866C2.69405 8.7225 2.20187 8.60321 1.79559 8.27401C1.37105 7.93 0.996402 7.32168 0.996342 6.23164C0.997173 5.12999 1.34244 4.61224 1.72219 4.34793C2.12837 4.06523 2.65898 4.00926 3.1489 4.00926Z" fill="#1A4A8C"/>
<path fill-rule="evenodd" clip-rule="evenodd" d="M19.0055 8.87007C18.8802 8.71806 18.6554 8.69639 18.5034 8.82168C18.4023 8.90499 18.2749 8.95425 18.1346 8.95425C17.9943 8.95425 17.8668 8.90499 17.7658 8.82168C17.6138 8.69639 17.389 8.71806 17.2637 8.87007C17.1384 9.02209 17.1601 9.24688 17.3121 9.37217C17.5356 9.55637 17.8219 9.66761 18.1346 9.66761C18.4472 9.66761 18.7336 9.55637 18.9571 9.37217C19.1091 9.24688 19.1308 9.02209 19.0055 8.87007Z" fill="#1A4A8C"/>
<path fill-rule="evenodd" clip-rule="evenodd" d="M20.391 8.7587C20.2041 8.6963 20.0021 8.79717 19.9397 8.98402C19.6871 9.74039 18.9727 10.2865 18.1326 10.2865C17.2924 10.2865 16.5781 9.74039 16.3254 8.98402C16.263 8.79717 16.061 8.6963 15.8741 8.7587C15.6873 8.82111 15.5864 9.02316 15.6488 9.21C15.9954 10.2477 16.9753 10.9999 18.1326 10.9999C19.2898 10.9999 20.2697 10.2477 20.6163 9.21C20.6787 9.02316 20.5778 8.82111 20.391 8.7587Z" fill="#1A4A8C"/>
<path fill-rule="evenodd" clip-rule="evenodd" d="M19.0035 8.87007C18.8782 8.71806 18.6534 8.69639 18.5014 8.82168C18.4003 8.90499 18.2729 8.95425 18.1326 8.95425C17.9923 8.95425 17.8649 8.90499 17.7638 8.82168C17.6118 8.69639 17.387 8.71806 17.2617 8.87007C17.1364 9.02209 17.1581 9.24688 17.3101 9.37217C17.5336 9.55637 17.82 9.66761 18.1326 9.66761C18.4453 9.66761 18.7316 9.55637 18.9551 9.37217C19.1071 9.24688 19.1288 9.02209 19.0035 8.87007Z" fill="#1A4A8C"/>
<path fill-rule="evenodd" clip-rule="evenodd" d="M19.4209 8.38039C19.4209 7.66978 18.8439 7.09277 18.1333 7.09277C17.4231 7.09277 16.8457 7.66755 16.8457 8.38039C16.8457 8.7809 17.0292 9.136 17.3108 9.37113C17.4621 9.49737 17.687 9.47711 17.8132 9.32589C17.9395 9.17467 17.9192 8.94974 17.768 8.8235C17.6395 8.71622 17.559 8.5577 17.559 8.38039C17.559 8.06242 17.8162 7.80613 18.1333 7.80613C18.4499 7.80613 18.7075 8.06376 18.7075 8.38039C18.7075 8.5576 18.6276 8.71673 18.4997 8.82253C18.348 8.94812 18.3268 9.17296 18.4524 9.32472C18.578 9.47648 18.8028 9.49769 18.9546 9.3721C19.2405 9.13548 19.4209 8.77742 19.4209 8.38039Z" fill="#1A4A8C"/>
<path fill-rule="evenodd" clip-rule="evenodd" d="M7.91442 8.7587C7.72758 8.6963 7.52552 8.79717 7.46312 8.98402C7.21049 9.74039 6.49618 10.2865 5.656 10.2865C4.81581 10.2865 4.1015 9.74039 3.84888 8.98402C3.78647 8.79717 3.58442 8.6963 3.39758 8.7587C3.21073 8.82111 3.10986 9.02316 3.17226 9.21C3.51886 10.2477 4.49878 10.9999 5.656 10.9999C6.81322 10.9999 7.79314 10.2477 8.13974 9.21C8.20214 9.02316 8.10126 8.82111 7.91442 8.7587Z" fill="#1A4A8C"/>
<path fill-rule="evenodd" clip-rule="evenodd" d="M6.52598 8.87007C6.40069 8.71806 6.1759 8.69639 6.02388 8.82168C5.9228 8.90499 5.79539 8.95425 5.65508 8.95425C5.51586 8.95425 5.38754 8.90458 5.28955 8.82292C5.13822 8.69681 4.91331 8.71725 4.7872 8.86858C4.66109 9.01991 4.68153 9.24482 4.83286 9.37093C5.05588 9.55678 5.34488 9.66761 5.65508 9.66761C5.96774 9.66761 6.25409 9.55637 6.47758 9.37217C6.6296 9.24688 6.65126 9.02209 6.52598 8.87007Z" fill="#1A4A8C"/>
<path fill-rule="evenodd" clip-rule="evenodd" d="M5.65672 7.80613C5.9738 7.80613 6.23098 8.06242 6.23098 8.38039C6.23098 8.55769 6.15053 8.71622 6.02202 8.8235C5.8708 8.94974 5.85054 9.17467 5.97678 9.32589C6.10302 9.47711 6.32795 9.49737 6.47917 9.37113C6.76084 9.136 6.94434 8.7809 6.94434 8.38039C6.94434 7.66755 6.36688 7.09277 5.65672 7.09277C4.94611 7.09277 4.36911 7.66978 4.36911 8.38039C4.36911 8.77742 4.54953 9.13548 4.83544 9.3721C4.9872 9.49769 5.21204 9.47648 5.33763 9.32472C5.46323 9.17296 5.44202 8.94812 5.29026 8.82253C5.16242 8.71673 5.08247 8.5576 5.08247 8.38039C5.08247 8.06376 5.34009 7.80613 5.65672 7.80613Z" fill="#1A4A8C"/>
<path fill-rule="evenodd" clip-rule="evenodd" d="M8.27637 8.38056C8.27637 6.9334 7.10371 5.76074 5.65655 5.76074C4.2094 5.76074 3.03674 6.9334 3.03674 8.38056C3.03674 8.67281 3.08653 8.9516 3.17275 9.21027C3.23504 9.39715 3.43704 9.49815 3.62392 9.43586C3.8108 9.37356 3.9118 9.17157 3.8495 8.98469C3.78592 8.79394 3.7501 8.59122 3.7501 8.38056C3.7501 7.32738 4.60338 6.4741 5.65655 6.4741C6.70973 6.4741 7.56301 7.32738 7.56301 8.38056C7.56301 8.58917 7.52728 8.79216 7.46334 8.98549C7.40149 9.17252 7.50296 9.37427 7.68999 9.43612C7.87702 9.49797 8.07877 9.3965 8.14062 9.20947C8.22649 8.94982 8.27637 8.67129 8.27637 8.38056Z" fill="#1A4A8C"/>
<path fill-rule="evenodd" clip-rule="evenodd" d="M6.52598 8.87007C6.40069 8.71806 6.1759 8.69639 6.02388 8.82168C5.9228 8.90499 5.79539 8.95425 5.65508 8.95425C5.51443 8.95425 5.38783 8.90482 5.28955 8.82292C5.13822 8.69681 4.91331 8.71725 4.7872 8.86858C4.66109 9.01991 4.68153 9.24482 4.83286 9.37093C5.0556 9.55654 5.34273 9.66761 5.65508 9.66761C5.96774 9.66761 6.25409 9.55637 6.47758 9.37217C6.6296 9.24688 6.65126 9.02209 6.52598 8.87007Z" fill="#1A4A8C"/>
<path fill-rule="evenodd" clip-rule="evenodd" d="M6.94238 8.38039C6.94238 7.66978 6.36538 7.09277 5.65477 7.09277C4.94461 7.09277 4.36715 7.66755 4.36715 8.38039C4.36715 8.7809 4.55066 9.136 4.83232 9.37113C4.98355 9.49737 5.20847 9.47711 5.33471 9.32589C5.46095 9.17467 5.4407 8.94974 5.28947 8.8235C5.16096 8.71622 5.08051 8.55769 5.08051 8.38039C5.08051 8.06242 5.33769 7.80613 5.65477 7.80613C5.9714 7.80613 6.22902 8.06376 6.22902 8.38039C6.22902 8.55628 6.14829 8.71646 6.02007 8.8235C5.86884 8.94974 5.84859 9.17467 5.97483 9.32589C6.10107 9.47711 6.32599 9.49737 6.47722 9.37113C6.75918 9.13575 6.94238 8.77875 6.94238 8.38039Z" fill="#1A4A8C"/>
<path fill-rule="evenodd" clip-rule="evenodd" d="M2.28711 5.51391C2.28711 5.31692 2.12742 5.15723 1.93043 5.15723H0.744469C0.54748 5.15723 0.387789 5.31692 0.387789 5.51391C0.387789 5.7109 0.54748 5.87059 0.744469 5.87059H1.93043C2.12742 5.87059 2.28711 5.7109 2.28711 5.51391Z" fill="#1A4A8C"/>
<path fill-rule="evenodd" clip-rule="evenodd" d="M2.28711 6.80395C2.28711 6.60696 2.12742 6.44727 1.93043 6.44727H0.856823C0.659834 6.44727 0.500143 6.60696 0.500143 6.80395C0.500143 7.00093 0.659834 7.16063 0.856823 7.16063H1.93043C2.12742 7.16063 2.28711 7.00093 2.28711 6.80395Z" fill="#1A4A8C"/>
<path fill-rule="evenodd" clip-rule="evenodd" d="M10.0938 5.07152C10.0938 4.87453 9.93406 4.71484 9.73707 4.71484H8.80435C8.60736 4.71484 8.44767 4.87453 8.44767 5.07152C8.44767 5.26851 8.60736 5.4282 8.80435 5.4282H9.73707C9.93406 5.4282 10.0938 5.26851 10.0938 5.07152Z" fill="#1A4A8C"/>
</svg>
