<svg width="20" height="20" viewBox="0 0 20 20" fill="none" xmlns="http://www.w3.org/2000/svg">
<g clip-path="url(#clip0_842_31769)">
<path d="M7.5 18.3334C7.96024 18.3334 8.33333 17.9603 8.33333 17.5C8.33333 17.0398 7.96024 16.6667 7.5 16.6667C7.03976 16.6667 6.66667 17.0398 6.66667 17.5C6.66667 17.9603 7.03976 18.3334 7.5 18.3334Z" stroke="#1A4A8C" stroke-width="2" stroke-linecap="round" stroke-linejoin="round"/>
<path d="M15.8333 18.3334C16.2936 18.3334 16.6667 17.9603 16.6667 17.5C16.6667 17.0398 16.2936 16.6667 15.8333 16.6667C15.3731 16.6667 15 17.0398 15 17.5C15 17.9603 15.3731 18.3334 15.8333 18.3334Z" stroke="#1A4A8C" stroke-width="2" stroke-linecap="round" stroke-linejoin="round"/>
<path d="M0.833332 1.66669H4.01515L6.14697 12.0809C6.21971 12.439 6.41894 12.7606 6.70979 12.9895C7.00064 13.2185 7.36457 13.3401 7.73788 13.3331H15.4697C15.843 13.3401 16.2069 13.2185 16.4978 12.9895C16.7886 12.7606 16.9879 12.439 17.0606 12.0809L18.3333 5.55548H4.8106" stroke="#1A4A8C" stroke-width="2" stroke-linecap="round" stroke-linejoin="round"/>
</g>
<defs>
<clipPath id="clip0_842_31769">
<rect width="20" height="20" fill="white"/>
</clipPath>
</defs>
</svg>
