<svg width="24" height="24" viewBox="0 0 24 24" fill="none" xmlns="http://www.w3.org/2000/svg">
<path d="M21.0798 18.8148C21.0798 19.0519 20.8957 19.2296 20.6503 19.2296H3.10429C2.8589 19.2296 2.67485 19.0519 2.67485 18.8148V12H5.19018V14.0148C5.19018 14.2519 5.37423 14.4296 5.61963 14.4296H8.13497C8.38037 14.4296 8.56442 14.2519 8.56442 14.0148V12H15.2515V14.0148C15.2515 14.2519 15.4356 14.4296 15.681 14.4296H18.1963C18.4417 14.4296 18.6258 14.2519 18.6258 14.0148V12H21.0798V18.8148ZM9.42331 5.12593C9.42331 4.88889 9.60736 4.71111 9.85276 4.71111H13.9632C14.2086 4.71111 14.3926 4.88889 14.3926 5.12593V6.31111H9.36196L9.42331 5.12593ZM7.70552 13.6H6.04908V12H7.70552V13.6ZM17.7055 13.6H16.0491V12H17.7055V13.6ZM20.6503 6.37037H15.2515V5.18519C15.2515 4.53333 14.6994 4 14.0245 4H9.85276C9.17792 4 8.62577 4.47407 8.62577 5.12593C8.62577 5.12593 8.62577 5.12593 8.62577 5.18519V6.37037H3.22699C2.55215 6.37037 2 6.9037 2 7.55556V18.8148C2 19.4667 2.55215 20 3.22699 20H20.773C21.4479 20 22 19.4667 22 18.8148C22 18.8148 22 18.8148 22 18.7556V7.4963C21.8773 6.9037 21.3252 6.37037 20.6503 6.37037Z" fill="#1A4A8C"/>
</svg>
