<svg width="30" height="30" viewBox="0 0 30 30" fill="none" xmlns="http://www.w3.org/2000/svg">
<path fill-rule="evenodd" clip-rule="evenodd" d="M26.5051 11.4286C27.124 11.4286 27.6276 11.9322 27.6276 12.5511V20.4082C27.6276 21.0271 27.124 21.5307 26.5051 21.5307C25.8862 21.5307 25.3827 21.0271 25.3827 20.4082V12.5511C25.3827 11.9322 25.8862 11.4286 26.5051 11.4286ZM28.75 12.5511C28.75 11.3123 27.7439 10.3062 26.5051 10.3062C25.2663 10.3062 24.2602 11.3123 24.2602 12.5511V20.4082C24.2602 21.647 25.2663 22.6531 26.5051 22.6531C27.7439 22.6531 28.75 21.647 28.75 20.4082V12.5511Z" fill="#1A4A8C"/>
<path fill-rule="evenodd" clip-rule="evenodd" d="M3.49492 8.62245C4.11379 8.62245 4.61737 9.12603 4.61737 9.7449V20.4082C4.61737 21.027 4.11379 21.5306 3.49492 21.5306C2.87605 21.5306 2.37247 21.027 2.37247 20.4082V9.7449C2.37247 9.12603 2.87605 8.62245 3.49492 8.62245ZM5.73982 9.7449C5.73982 8.50612 4.7337 7.5 3.49492 7.5C2.25614 7.5 1.25002 8.50612 1.25002 9.7449V20.4082C1.25002 21.6469 2.25614 22.6531 3.49492 22.6531C4.7337 22.6531 5.73982 21.6469 5.73982 20.4082V9.7449Z" fill="#1A4A8C"/>
<path fill-rule="evenodd" clip-rule="evenodd" d="M25.3826 14.796C25.3826 14.486 25.1314 14.2348 24.8214 14.2348H5.29359C4.98364 14.2348 4.73237 14.486 4.73237 14.796C4.73237 15.106 4.98364 15.3572 5.29359 15.3572H24.8214C25.1314 15.3572 25.3826 15.106 25.3826 14.796Z" fill="#1A4A8C"/>
<path fill-rule="evenodd" clip-rule="evenodd" d="M18.9286 18.7246C18.9286 18.4146 18.6773 18.1633 18.3674 18.1633H5.29365C4.98369 18.1633 4.73242 18.4146 4.73242 18.7246C4.73242 19.0345 4.98369 19.2858 5.29365 19.2858H18.3674C18.6773 19.2858 18.9286 19.0345 18.9286 18.7246Z" fill="#1A4A8C"/>
<path fill-rule="evenodd" clip-rule="evenodd" d="M25.3826 18.7246C25.3826 18.4146 25.1314 18.1633 24.8214 18.1633H20.4719C20.162 18.1633 19.9107 18.4146 19.9107 18.7246C19.9107 19.0345 20.162 19.2858 20.4719 19.2858H24.8214C25.1314 19.2858 25.3826 19.0345 25.3826 18.7246Z" fill="#1A4A8C"/>
<path fill-rule="evenodd" clip-rule="evenodd" d="M6.58165 10.8675C8.13216 10.8675 9.38777 12.1231 9.38777 13.6736V14.2348C9.38777 14.5448 9.63904 14.796 9.949 14.796C10.259 14.796 10.5102 14.5448 10.5102 14.2348V13.6736C10.5102 11.5032 8.75207 9.74503 6.58165 9.74503H5.3217C5.01175 9.74503 4.76048 9.99629 4.76048 10.3063C4.76048 10.6162 5.01175 10.8675 5.3217 10.8675H6.58165Z" fill="#1A4A8C"/>
<path fill-rule="evenodd" clip-rule="evenodd" d="M25.2114 12.6437C25.2114 12.3338 24.9602 12.0825 24.6502 12.0825V12.6437V13.205C24.9602 13.205 25.2114 12.9537 25.2114 12.6437ZM24.6502 12.6437C24.6502 13.205 24.6503 13.205 24.6502 13.205H12.8757C12.3412 13.205 11.8129 13.3144 11.4379 13.5476C11.0949 13.7608 10.8609 14.0838 10.8609 14.6305C10.8609 14.9404 10.6097 15.1917 10.2997 15.1917C9.98976 15.1917 9.73849 14.9404 9.73849 14.6305C9.73849 13.6675 10.1976 12.9971 10.8452 12.5944C11.4608 12.2116 12.2205 12.0825 12.8757 12.0825H24.6502C24.6503 12.0825 24.6502 12.0825 24.6502 12.6437Z" fill="#1A4A8C"/>
</svg>
