<svg width="22" height="20" viewBox="0 0 22 20" fill="none" xmlns="http://www.w3.org/2000/svg">
<path d="M17.7465 7.75C18.934 7.75 21 8.76953 21 10C21 11.2656 18.934 12.25 17.7465 12.25H13.6979L10.2083 18.434C10.0104 18.7855 9.64236 19 9.24306 19H7.29167C6.92361 19 6.65625 18.6414 6.75694 18.2828L8.45833 12.25H4.88889L3.38889 14.275C3.28472 14.4156 3.11806 14.5 2.94444 14.5H1.48611C1.21528 14.5 1 14.2785 1 14.0078C1 13.9621 1.00694 13.9164 1.01736 13.8707L2.11111 10L1.01736 6.1293C1.00347 6.08359 1 6.03789 1 5.99219C1 5.71797 1.21875 5.5 1.48611 5.5H2.94444C3.11806 5.5 3.28472 5.58437 3.38889 5.725L4.88889 7.75H8.46181L6.76042 1.71719C6.65625 1.35859 6.92361 1 7.29167 1H9.24306C9.64236 1 10.0104 1.21797 10.2083 1.56602L13.6979 7.75H17.7465V7.75Z" stroke="#1A4A8C" stroke-width="2"/>
</svg>
