<svg width="22" height="20" viewBox="0 0 22 20" fill="none" xmlns="http://www.w3.org/2000/svg">
<path d="M4.25347 7.75C3.06597 7.75 0.999999 8.76953 0.999999 10C0.999999 11.2656 3.06597 12.25 4.25347 12.25H8.30208L11.7917 18.434C11.9896 18.7855 12.3576 19 12.7569 19H14.7083C15.0764 19 15.3437 18.6414 15.2431 18.2828L13.5417 12.25H17.1111L18.6111 14.275C18.7153 14.4156 18.8819 14.5 19.0556 14.5H20.5139C20.7847 14.5 21 14.2785 21 14.0078C21 13.9621 20.9931 13.9164 20.9826 13.8707L19.8889 10L20.9826 6.1293C20.9965 6.08359 21 6.03789 21 5.99219C21 5.71797 20.7812 5.5 20.5139 5.5H19.0556C18.8819 5.5 18.7153 5.58437 18.6111 5.725L17.1111 7.75H13.5382L15.2396 1.71719C15.3437 1.35859 15.0764 1 14.7083 1H12.7569C12.3576 1 11.9896 1.21797 11.7917 1.56602L8.30208 7.75H4.25347V7.75Z" stroke="#1A4A8C" stroke-width="2"/>
</svg>
