<svg width="11" height="20" viewBox="0 0 11 20" fill="none" xmlns="http://www.w3.org/2000/svg">
<path d="M7.95071 13.3403H3.37838C3.30014 13.3319 3.22778 13.2949 3.1752 13.2363C3.12261 13.1778 3.09353 13.1019 3.09353 13.0232C3.09353 12.9445 3.12261 12.8686 3.1752 12.81C3.22778 12.7515 3.30014 12.7144 3.37838 12.706H7.95071C8.02895 12.7144 8.10131 12.7515 8.15389 12.81C8.20647 12.8686 8.23556 12.9445 8.23556 13.0232C8.23556 13.1019 8.20647 13.1778 8.15389 13.2363C8.10131 13.2949 8.02895 13.3319 7.95071 13.3403ZM7.95071 14.8473H3.37838C3.30014 14.8389 3.22778 14.8019 3.1752 14.7433C3.12261 14.6848 3.09353 14.6089 3.09353 14.5302C3.09353 14.4515 3.12261 14.3756 3.1752 14.317C3.22778 14.2585 3.30014 14.2214 3.37838 14.213H7.95071C8.02895 14.2214 8.10131 14.2585 8.15389 14.317C8.20647 14.3756 8.23556 14.4515 8.23556 14.5302C8.23556 14.6089 8.20647 14.6848 8.15389 14.7433C8.10131 14.8019 8.02895 14.8389 7.95071 14.8473ZM7.95071 16.3543H3.37838C3.29475 16.3543 3.21454 16.3211 3.1554 16.262C3.09627 16.2028 3.06304 16.1226 3.06304 16.039C3.06304 15.9554 3.09627 15.8752 3.1554 15.816C3.21454 15.7569 3.29475 15.7237 3.37838 15.7237H7.95071C8.03434 15.7237 8.11455 15.7569 8.17369 15.816C8.23282 15.8752 8.26604 15.9554 8.26604 16.039C8.26604 16.1226 8.23282 16.2028 8.17369 16.262C8.11455 16.3211 8.03434 16.3543 7.95071 16.3543ZM3.34538 1.93334C3.34538 1.84776 3.37937 1.76569 3.43989 1.70518C3.5004 1.64466 3.58247 1.61067 3.66805 1.61067H7.66105C7.70325 1.61067 7.74503 1.61904 7.78397 1.6353C7.82292 1.65156 7.85825 1.67538 7.88792 1.70539C7.91759 1.73541 7.94101 1.77101 7.95682 1.81013C7.97264 1.84926 7.98053 1.89114 7.98004 1.93334V11.375H3.34538V1.93334ZM9.48338 11.375H8.77204V1.93334C8.77204 1.6416 8.65615 1.36181 8.44986 1.15552C8.24357 0.949228 7.96378 0.833336 7.67204 0.833336L3.66805 0.833336C3.37631 0.833336 3.09652 0.949228 2.89023 1.15552C2.68394 1.36181 2.56804 1.6416 2.56804 1.93334V11.375H1.84571C1.48882 11.375 1.14654 11.5168 0.894182 11.7691C0.64182 12.0215 0.500045 12.3638 0.500045 12.7207V16.3433C0.498593 16.521 0.532328 16.6971 0.599303 16.8617C0.666279 17.0262 0.76517 17.1759 0.890271 17.302C1.01537 17.4281 1.16421 17.5282 1.32819 17.5965C1.49218 17.6648 1.66807 17.7 1.84571 17.7H2.02171C2.01992 17.7232 2.01992 17.7465 2.02171 17.7697V18.6387C2.02455 18.7784 2.08159 18.9116 2.18079 19.0102C2.27999 19.1087 2.41359 19.1648 2.55338 19.1667H3.32338C3.46633 19.1667 3.60343 19.1099 3.70451 19.0088C3.80559 18.9077 3.86238 18.7706 3.86238 18.6277V17.7587C3.86417 17.7355 3.86417 17.7122 3.86238 17.689H7.46671C7.46491 17.7122 7.46491 17.7355 7.46671 17.7587V18.6277C7.46671 18.7706 7.5235 18.9077 7.62458 19.0088C7.72566 19.1099 7.86276 19.1667 8.00571 19.1667H8.77571C8.91611 19.1628 9.04946 19.1044 9.1474 19.0037C9.24533 18.903 9.3001 18.7681 9.30004 18.6277V17.7587C9.30132 17.7391 9.30132 17.7195 9.30004 17.7H9.47604C9.83294 17.7 10.1752 17.5582 10.4276 17.3059C10.6799 17.0535 10.8217 16.7112 10.8217 16.3543V12.7207C10.8217 12.544 10.7869 12.369 10.7193 12.2057C10.6517 12.0424 10.5525 11.8941 10.4276 11.7691C10.3026 11.6442 10.1543 11.5451 9.99101 11.4774C9.82775 11.4098 9.65276 11.375 9.47604 11.375" fill="#1A4A8C"/>
</svg>
