<svg width="15" height="19" viewBox="0 0 15 19" fill="none" xmlns="http://www.w3.org/2000/svg">
<path d="M10.6118 8.50493H4.09959C3.98047 8.50493 3.86624 8.45761 3.78201 8.37338C3.69778 8.28916 3.65047 8.17492 3.65047 8.05581C3.65047 7.93669 3.69778 7.82246 3.78201 7.73823C3.86624 7.654 3.98047 7.60669 4.09959 7.60669H10.6118C10.7309 7.60669 10.8452 7.654 10.9294 7.73823C11.0136 7.82246 11.0609 7.93669 11.0609 8.05581C11.0609 8.17492 11.0136 8.28916 10.9294 8.37338C10.8452 8.45761 10.7309 8.50493 10.6118 8.50493ZM9.0869 13.9727H5.6245C5.51307 13.9607 5.41001 13.9079 5.33512 13.8245C5.26023 13.7412 5.2188 13.633 5.2188 13.521C5.2188 13.4089 5.26023 13.3008 5.33512 13.2174C5.41001 13.134 5.51307 13.0812 5.6245 13.0692H9.0869C9.19834 13.0812 9.3014 13.134 9.37629 13.2174C9.45118 13.3008 9.49261 13.4089 9.49261 13.521C9.49261 13.633 9.45118 13.7412 9.37629 13.8245C9.3014 13.9079 9.19834 13.9607 9.0869 13.9727ZM6.18852 1.96136H8.52289V3.29305H6.18852V1.96136ZM13.8653 10.8393H13.0193V5.20964C13.0193 4.95795 12.9697 4.70872 12.8734 4.47619C12.7771 4.24366 12.6359 4.03238 12.458 3.85441C12.28 3.67643 12.0687 3.53526 11.8362 3.43894C11.6036 3.34262 11.3544 3.29305 11.1027 3.29305H9.65091V1.77858C9.65091 1.52788 9.55133 1.28746 9.37406 1.11019C9.19679 0.932923 8.95637 0.833336 8.70567 0.833336H6.00573C5.75504 0.833336 5.51461 0.932923 5.33735 1.11019C5.16008 1.28746 5.06049 1.52788 5.06049 1.77858V3.29305H3.60869C3.10038 3.29305 2.61288 3.49498 2.25345 3.85441C1.89402 4.21384 1.6921 4.70133 1.6921 5.20964V10.8132H0.84608C0.621703 10.8132 0.406515 10.9023 0.247857 11.061C0.0891979 11.2196 6.42767e-05 11.4348 6.42767e-05 11.6592V15.3827C-0.00131487 15.4949 0.019512 15.6063 0.0613463 15.7105C0.103181 15.8146 0.165196 15.9095 0.243825 15.9896C0.322454 16.0696 0.416144 16.1334 0.519503 16.1771C0.622862 16.2209 0.73385 16.2437 0.84608 16.2444H1.6921V16.4324C1.69623 16.938 1.89998 17.4215 2.25896 17.7775C2.61795 18.1336 3.10308 18.3334 3.60869 18.3333H11.1027C11.611 18.3333 12.0985 18.1314 12.458 17.772C12.8174 17.4125 13.0193 16.9251 13.0193 16.4167V16.2444H13.8653C14.0893 16.243 14.3037 16.1535 14.462 15.9951C14.6204 15.8367 14.71 15.6223 14.7113 15.3984V11.6592C14.7113 11.4348 14.6222 11.2196 14.4636 11.061C14.3049 10.9023 14.0897 10.8132 13.8653 10.8132" fill="#1A4A8C"/>
</svg>
