<svg width="20" height="20" viewBox="0 0 20 20" fill="none" xmlns="http://www.w3.org/2000/svg">
<path d="M12.3535 14.7667C12.3384 14.8378 12.3003 14.9015 12.2454 14.9471C12.1905 14.9928 12.1221 15.0177 12.0515 15.0177C11.981 15.0177 11.9126 14.9928 11.8577 14.9471C11.8028 14.9015 11.7646 14.8378 11.7496 14.7667V8.49301C11.7577 8.41477 11.7936 8.34241 11.8504 8.28983C11.9071 8.23725 11.9806 8.20816 12.0569 8.20816C12.1331 8.20816 12.2066 8.23725 12.2634 8.28983C12.3201 8.34241 12.356 8.41477 12.3641 8.49301L12.3535 14.7667ZM10.5276 4.30568H9.47962C9.30876 4.30567 9.14485 4.37548 9.0237 4.49984C8.90255 4.62419 8.83402 4.79299 8.83309 4.96934V5.57801H7.76737V1.93334C7.76737 1.89097 7.77546 1.84901 7.79117 1.80986C7.80688 1.77072 7.82991 1.73515 7.85893 1.70518C7.88796 1.67522 7.92243 1.65145 7.96035 1.63524C7.99828 1.61902 8.03893 1.61068 8.07998 1.61068H11.9379C12.0208 1.61068 12.1003 1.64467 12.1589 1.70518C12.2175 1.7657 12.2505 1.84777 12.2505 1.93334V5.56334H11.1848V4.96934C11.1848 4.79333 11.117 4.62452 10.9964 4.50006C10.8758 4.3756 10.7123 4.30568 10.5418 4.30568M10.421 5.57801H9.61816V5.09768H10.4245L10.421 5.57801ZM10.3286 14.7667C10.3205 14.8449 10.2846 14.9173 10.2279 14.9699C10.1711 15.0224 10.0976 15.0515 10.0214 15.0515C9.94511 15.0515 9.87157 15.0224 9.81485 14.9699C9.75813 14.9173 9.72223 14.8449 9.71407 14.7667V8.49301C9.72223 8.41477 9.75813 8.34241 9.81485 8.28983C9.87157 8.23725 9.94511 8.20816 10.0214 8.20816C10.0976 8.20816 10.1711 8.23725 10.2279 8.28983C10.2846 8.34241 10.3205 8.41477 10.3286 8.49301V14.7667ZM8.26826 14.7667C8.2601 14.8449 8.22421 14.9173 8.16748 14.9699C8.11076 15.0224 8.03722 15.0515 7.96098 15.0515C7.88474 15.0515 7.81119 15.0224 7.75447 14.9699C7.69775 14.9173 7.66186 14.8449 7.6537 14.7667V8.49301C7.66186 8.41477 7.69775 8.34241 7.75447 8.28983C7.81119 8.23725 7.88474 8.20816 7.96098 8.20816C8.03722 8.20816 8.11076 8.23725 8.16748 8.28983C8.22421 8.34241 8.2601 8.41477 8.26826 8.49301V14.7667ZM13.7034 5.57801H13.0142V1.93334C13.0142 1.64161 12.9019 1.36182 12.7021 1.15553C12.5022 0.949236 12.2312 0.833344 11.9485 0.833344L8.06933 0.833344C7.78668 0.833344 7.51561 0.949236 7.31575 1.15553C7.11589 1.36182 7.00361 1.64161 7.00361 1.93334V5.56334H6.3038C6.13139 5.56333 5.96069 5.59862 5.80158 5.66716C5.64247 5.7357 5.49812 5.83614 5.37687 5.96265C5.25562 6.08916 5.15989 6.23925 5.09521 6.40421C5.03053 6.56917 4.9982 6.74573 5.00008 6.92368V16.3433C4.99867 16.521 5.03135 16.6971 5.09624 16.8617C5.16113 17.0262 5.25694 17.1759 5.37814 17.302C5.49934 17.4281 5.64354 17.5282 5.80241 17.5965C5.96128 17.6648 6.13169 17.7 6.3038 17.7H6.47431C6.47257 17.7232 6.47257 17.7465 6.47431 17.7697V18.6387C6.47706 18.7785 6.53233 18.9117 6.62843 19.0102C6.72454 19.1087 6.85397 19.1648 6.9894 19.1667H7.7354C7.8739 19.1667 8.00672 19.1099 8.10465 19.0088C8.20258 18.9077 8.2576 18.7706 8.2576 18.6277V17.7587C8.25934 17.7355 8.25934 17.7122 8.2576 17.689H11.7496C11.7478 17.7122 11.7478 17.7355 11.7496 17.7587V18.6277C11.7496 18.7706 11.8046 18.9077 11.9025 19.0088C12.0005 19.1099 12.1333 19.1667 12.2718 19.1667H13.0178C13.1538 19.1629 13.283 19.1044 13.3779 19.0037C13.4728 18.903 13.5258 18.7681 13.5258 18.6277V17.7587C13.527 17.7391 13.527 17.7195 13.5258 17.7H13.6963C14.042 17.7 14.3737 17.5582 14.6181 17.3059C14.8626 17.0535 15 16.7112 15 16.3543V6.92368C14.9991 6.56708 14.8614 6.22537 14.6171 5.97322C14.3728 5.72106 14.0418 5.57898 13.6963 5.57801" fill="#1A4A8C"/>
</svg>
