<svg width="22" height="22" viewBox="0 0 22 22" fill="none" xmlns="http://www.w3.org/2000/svg">
<path d="M2.56622 10.5112C2.56457 11.9213 2.9019 13.3089 3.54706 14.559L2.53582 18.2347L2.07625 19.9052L3.75259 19.4675L7.56252 18.4729C8.7679 19.0574 10.0966 19.3635 11.4459 19.3641H11.4463H11.4497C16.3426 19.3641 20.3312 15.4007 20.3333 10.5188V10.5187C20.3342 8.15568 19.4089 5.92955 17.7322 4.25923C16.0557 2.58897 13.8225 1.66783 11.4503 1.66663H11.4498C6.55647 1.66663 2.56848 5.62912 2.56622 10.5112ZM2.56622 10.5112C2.56622 10.5114 2.56622 10.5115 2.56622 10.5116L3.56622 10.512L2.56622 10.5108C2.56622 10.511 2.56622 10.5111 2.56622 10.5112Z" stroke="#1A4A8C" stroke-width="2"/>
<mask id="path-2-outside-1_1538_38604" maskUnits="userSpaceOnUse" x="5.66699" y="4.83325" width="12" height="12" fill="black">
<rect fill="white" x="5.66699" y="4.83325" width="12" height="12"/>
<path fill-rule="evenodd" clip-rule="evenodd" d="M9.57391 7.18163C9.43559 6.85035 9.29005 6.84364 9.15866 6.83791L8.80494 6.83325C8.68188 6.83325 8.48193 6.88304 8.3129 7.08217C8.14387 7.28131 7.66699 7.76259 7.66699 8.7415C7.66699 9.7204 8.32826 10.6663 8.4204 10.7992C8.51255 10.9321 9.69697 13.005 11.5727 13.8025C13.1314 14.4653 13.4486 14.3334 13.787 14.3003C14.1255 14.2672 14.8788 13.819 15.0325 13.3544C15.1862 12.8898 15.1863 12.4918 15.1402 12.4085C15.0941 12.3253 14.9711 12.2758 14.7864 12.1763C14.6017 12.0767 13.6946 11.5954 13.5255 11.529C13.3563 11.4625 13.2334 11.4295 13.1102 11.6286C12.9871 11.8278 12.6338 12.2757 12.5261 12.4085C12.4184 12.5413 12.3109 12.558 12.1262 12.4585C11.9415 12.3591 11.3473 12.1489 10.6423 11.4711C10.0938 10.9437 9.72347 10.2924 9.61567 10.0934C9.50786 9.89432 9.60422 9.78653 9.69677 9.68739C9.77958 9.59821 9.88126 9.45503 9.9737 9.33891C10.0661 9.22278 10.0966 9.13977 10.158 9.00719C10.2194 8.87461 10.1888 8.75816 10.1426 8.6587C10.0965 8.55924 9.73792 7.57525 9.57391 7.18174"/>
</mask>
<path d="M9.15866 6.83791L9.24589 4.83981L9.21544 4.83848L9.18497 4.83808L9.15866 6.83791ZM8.80494 6.83325L8.83125 4.83343L8.8181 4.83325H8.80494V6.83325ZM11.5727 13.8025L12.3553 11.962L12.3552 11.9619L11.5727 13.8025ZM10.6423 11.4711L9.25617 12.9128L9.25618 12.9128L10.6423 11.4711ZM9.69677 9.68739L11.1587 11.0522L11.1624 11.0483L9.69677 9.68739ZM11.4195 6.41106C11.2677 6.04746 10.9833 5.54141 10.4236 5.19161C9.85696 4.83755 9.28862 4.84167 9.24589 4.83981L9.07143 8.836C9.16009 8.83987 8.73021 8.85022 8.30382 8.58377C7.88424 8.32157 7.74181 7.98453 7.72832 7.95221L11.4195 6.41106ZM9.18497 4.83808L8.83125 4.83343L8.77863 8.83308L9.13235 8.83773L9.18497 4.83808ZM8.80494 4.83325C8.17318 4.83325 7.3852 5.08451 6.78814 5.78792L9.83767 8.37642C9.57866 8.68156 9.19058 8.83325 8.80494 8.83325V4.83325ZM6.78814 5.78792C6.79967 5.77434 6.66388 5.92831 6.55943 6.06318C6.43631 6.22216 6.29176 6.43049 6.15542 6.69042C5.87495 7.22513 5.66699 7.90714 5.66699 8.7415H9.66699C9.66699 8.66147 9.67645 8.61374 9.68226 8.59092C9.68811 8.56794 9.69409 8.55531 9.69771 8.54842C9.71216 8.52087 9.70114 8.53727 9.83767 8.37642L6.78814 5.78792ZM5.66699 8.7415C5.66699 9.64859 5.96325 10.4376 6.19979 10.9398C6.44828 11.4674 6.71204 11.8453 6.7768 11.9387L10.064 9.65965C10.0366 9.62016 9.92368 9.45872 9.8185 9.2354C9.70137 8.98672 9.66699 8.81331 9.66699 8.7415H5.66699ZM6.7768 11.9387C6.71729 11.8529 7.17908 12.6156 7.80708 13.3507C8.44304 14.0951 9.44733 15.0721 10.7901 15.643L12.3552 11.9619C11.8223 11.7353 11.2965 11.2771 10.8483 10.7525C10.3922 10.2185 10.2157 9.87839 10.064 9.65965L6.7768 11.9387ZM10.7901 15.643C11.6355 16.0025 12.2869 16.2102 12.8513 16.2918C13.1532 16.3354 13.4132 16.3408 13.6481 16.3254C13.7569 16.3183 13.8482 16.3074 13.9052 16.3004C13.956 16.294 13.9334 16.2967 13.968 16.2925C13.9816 16.2908 13.9843 16.2906 13.9818 16.2908L13.5923 12.3098C13.5155 12.3173 13.4271 12.329 13.4121 12.3309C13.3809 12.3348 13.3797 12.3344 13.3868 12.334C13.4184 12.3319 13.4382 12.335 13.4236 12.3329C13.3551 12.323 13.0686 12.2653 12.3553 11.962L10.7901 15.643ZM13.9818 16.2908C14.6527 16.2252 15.2634 15.8805 15.6232 15.6296C15.979 15.3814 16.6474 14.8408 16.9313 13.9825L13.1337 12.7264C13.2117 12.4904 13.3224 12.3685 13.3371 12.3523C13.3617 12.3251 13.3639 12.3286 13.3349 12.3488C13.3078 12.3677 13.2864 12.3781 13.2865 12.3781C13.2876 12.3776 13.3072 12.3687 13.3454 12.357C13.3776 12.3471 13.4643 12.3223 13.5923 12.3098L13.9818 16.2908ZM16.9313 13.9825C17.0594 13.5951 17.1289 13.222 17.1548 12.8984C17.1677 12.7384 17.1722 12.5619 17.1592 12.3819C17.1539 12.3082 17.1317 11.8766 16.89 11.4399L13.3904 13.3772C13.3156 13.242 13.2721 13.125 13.2478 13.051C13.2222 12.9728 13.2065 12.9071 13.1969 12.861C13.1782 12.7709 13.172 12.7032 13.1696 12.6703C13.1647 12.6029 13.1683 12.5705 13.1676 12.5785C13.1667 12.5908 13.1592 12.6491 13.1337 12.7264L16.9313 13.9825ZM16.89 11.4399C16.5927 10.9029 16.1457 10.6434 16.0325 10.5765C15.9523 10.5292 15.8759 10.4893 15.838 10.4696C15.7875 10.4432 15.7657 10.4321 15.7355 10.4158L13.8373 13.9367C13.8994 13.9702 13.9622 14.0026 13.9882 14.0162C14.0268 14.0363 14.0186 14.0327 13.998 14.0205C13.9784 14.0089 13.8939 13.9587 13.7907 13.8703C13.6815 13.7768 13.5232 13.617 13.3904 13.3772L16.89 11.4399ZM15.7355 10.4158C15.6338 10.361 15.3522 10.2112 15.0736 10.0662C14.8611 9.95558 14.4672 9.75013 14.2568 9.66749L12.7941 13.3904C12.7441 13.3708 12.7216 13.3589 12.7599 13.3771C12.7846 13.3889 12.8216 13.407 12.8713 13.4319C12.97 13.4814 13.0949 13.5457 13.2266 13.6142C13.4899 13.7513 13.7543 13.892 13.8373 13.9367L15.7355 10.4158ZM14.2568 9.66749C14.2405 9.66109 13.7024 9.41416 13.0547 9.49438C12.1748 9.60338 11.6574 10.1753 11.4092 10.5766L14.8112 12.6806C14.7562 12.7695 14.633 12.9456 14.4115 13.1135C14.1672 13.2987 13.8686 13.4241 13.5465 13.464C13.2527 13.5004 13.0254 13.4548 12.9206 13.4286C12.8231 13.4042 12.7598 13.377 12.7941 13.3904L14.2568 9.66749ZM11.4092 10.5766C11.4172 10.5638 11.4058 10.5825 11.3615 10.6439C11.3228 10.6973 11.2749 10.7614 11.2226 10.8299C11.1173 10.9679 11.0142 11.0977 10.9728 11.1487L14.0795 13.6684C14.1674 13.5599 14.608 13.0092 14.8112 12.6806L11.4092 10.5766ZM10.9728 11.1487C11.0898 11.0045 11.4535 10.6219 12.0945 10.5377C12.6542 10.4641 13.0374 10.6777 13.0745 10.6976L11.178 14.2194C11.3997 14.3389 11.929 14.5938 12.6156 14.5036C13.3835 14.4027 13.8548 13.9454 14.0795 13.6684L10.9728 11.1487ZM13.0745 10.6976C12.9972 10.656 12.9215 10.6205 12.889 10.6053C12.8394 10.5819 12.817 10.5717 12.7777 10.5529C12.7135 10.5222 12.6489 10.4897 12.578 10.4488C12.44 10.3693 12.2494 10.2418 12.0284 10.0293L9.25618 12.9128C9.74022 13.3782 10.1993 13.6947 10.5808 13.9145C10.7697 14.0234 10.9324 14.1044 11.0535 14.1623C11.2368 14.2498 11.1866 14.2241 11.178 14.2194L13.0745 10.6976ZM12.0284 10.0293C11.881 9.88761 11.7367 9.70747 11.611 9.52494C11.4888 9.34743 11.4063 9.19999 11.3743 9.14081L7.85707 11.0459C7.99223 11.2954 8.48033 12.1669 9.25617 12.9128L12.0284 10.0293ZM11.3743 9.14081C11.4421 9.26608 11.5253 9.46463 11.5561 9.72542C11.5883 9.99846 11.5543 10.2662 11.4715 10.5059C11.3336 10.9051 11.0697 11.1476 11.1587 11.0522L8.2348 8.3226C8.23133 8.32632 7.87294 8.6723 7.69069 9.19992C7.45295 9.88818 7.5875 10.5482 7.85707 11.0459L11.3743 9.14081ZM11.1624 11.0483C11.2728 10.9293 11.3684 10.8056 11.4162 10.7435C11.4881 10.6501 11.5045 10.6271 11.5384 10.5845L8.40897 8.09327C8.37353 8.13778 8.34043 8.18082 8.31456 8.21465C8.28398 8.25462 8.26867 8.27488 8.247 8.30301C8.22804 8.32764 8.21722 8.34129 8.21116 8.34872C8.20411 8.35738 8.21201 8.34714 8.23119 8.32649L11.1624 11.0483ZM11.5384 10.5845C11.8163 10.2354 11.9562 9.88358 11.9727 9.84801L8.34332 8.16637C8.33228 8.1902 8.3225 8.21171 8.315 8.22823C8.3065 8.24696 8.30248 8.25587 8.29793 8.2658C8.28947 8.28427 8.29268 8.27653 8.30138 8.25973C8.31183 8.23953 8.32812 8.21008 8.34988 8.17618C8.37156 8.14242 8.39214 8.11441 8.40897 8.09327L11.5384 10.5845ZM11.9727 9.84801C12.3897 8.94789 12.1164 8.16054 11.9567 7.81656L8.32858 9.50084C8.30161 9.44276 8.22515 9.26801 8.20037 9.01732C8.17287 8.73922 8.21604 8.44108 8.34332 8.16637L11.9727 9.84801ZM11.9567 7.81656C11.982 7.87109 11.9945 7.90604 11.9743 7.8545C11.9634 7.82665 11.9478 7.78586 11.9271 7.73141C11.8856 7.62213 11.8335 7.48321 11.774 7.32531C11.6625 7.02922 11.5182 6.64806 11.42 6.41231L7.72784 7.95117C7.79359 8.10893 7.91066 8.41653 8.03091 8.73567C8.08732 8.88539 8.14373 9.03571 8.18758 9.1512C8.20958 9.20913 8.2308 9.26461 8.249 9.31115C8.25793 9.334 8.29172 9.42145 8.32858 9.50084L11.9567 7.81656Z" fill="#1A4A8C" mask="url(#path-2-outside-1_1538_38604)"/>
</svg>
