<svg width="30" height="31" viewBox="0 0 30 31" fill="none" xmlns="http://www.w3.org/2000/svg">
<rect y="0.671631" width="30" height="30" rx="5" fill="#00BDD6"/>
<path d="M19.4098 7.2688H11.4237C9.21842 7.2688 7.43066 9.05655 7.43066 11.2619V19.248C7.43066 21.4533 9.21842 23.241 11.4237 23.241H19.4098C21.6151 23.241 23.4029 21.4533 23.4029 19.248V11.2619C23.4029 9.05655 21.6151 7.2688 19.4098 7.2688Z" stroke="white" stroke-width="2" stroke-linecap="round" stroke-linejoin="round"/>
<path d="M18.6112 14.7519C18.7097 15.4165 18.5962 16.0953 18.2867 16.6917C17.9773 17.2881 17.4876 17.7718 16.8875 18.0738C16.2873 18.3759 15.6072 18.4811 14.9438 18.3743C14.2804 18.2676 13.6676 17.9544 13.1925 17.4793C12.7174 17.0042 12.4042 16.3913 12.2974 15.728C12.1907 15.0646 12.2958 14.3844 12.5979 13.7843C12.9 13.1841 13.3836 12.6944 13.98 12.385C14.5764 12.0755 15.2552 11.962 15.9199 12.0606C16.5978 12.1611 17.2255 12.477 17.7101 12.9616C18.1947 13.4463 18.5106 14.0739 18.6112 14.7519Z" stroke="white" stroke-width="2" stroke-linecap="round" stroke-linejoin="round"/>
<path d="M19.8086 10.8625H19.8169" stroke="white" stroke-width="2" stroke-linecap="round" stroke-linejoin="round"/>
</svg>
