<svg width="20" height="20" viewBox="0 0 20 20" fill="none" xmlns="http://www.w3.org/2000/svg">
<g clip-path="url(#clip0_1074_17336)">
<path d="M16.25 8.61035C16.25 13.4715 10 17.6381 10 17.6381C10 17.6381 3.75 13.4715 3.75 8.61035C3.75 6.95275 4.40848 5.36304 5.58058 4.19093C6.75268 3.01883 8.3424 2.36035 10 2.36035C11.6576 2.36035 13.2473 3.01883 14.4194 4.19093C15.5915 5.36304 16.25 6.95275 16.25 8.61035Z" stroke="#1A4A8C" stroke-width="2" stroke-linecap="round" stroke-linejoin="round"/>
<path d="M10.0003 10.694C11.1509 10.694 12.0837 9.76127 12.0837 8.61068C12.0837 7.46008 11.1509 6.52734 10.0003 6.52734C8.84973 6.52734 7.91699 7.46008 7.91699 8.61068C7.91699 9.76127 8.84973 10.694 10.0003 10.694Z" stroke="#1A4A8C" stroke-width="2" stroke-linecap="round" stroke-linejoin="round"/>
</g>
<defs>
<clipPath id="clip0_1074_17336">
<rect width="15" height="18.3333" fill="white" transform="translate(2.5 0.833008)"/>
</clipPath>
</defs>
</svg>
