<svg width="18" height="22" viewBox="0 0 18 22" fill="none" xmlns="http://www.w3.org/2000/svg">
<g clip-path="url(#clip0_1020_7828)">
<path d="M16.5 9.33331C16.5 15.1666 9 20.1666 9 20.1666C9 20.1666 1.5 15.1666 1.5 9.33331C1.5 7.34419 2.29018 5.43653 3.6967 4.03001C5.10322 2.62349 7.01088 1.83331 9 1.83331C10.9891 1.83331 12.8968 2.62349 14.3033 4.03001C15.7098 5.43653 16.5 7.34419 16.5 9.33331Z" stroke="#1A4A8C" stroke-width="2" stroke-linecap="round" stroke-linejoin="round"/>
<path d="M9 11.8333C10.3807 11.8333 11.5 10.714 11.5 9.33331C11.5 7.9526 10.3807 6.83331 9 6.83331C7.61929 6.83331 6.5 7.9526 6.5 9.33331C6.5 10.714 7.61929 11.8333 9 11.8333Z" stroke="#1A4A8C" stroke-width="2" stroke-linecap="round" stroke-linejoin="round"/>
</g>
<defs>
<clipPath id="clip0_1020_7828">
<rect width="18" height="22" fill="white"/>
</clipPath>
</defs>
</svg>
