<svg width="24" height="24" viewBox="0 0 24 24" fill="none" xmlns="http://www.w3.org/2000/svg">
<path d="M19.4448 15.2209C19.3867 15.2209 19.3286 15.279 19.2706 15.337C18.864 16.0339 17.9929 16.3243 17.2961 15.9178C17.0638 15.8016 16.8315 15.5693 16.7153 15.337C16.6573 15.279 16.5992 15.2209 16.5411 15.2209C16.2507 15.1628 16.0184 14.8725 16.0184 14.5821C16.0184 14.2917 16.2507 14.0594 16.5411 14.0014C16.5992 14.0014 16.6573 13.9433 16.6573 13.8852C17.0638 13.1883 17.9349 12.898 18.6318 13.3045C18.864 13.4206 19.0963 13.6529 19.2125 13.8852C19.2125 13.9433 19.2706 13.9433 19.3286 14.0014C19.619 14.0594 19.8513 14.2917 19.8513 14.5821C19.9094 14.8725 19.7932 15.1628 19.4448 15.2209C19.5028 15.2209 19.4448 15.2209 19.4448 15.2209ZM19.8513 11.3881H6.02984L11.8952 6.97449H19.9094L19.8513 11.3881ZM21.5935 5H11.2564C11.1984 5 11.1403 5 11.0822 5.05807L2.13893 11.4461C2.02278 11.5042 1.96471 11.6204 2.02278 11.7365V14.7563H2.71966C5.21681 14.9886 7.30745 16.7308 7.94626 19.1699C8.00433 19.4022 8.06241 19.6345 8.06241 19.8668H21.6516C21.8258 19.8668 22 19.6925 22 19.5183V5.34844C21.9419 5.17422 21.7677 5 21.5935 5Z" fill="#1A4A8C"/>
<path d="M18.7486 14.0016H17.1807C17.5291 13.5951 18.1679 13.479 18.5744 13.8274L18.7486 14.0016Z" fill="#1A4A8C"/>
<path d="M17.2383 15.2207H18.7482C18.4578 15.6272 17.8771 15.7434 17.4125 15.453C17.3544 15.3949 17.2964 15.2788 17.2383 15.2207Z" fill="#1A4A8C"/>
<path d="M19.2705 14.7567H16.7152C16.5991 14.7567 16.541 14.7567 16.541 14.6406C16.541 14.5244 16.6572 14.5244 16.7152 14.5244H19.2705C19.3866 14.5244 19.4447 14.5244 19.4447 14.6406C19.4447 14.7567 19.3866 14.7567 19.2705 14.7567Z" fill="#1A4A8C"/>
</svg>
