<svg width="30" height="30" viewBox="0 0 30 30" fill="none" xmlns="http://www.w3.org/2000/svg">
<path d="M15.6924 4.38972C15.608 4.21844 15.4367 4.112 15.2471 4.112C15.0562 4.112 14.8861 4.21844 14.8017 4.38972L13.0902 7.85568L9.26573 8.41111C9.07733 8.43803 8.92318 8.56771 8.86445 8.75C8.80573 8.93107 8.85344 9.12681 8.99046 9.26017L11.7578 11.9578L11.1045 15.7676C11.0727 15.956 11.1486 16.1419 11.3027 16.2533C11.3896 16.3169 11.4924 16.3487 11.5939 16.3487C11.6734 16.3487 11.7517 16.3291 11.8251 16.2912L15.2458 14.4927L18.6665 16.2912C18.8354 16.3805 19.036 16.3658 19.1901 16.2533C19.3443 16.1407 19.4201 15.9547 19.3883 15.7676L18.735 11.9578L21.5024 9.26017C21.6394 9.12681 21.6872 8.93229 21.6284 8.75C21.5697 8.56893 21.4156 8.43925 21.2271 8.41111L17.4027 7.85568L15.6924 4.38972ZM18.1343 11.5186C18.0169 11.6324 17.9631 11.7975 17.9912 11.959L18.5845 15.4177L15.4783 13.7844C15.3339 13.7085 15.1602 13.7085 15.0158 13.7844L11.9096 15.4177L12.5029 11.959C12.5311 11.7975 12.4772 11.6336 12.3598 11.5186L9.84686 9.06931L13.3202 8.56526C13.4817 8.54202 13.6223 8.44047 13.6945 8.29366L15.2483 5.14579L16.8008 8.29244C16.873 8.43925 17.0137 8.54079 17.1752 8.56404L20.6485 9.06809L18.1343 11.5186Z" fill="#1A4A8C"/>
<path d="M21.5686 3.81697C19.8166 2.1054 17.5019 1.19395 15.0502 1.25267C10.2812 1.36523 6.41768 5.1872 6.25496 9.95366C6.25251 10.0466 6.25007 10.1384 6.25007 10.2289C6.24395 11.6518 6.61709 13.104 7.33035 14.4289L13.954 26.7415L13.9613 26.7549C14.2378 27.2211 14.7259 27.5 15.2679 27.5C15.8099 27.5 16.298 27.2211 16.5745 26.7549L23.2092 14.4289C23.8674 13.2055 24.2381 11.8695 24.2809 10.5666C24.2846 10.4675 24.2858 10.3672 24.2858 10.2681C24.2858 7.81878 23.3205 5.52731 21.5686 3.81697ZM23.5468 10.5433C23.5077 11.7337 23.1676 12.9572 22.562 14.0815L15.9384 26.3879C15.7952 26.6253 15.5444 26.7672 15.2667 26.7672C14.989 26.7672 14.7382 26.6253 14.595 26.3879L7.97754 14.0815C7.32179 12.8642 6.97923 11.5331 6.98412 10.2326C6.98412 10.1482 6.98657 10.0638 6.98901 9.97935C7.13827 5.60072 10.6862 2.08949 15.0673 1.98672C17.3196 1.93534 19.4459 2.76972 21.0547 4.34182C22.6647 5.91391 23.5505 8.0182 23.5505 10.2681C23.5517 10.3598 23.5493 10.4516 23.5468 10.5433Z" fill="#1A4A8C"/>
</svg>
