<svg width="24" height="24" viewBox="0 0 24 24" fill="none" xmlns="http://www.w3.org/2000/svg">
<path d="M9 22C9.55228 22 10 21.5523 10 21C10 20.4477 9.55228 20 9 20C8.44772 20 8 20.4477 8 21C8 21.5523 8.44772 22 9 22Z" stroke="#1A4A8C" stroke-width="2" stroke-linecap="round" stroke-linejoin="round"/>
<path d="M19 22C19.5523 22 20 21.5523 20 21C20 20.4477 19.5523 20 19 20C18.4477 20 18 20.4477 18 21C18 21.5523 18.4477 22 19 22Z" stroke="#1A4A8C" stroke-width="2" stroke-linecap="round" stroke-linejoin="round"/>
<path d="M1 2L4.81818 2L7.37636 14.497C7.46365 14.9267 7.70273 15.3127 8.05175 15.5874C8.40077 15.8621 8.83748 16.0081 9.28545 15.9997H18.5636C19.0116 16.0081 19.4483 15.8621 19.7973 15.5874C20.1464 15.3127 20.3854 14.9267 20.4727 14.497L22 6.66655L5.77273 6.66655" stroke="#1A4A8C" stroke-width="2" stroke-linecap="round" stroke-linejoin="round"/>
</svg>
