<svg width="30" height="30" viewBox="0 0 30 30" fill="none" xmlns="http://www.w3.org/2000/svg">
<path d="M26.0128 13.8916L20.6809 10.8147C20.5338 10.7296 20.3514 10.7296 20.2054 10.8147L16.6881 12.8441C16.513 12.945 16.4534 13.1673 16.5543 13.3423C16.6553 13.5161 16.8791 13.5769 17.053 13.476L20.0777 11.7297V24.6026L15.3649 27.3357V22.6595C15.3649 22.4578 15.2019 22.2949 15 22.2949C14.7981 22.2949 14.6351 22.4578 14.6351 22.6595V27.3369L9.9223 24.6111V11.7297L12.9057 13.4517C13.0796 13.5526 13.3034 13.493 13.4043 13.318C13.5053 13.1442 13.4457 12.9206 13.2705 12.8198L9.79581 10.8147C9.64986 10.7296 9.46743 10.7296 9.32027 10.8147L3.98838 13.888C3.84122 13.9718 3.75 14.1298 3.75 14.2987V27.7768C3.75 27.9457 3.84122 28.1037 3.98838 28.1888C4.13554 28.2738 4.31797 28.2726 4.46392 28.1888L9.55743 25.2419L14.7616 28.252C14.7714 28.2568 14.7799 28.2617 14.7896 28.2653C14.8492 28.3079 14.9209 28.3322 15 28.3322C15.0791 28.3322 15.1508 28.3067 15.2104 28.2641C15.2201 28.2593 15.2299 28.2556 15.2384 28.2508L20.4426 25.2333L25.5361 28.1863C25.6832 28.2714 25.8657 28.2714 26.0116 28.1876C26.1588 28.1025 26.25 27.9457 26.25 27.7756V14.3024C26.25 14.1334 26.1588 13.9755 26.0128 13.8916ZM4.47973 14.4458L9.19257 11.7297V24.6111L4.47973 27.3369V14.4458ZM25.5203 27.3357L20.8074 24.6026V11.7297L25.5203 14.4494V27.3357Z" fill="#1A4A8C"/>
<path d="M14.6351 10.4841V19.3139C14.6351 19.5156 14.7981 19.6785 15 19.6785C15.2019 19.6785 15.3649 19.5156 15.3649 19.3139V10.4841C17.402 10.2993 19.0038 8.58344 19.0038 6.50053C19.0038 4.29489 17.2074 2.5 15 2.5C12.7926 2.5 10.9962 4.29489 10.9962 6.50053C10.9962 8.58344 12.598 10.2981 14.6351 10.4841ZM15 3.22914C16.8049 3.22914 18.2741 4.69713 18.2741 6.50053C18.2741 8.30393 16.8049 9.77193 15 9.77193C13.1951 9.77193 11.7259 8.30393 11.7259 6.50053C11.7259 4.69713 13.1951 3.22914 15 3.22914Z" fill="#1A4A8C"/>
<path d="M15.8088 8.8496C15.8526 8.8496 15.8964 8.8411 15.9401 8.8253C16.5045 8.60777 16.9922 8.20432 17.3133 7.68906C17.4203 7.51771 17.368 7.2929 17.1965 7.18717C17.025 7.08023 16.8 7.1337 16.6942 7.30383C16.457 7.68541 16.0958 7.98436 15.6774 8.14477C15.4889 8.21768 15.3953 8.42792 15.4683 8.61628C15.5242 8.76089 15.6629 8.8496 15.8088 8.8496Z" fill="#1A4A8C"/>
<path d="M13.6561 19.0271C13.8349 18.9348 13.9054 18.7148 13.8118 18.5362C13.7193 18.3575 13.498 18.287 13.3204 18.3806C12.7366 18.6832 12.4022 19.1377 12.4022 19.6287C12.4022 20.5376 13.543 21.2498 15 21.2498C16.457 21.2498 17.5978 20.5376 17.5978 19.6287C17.5978 19.1049 17.2257 18.631 16.575 18.3296C16.3926 18.2445 16.1749 18.3235 16.0897 18.5058C16.0046 18.6881 16.0837 18.9056 16.2661 18.9907C16.6419 19.1657 16.8669 19.4038 16.8669 19.6287C16.8669 20.0491 16.0678 20.5206 14.9988 20.5206C13.9297 20.5206 13.1307 20.0503 13.1307 19.6287C13.1319 19.4221 13.3277 19.1972 13.6561 19.0271Z" fill="#1A4A8C"/>
</svg>
