<svg width="30" height="30" viewBox="0 0 30 30" fill="none" xmlns="http://www.w3.org/2000/svg">
<path fill-rule="evenodd" clip-rule="evenodd" d="M0.465209 9.07912C0.465156 9.07912 0.465115 9.07913 0.523769 9.54508L0.465209 9.07912C0.301833 9.09968 0.161155 9.20464 0.0947782 9.35558C0.0283992 9.50652 0.0459627 9.68132 0.141042 9.81606C2.97972 13.8387 4.31892 15.6159 5.0034 16.446C5.3461 16.8616 5.53768 17.0559 5.68154 17.1786C5.73252 17.2221 5.78395 17.2613 5.81491 17.2849C5.82385 17.2918 5.83108 17.2973 5.8361 17.3012C5.86051 17.3204 5.88014 17.3371 5.91116 17.3711C6.41454 17.9238 7.18936 18.1144 7.87157 18.1739C8.57183 18.235 9.28682 18.1667 9.77936 18.1047L13.2503 17.6678L12.0863 22.0841C12.0465 22.235 12.0842 22.3959 12.1868 22.5134C12.2895 22.6309 12.4436 22.6896 12.5982 22.6702L15.9654 22.2463C16.0587 22.2346 16.1464 22.195 16.2169 22.1326L22.3118 16.7469C24.0611 16.4028 25.6711 15.9855 26.8407 15.4722C27.4371 15.2104 27.9533 14.9093 28.3144 14.554C28.6822 14.1922 28.9256 13.7338 28.8577 13.1944C28.7878 12.6397 28.4078 12.141 27.9249 11.732C27.43 11.3128 26.765 10.9339 25.999 10.6282C24.4669 10.0166 22.4627 9.67075 20.4428 9.92501L8.0584 11.484L8.05416 11.4813C7.96107 11.4228 7.82754 11.3389 7.66589 11.237C7.34252 11.0333 6.9068 10.7581 6.45706 10.472C5.54221 9.88999 4.61195 9.28941 4.40812 9.13085C4.25475 9.01154 4.05685 8.96465 3.91751 8.93997C3.7578 8.91168 3.57355 8.8971 3.38362 8.8905C3.00218 8.87724 2.54877 8.89481 2.12173 8.92263C1.69232 8.9506 1.27869 8.98969 0.973155 9.02168C0.820157 9.03769 0.693724 9.05198 0.605306 9.0623C0.561087 9.06746 0.526345 9.07163 0.502509 9.07453L0.475105 9.07788L0.465209 9.07912ZM7.95129 11.9708L7.70282 12.3689C7.79436 12.4263 7.90284 12.4502 8.00995 12.4367L20.5601 10.8569C22.4097 10.6241 24.2546 10.9427 25.6524 11.5007C26.3514 11.7797 26.9216 12.1118 27.3198 12.4491C27.7299 12.7965 27.9008 13.0998 27.9275 13.3115C27.947 13.4664 27.8944 13.6505 27.6574 13.8837C27.4137 14.1234 27.0161 14.3696 26.4641 14.6118C25.3648 15.0943 23.7889 15.5038 22.0077 15.8493C21.9257 15.8652 21.8495 15.9028 21.7868 15.9581L15.7048 21.3324L13.1701 21.6515L14.3341 17.2351C14.3738 17.0842 14.3362 16.9234 14.2335 16.8059C14.1309 16.6884 13.9768 16.6296 13.8222 16.6491L9.66205 17.1728C9.18722 17.2326 8.55154 17.2905 7.95247 17.2382C7.33535 17.1844 6.86217 17.0221 6.60355 16.7382C6.53109 16.6587 6.47139 16.6069 6.41401 16.5619C6.3924 16.545 6.3763 16.5327 6.36227 16.522C6.33773 16.5034 6.31951 16.4895 6.28924 16.4637C6.20648 16.3931 6.05523 16.2472 5.72607 15.848C5.10357 15.0931 3.89137 13.4904 1.36742 9.92615C1.61284 9.90272 1.89487 9.87865 2.183 9.85988C2.59858 9.83281 3.0161 9.81751 3.35156 9.82917C3.52008 9.83502 3.65578 9.84733 3.75471 9.86486C3.8148 9.8755 3.84449 9.8853 3.85403 9.88843C4.13316 10.099 5.09039 10.7149 5.95474 11.2648C6.40602 11.5519 6.84299 11.8279 7.16707 12.0321C7.32913 12.1342 7.46301 12.2183 7.5564 12.277L7.70219 12.3685L7.70282 12.3689C7.70285 12.3689 7.70282 12.3689 7.95129 11.9708Z" fill="white"/>
<path fill-rule="evenodd" clip-rule="evenodd" d="M27.4431 11.5438C27.3554 11.2997 27.0868 11.1731 26.8432 11.2609L25.3609 11.7954C25.1173 11.8833 24.991 12.1523 25.0788 12.3963C25.1666 12.6404 25.4352 12.767 25.6787 12.6792L27.1611 12.1447C27.4046 12.0569 27.5309 11.7878 27.4431 11.5438Z" fill="white"/>
<path fill-rule="evenodd" clip-rule="evenodd" d="M13.1911 14.1323C12.9343 14.1646 12.7523 14.3994 12.7847 14.6568L12.8665 15.3068C12.8989 15.5641 13.1334 15.7465 13.3902 15.7142C13.6471 15.6819 13.8291 15.447 13.7967 15.1897L13.7148 14.5397C13.6824 14.2823 13.448 14.0999 13.1911 14.1323Z" fill="white"/>
<path fill-rule="evenodd" clip-rule="evenodd" d="M15.0724 13.8955C14.8156 13.9278 14.6336 14.1626 14.666 14.42L14.7478 15.07C14.7802 15.3273 15.0147 15.5097 15.2716 15.4774C15.5284 15.445 15.7104 15.2102 15.678 14.9529L15.5962 14.3029C15.5638 14.0455 15.3293 13.8631 15.0724 13.8955Z" fill="white"/>
<path fill-rule="evenodd" clip-rule="evenodd" d="M16.9536 13.6586C16.6968 13.691 16.5148 13.9258 16.5472 14.1831L16.629 14.8331C16.6614 15.0905 16.8959 15.2729 17.1528 15.2406C17.4096 15.2082 17.5916 14.9734 17.5592 14.7161L17.4774 14.0661C17.445 13.8087 17.2105 13.6263 16.9536 13.6586Z" fill="white"/>
<path fill-rule="evenodd" clip-rule="evenodd" d="M18.8349 13.4219C18.578 13.4542 18.396 13.689 18.4284 13.9464L18.5103 14.5964C18.5426 14.8537 18.7771 15.0361 19.034 15.0038C19.2908 14.9714 19.4728 14.7366 19.4404 14.4793L19.3586 13.8293C19.3262 13.5719 19.0917 13.3895 18.8349 13.4219Z" fill="white"/>
<path fill-rule="evenodd" clip-rule="evenodd" d="M20.7162 13.185C20.4593 13.2173 20.2774 13.4522 20.3098 13.7095L20.3916 14.3595C20.424 14.6169 20.6585 14.7993 20.9153 14.7669C21.1722 14.7346 21.3541 14.4998 21.3217 14.2424L21.2399 13.5924C21.2075 13.3351 20.973 13.1527 20.7162 13.185Z" fill="white"/>
<path fill-rule="evenodd" clip-rule="evenodd" d="M14.6518 8.415C14.5637 8.36464 14.4617 8.34426 14.3611 8.35693L11.4938 8.71786C11.3265 8.73892 11.1835 8.84838 11.1192 9.00451C11.0548 9.16065 11.0792 9.33939 11.183 9.4726L12.7073 11.4297C12.8666 11.6342 13.1612 11.6707 13.3653 11.5112C13.5693 11.3517 13.6056 11.0566 13.4463 10.8521L12.4296 9.54674L14.3233 9.30835L17.2726 10.9938C17.4975 11.1223 17.7837 11.0439 17.9119 10.8186C18.0401 10.5933 17.9617 10.3065 17.7368 10.178L14.6518 8.415Z" fill="white"/>
</svg>
