<svg width="30" height="31" viewBox="0 0 30 31" fill="none" xmlns="http://www.w3.org/2000/svg">
<rect y="0.671631" width="30" height="30" rx="5" fill="#00BDD6"/>
<path d="M22.9848 11.7017C22.8948 11.3363 22.7115 11.0015 22.4535 10.731C22.1954 10.4606 21.8718 10.2642 21.5151 10.1617C20.2122 9.83826 15.0003 9.83826 15.0003 9.83826C15.0003 9.83826 9.78848 9.83826 8.48551 10.1925C8.1289 10.295 7.80523 10.4914 7.54719 10.7618C7.28915 11.0323 7.10588 11.3671 7.01589 11.7325C6.77743 13.0767 6.66079 14.4402 6.66743 15.806C6.65893 17.1821 6.77558 18.5561 7.01589 19.9103C7.1151 20.2644 7.30247 20.5865 7.55991 20.8455C7.81735 21.1045 8.13615 21.2916 8.48551 21.3888C9.78848 21.743 15.0003 21.743 15.0003 21.743C15.0003 21.743 20.2122 21.743 21.5151 21.3888C21.8718 21.2862 22.1954 21.0898 22.4535 20.8194C22.7115 20.549 22.8948 20.2142 22.9848 19.8487C23.2214 18.5147 23.338 17.1616 23.3332 15.806C23.3417 14.4299 23.2251 13.056 22.9848 11.7017V11.7017Z" stroke="white" stroke-width="2" stroke-linecap="round" stroke-linejoin="round"/>
<path d="M13.0156 18.5685L17.7775 15.7907L13.0156 13.0129V18.5685Z" stroke="white" stroke-width="2" stroke-linecap="round" stroke-linejoin="round"/>
</svg>
